<svg xmlns="http://www.w3.org/2000/svg" xmlns:xlink="http://www.w3.org/1999/xlink" width="1080" zoomAndPan="magnify" viewBox="0 0 810 809.999993" height="1080" preserveAspectRatio="xMidYMid meet" version="1.0"><defs><clipPath id="4e4ed64295"><path d="M 357 349 L 454 349 L 454 468 L 357 468 Z M 357 349 " clip-rule="nonzero"/></clipPath><clipPath id="874a7ab85f"><path d="M 369.132812 337.558594 L 465.179688 358.230469 L 440.5625 472.613281 L 344.511719 451.9375 Z M 369.132812 337.558594 " clip-rule="nonzero"/></clipPath><clipPath id="84823d0386"><path d="M 369.132812 337.558594 L 465.179688 358.230469 L 440.5625 472.613281 L 344.511719 451.9375 Z M 369.132812 337.558594 " clip-rule="nonzero"/></clipPath><clipPath id="145aa1230e"><path d="M 369.132812 337.558594 L 465.179688 358.230469 L 440.5625 472.613281 L 344.511719 451.9375 Z M 369.132812 337.558594 " clip-rule="nonzero"/></clipPath></defs><g clip-path="url(#4e4ed64295)"><g clip-path="url(#874a7ab85f)"><g clip-path="url(#84823d0386)"><g clip-path="url(#145aa1230e)"><path fill="#010101" d="M 379.015625 391.125 C 377.75 393.664062 376.132812 395.992188 374.753906 398.464844 C 374 399.816406 372.96875 401.089844 372.035156 402.375 C 370.910156 403.921875 370.050781 405.6875 369.015625 407.300781 C 367.988281 408.910156 366.875 410.507812 365.933594 412.144531 C 365.039062 413.699219 363.824219 415.085938 363.222656 416.8125 C 362.871094 417.816406 362.167969 418.613281 361.515625 419.414062 C 360.765625 420.347656 359.382812 420.386719 358.136719 419.730469 C 357.144531 419.203125 357 417.882812 357.113281 416.832031 C 357.300781 415.078125 358.375 413.699219 359.164062 412.214844 C 359.46875 411.644531 359.898438 411.082031 360.140625 410.496094 C 361.710938 406.703125 364.277344 403.53125 366.5625 400.207031 C 367.902344 398.257812 369.277344 396.292969 370.617188 394.347656 C 371.632812 392.875 372.777344 391.441406 373.621094 389.835938 C 373.664062 389.761719 373.621094 389.640625 373.613281 389.347656 C 372.832031 390.457031 371.8125 391.113281 370.960938 391.90625 C 369.722656 393.054688 368.679688 394.425781 367.289062 395.386719 C 365.5 396.621094 363.914062 398.3125 361.445312 398.152344 C 359.3125 398.015625 356.769531 395.886719 357.296875 393.21875 C 357.886719 390.269531 358.808594 387.417969 359.683594 384.5625 C 360.449219 382.0625 361.535156 379.65625 362.820312 377.390625 C 363.191406 376.742188 363.21875 376.023438 363.621094 375.457031 C 364.183594 374.667969 364.914062 374.007812 365.570312 373.304688 C 366.152344 372.679688 366.609375 371.882812 367.566406 371.558594 C 367.925781 371.441406 368.089844 371.414062 368.339844 371.582031 C 369.058594 372.066406 369.324219 372.828125 369.460938 373.625 C 369.570312 374.253906 369.164062 374.640625 368.621094 374.796875 C 367.9375 374.996094 367.515625 375.4375 367.132812 376 C 365.300781 378.699219 364.183594 381.710938 363.183594 384.789062 C 362.496094 386.894531 361.890625 389.019531 361.355469 391.167969 C 361.222656 391.703125 361.398438 392.242188 361.132812 392.773438 C 360.980469 393.074219 361.269531 393.1875 361.644531 393.113281 C 362.582031 392.929688 363.21875 392.300781 363.84375 391.679688 C 365.648438 389.894531 367.753906 388.476562 369.683594 386.851562 C 369.964844 386.617188 370.308594 386.410156 370.363281 386.097656 C 370.449219 385.59375 370.78125 385.269531 371.125 385.113281 C 373.042969 384.261719 374.042969 382.402344 375.5625 381.121094 C 377.132812 379.800781 378.738281 378.492188 380.101562 376.972656 C 381.683594 375.210938 383.179688 373.394531 385.15625 372.054688 C 385.390625 371.894531 385.484375 371.652344 385.886719 371.859375 C 387.972656 372.917969 388.453125 375.355469 387.058594 377.25 C 386.328125 378.25 385.640625 379.3125 385.085938 380.457031 C 384.476562 381.714844 383.609375 382.84375 382.914062 384.0625 C 381.921875 385.800781 380.980469 387.570312 380.015625 389.328125 C 379.6875 389.929688 379.320312 390.511719 379.015625 391.125 Z M 414.613281 382.101562 C 414.160156 382.140625 413.453125 382.230469 413.105469 382.925781 C 411.535156 386.078125 410.226562 389.339844 408.898438 392.601562 C 407.507812 396.011719 406.355469 399.488281 405.464844 403.050781 C 405.277344 403.796875 405.382812 404.777344 405.828125 405.417969 C 406.789062 406.800781 409.96875 407.332031 411.4375 406.445312 C 413.976562 404.910156 416.144531 402.894531 418.257812 400.839844 C 418.660156 400.445312 419.027344 400.03125 419.511719 399.695312 C 419.511719 400.261719 419.136719 400.71875 419.101562 401.175781 C 419.0625 401.675781 418.996094 402.191406 418.988281 402.699219 C 418.972656 403.851562 419.859375 405.058594 420.984375 405.351562 C 421.742188 405.546875 423.527344 404.75 423.777344 403.9375 C 424.195312 402.578125 425.109375 401.472656 425.777344 400.289062 C 427.144531 397.863281 428.898438 395.691406 430.042969 393.0625 C 430.6875 391.578125 431.625 390.105469 432.476562 388.65625 C 433.710938 386.554688 433.007812 384.03125 430.878906 382.914062 C 430.515625 382.722656 430.191406 382.589844 429.664062 382.976562 C 428.851562 383.570312 428.304688 384.375 427.566406 385 C 426.523438 385.878906 425.351562 386.621094 424.394531 387.582031 C 421.804688 390.179688 419.507812 393.078125 416.472656 395.222656 C 414.539062 396.585938 413.019531 398.460938 410.859375 399.972656 C 411.109375 398.324219 411.546875 396.992188 411.9375 395.648438 C 412.363281 394.179688 412.851562 392.730469 413.3125 391.28125 C 413.804688 389.730469 413.71875 388.089844 414.335938 386.570312 C 414.496094 386.175781 414.914062 386.457031 414.945312 386.042969 C 415.023438 384.925781 415.054688 384.933594 415.765625 384.445312 C 415.828125 384.402344 415.808594 384.246094 415.835938 384.144531 C 416 383.5 415.261719 382.046875 414.613281 382.101562 Z M 384.308594 398.085938 C 385.285156 394.617188 387.371094 390.597656 389.941406 386.792969 C 391.167969 384.980469 392.527344 383.269531 393.820312 381.511719 C 395.238281 379.585938 397.132812 378.09375 399.367188 377.355469 C 401.476562 376.664062 403.484375 377.253906 405.117188 378.933594 C 406.644531 380.507812 407.203125 382.4375 407.011719 384.492188 C 406.890625 385.773438 406.316406 387.042969 405.902344 388.308594 C 405.308594 390.121094 404.160156 391.632812 403.441406 393.382812 C 402.957031 394.566406 401.894531 395.523438 401.054688 396.550781 C 399.953125 397.898438 398.910156 399.320312 397.667969 400.527344 C 395.828125 402.316406 393.933594 404.148438 391.332031 404.773438 C 389.792969 405.140625 388.167969 405.4375 386.757812 404.257812 C 386.472656 404.015625 386.085938 404.074219 385.757812 403.84375 C 383.566406 402.289062 383.386719 401.839844 384.308594 398.085938 Z M 389.402344 399.117188 C 390.820312 398.164062 392.246094 397.4375 393.496094 396.40625 C 394.757812 395.367188 396.148438 394.398438 397.070312 393.089844 C 398.375 391.230469 399.863281 389.492188 400.847656 387.386719 C 401.539062 385.910156 402.390625 384.511719 402.671875 382.882812 C 402.96875 381.15625 402.550781 380.871094 400.867188 381.414062 C 400.339844 381.585938 400.019531 382.183594 399.488281 382.125 C 398.402344 382 397.71875 382.765625 397.1875 383.367188 C 395.679688 385.078125 394.472656 387.035156 393.296875 389 C 392.394531 390.503906 391.773438 392.121094 391.175781 393.753906 C 390.539062 395.488281 389.488281 397.085938 389.402344 399.117188 Z M 444.945312 442.058594 C 445.128906 443.339844 444.144531 443.214844 443.589844 443.191406 C 442.472656 443.148438 441.542969 443.652344 440.59375 444.015625 C 437.808594 445.082031 435.378906 446.871094 432.726562 448.191406 C 429.898438 449.59375 428.617188 452.054688 427.316406 454.671875 C 425.996094 457.328125 424.460938 459.875 422.726562 462.296875 C 421.621094 463.839844 420.65625 465.496094 419.015625 466.574219 C 417.5 467.570312 415.25 467.15625 414.789062 465.714844 C 414.464844 464.695312 414.390625 463.546875 414.757812 462.570312 C 415.148438 461.546875 415.429688 460.484375 415.765625 459.457031 C 416.570312 456.960938 418.398438 455.367188 420.210938 453.71875 C 421.132812 452.878906 421.960938 451.890625 423 451.242188 C 424.4375 450.34375 425.585938 449.097656 427 448.199219 C 428.058594 447.523438 428.105469 446.25 428.761719 445.335938 C 429.691406 444.042969 430.074219 442.460938 430.808594 441.058594 C 430.941406 440.804688 431.09375 440.449219 430.847656 440 C 429.773438 441.066406 428.742188 442.125 427.542969 442.992188 C 425.765625 444.273438 423.921875 444.78125 421.90625 443.613281 C 421.570312 443.421875 421.355469 443.113281 421.191406 442.640625 C 420.554688 440.769531 421.433594 439.097656 421.71875 437.363281 C 421.941406 436.023438 422.375 434.714844 422.511719 433.347656 C 422.574219 432.710938 423.03125 432.074219 423.5 431.921875 C 424.058594 431.738281 424.679688 432.066406 425.191406 432.644531 C 425.972656 433.519531 426.074219 434.351562 425.8125 435.4375 C 425.5625 436.480469 425.46875 437.574219 425.457031 438.648438 C 425.449219 439.101562 424.949219 439.273438 425.144531 439.917969 C 426.820312 438.464844 428.695312 437.445312 430.285156 435.976562 C 431.394531 434.949219 432.402344 433.832031 433.515625 432.816406 C 434.527344 431.898438 435.597656 432.082031 436.101562 433.363281 C 436.578125 434.566406 436.0625 435.6875 435.609375 436.761719 C 434.644531 439.058594 433.796875 441.40625 432.78125 443.769531 C 434.265625 442.976562 435.765625 442.214844 437.226562 441.378906 C 438.746094 440.503906 440.363281 439.894531 442.058594 439.53125 C 443.125 439.300781 444.792969 440.96875 444.945312 442.058594 Z M 423.996094 454.355469 C 418.515625 458.519531 417.210938 460.4375 417.191406 464.300781 C 418.914062 463.027344 419.855469 461.164062 420.980469 459.421875 C 422.023438 457.800781 423.140625 456.226562 423.996094 454.355469 Z M 431.191406 407.3125 C 431.066406 406.707031 430.921875 405.929688 431.230469 405.234375 C 431.679688 404.226562 432.242188 403.292969 432.832031 402.359375 C 434.109375 400.347656 435.085938 398.171875 436.121094 396.027344 C 437.164062 393.878906 438.160156 391.707031 439.183594 389.550781 C 439.636719 388.597656 439.878906 387.550781 440.660156 386.746094 C 441.472656 385.914062 441.734375 385.921875 442.207031 387.046875 C 443.785156 385.839844 445.320312 384.691406 447.121094 383.980469 C 447.792969 383.714844 448.507812 383.964844 449.082031 384.179688 C 451.613281 385.117188 453.070312 386.984375 453.339844 389.71875 C 453.59375 392.300781 452.523438 394.210938 450.527344 395.832031 C 448.605469 397.390625 446.394531 398.175781 444.113281 398.882812 C 443.558594 399.054688 443.714844 399.472656 443.867188 399.730469 C 444.726562 401.203125 445.121094 402.875 445.90625 404.398438 C 446.65625 405.859375 447.683594 407.109375 448.410156 408.550781 C 448.714844 409.148438 448.859375 409.910156 448.441406 410.40625 C 447.890625 411.058594 446.933594 411.121094 446.1875 410.925781 C 445.140625 410.648438 444.003906 410.285156 443.828125 408.878906 C 443.808594 408.710938 443.609375 408.097656 443.3125 408.835938 C 443.207031 409.101562 442.941406 408.769531 442.808594 408.640625 C 441.902344 407.753906 441.164062 406.769531 440.617188 405.59375 C 440.097656 404.484375 439.804688 403.300781 439.289062 402.199219 C 439.199219 402.007812 439.167969 401.757812 438.835938 401.671875 C 438.363281 402.691406 437.867188 403.710938 437.363281 404.722656 C 436.730469 405.996094 435.890625 407.203125 434.953125 408.273438 C 434.214844 409.117188 431.417969 408.410156 431.191406 407.3125 Z M 442.578125 393.316406 C 443.929688 392.925781 445.226562 392.796875 446.285156 392.121094 C 447.402344 391.410156 448.589844 390.640625 448.753906 389.121094 C 448.851562 388.234375 448.421875 387.90625 447.574219 388.164062 C 446.550781 388.476562 445.664062 389.082031 444.71875 389.5625 C 443.210938 390.324219 442.976562 391.796875 442.578125 393.316406 Z M 403.164062 424.554688 C 401.320312 427.644531 400.671875 431.171875 399.375 434.457031 C 398.023438 437.863281 396.84375 441.34375 395.128906 444.601562 C 394.6875 445.4375 394.5625 446.398438 394.058594 447.214844 C 393.925781 447.429688 393.84375 447.652344 393.628906 447.820312 C 393.199219 448.152344 392.453125 447.761719 392.199219 448.460938 C 391.761719 447.914062 390.992188 448.117188 390.527344 447.753906 C 390.136719 447.445312 389.597656 447.066406 390.023438 446.308594 C 390.238281 445.925781 390.167969 445.367188 390.179688 444.886719 C 390.191406 444.292969 389.710938 444.527344 389.460938 444.558594 C 387.9375 444.746094 386.496094 444.503906 385.078125 443.9375 C 384.03125 443.523438 383.570312 442.34375 383.355469 441.210938 C 382.863281 438.609375 384.34375 436.648438 385.414062 434.6875 C 386.457031 432.785156 387.738281 430.882812 389.601562 429.542969 C 391.046875 428.5 392.605469 428.765625 393.84375 430.082031 C 394.820312 431.121094 395.132812 432.453125 395.777344 433.664062 C 396.535156 432.164062 397.539062 430.792969 397.84375 429.191406 C 398.25 427.054688 399.226562 425.152344 399.914062 423.136719 C 400.164062 422.414062 400.964844 422.050781 401.230469 421.253906 C 401.34375 420.917969 401.976562 421.183594 402.292969 421.414062 C 403.386719 422.21875 403.835938 423.433594 403.164062 424.554688 Z M 392.742188 432.003906 C 392.441406 430.96875 392 430.925781 391.195312 431.738281 C 389.195312 433.746094 387.917969 436.148438 387.292969 439.097656 C 387.117188 439.402344 387.132812 439.929688 387.03125 440.429688 C 386.960938 440.792969 387.015625 440.984375 387.425781 441.019531 C 389.03125 441.15625 390.507812 440.429688 392.074219 440.3125 C 392.140625 440.308594 392.238281 440.125 392.304688 440.039062 C 392.804688 439.410156 393.019531 438.664062 393.308594 437.933594 C 394.136719 435.84375 393.300781 433.929688 392.742188 432.003906 Z M 419.898438 440.976562 C 418.464844 442.347656 417.125 443.804688 415.042969 444.355469 C 413.886719 444.664062 413.003906 444.183594 412.023438 443.984375 C 410.523438 443.679688 410.011719 442.441406 409.707031 441.054688 C 408.582031 441.988281 408.054688 443.382812 406.773438 444.210938 C 404.699219 445.554688 402.867188 444.84375 401.609375 443.496094 C 401.023438 442.863281 401.054688 441.507812 401.425781 440.53125 C 401.878906 439.347656 401.765625 438.058594 402.238281 436.898438 C 402.910156 435.25 403.058594 433.355469 404.441406 432.039062 C 404.882812 431.621094 405.007812 431.023438 405.515625 430.597656 C 406.886719 429.464844 408.128906 429.546875 409.476562 430.65625 C 410.816406 431.757812 411.417969 433.339844 412.433594 434.640625 C 413.078125 435.460938 412.714844 436.75 412.691406 437.820312 C 412.667969 438.933594 413.046875 439.960938 413.183594 441.035156 C 413.257812 441.605469 413.722656 441.335938 413.925781 441.171875 C 415.289062 440.070312 416.882812 439.449219 418.476562 438.796875 C 419.269531 438.472656 419.4375 439.132812 419.738281 439.492188 C 420.078125 439.902344 420.402344 440.496094 419.898438 440.976562 Z M 408.410156 433.878906 C 408.261719 433.761719 407.972656 433.640625 407.855469 433.941406 C 407.285156 435.402344 406.734375 436.871094 406.175781 438.335938 C 406.253906 438.359375 406.339844 438.382812 406.417969 438.40625 C 407.207031 437.335938 408.046875 436.296875 408.746094 435.171875 C 408.949219 434.839844 408.835938 434.214844 408.410156 433.878906 Z M 452.441406 416.035156 C 452.398438 415.503906 452.175781 415.285156 451.242188 415.097656 C 448.015625 414.453125 444.835938 413.585938 441.550781 413.21875 C 439.222656 412.960938 436.917969 412.472656 434.585938 412.214844 C 430.792969 411.792969 426.976562 411.558594 423.191406 411.089844 C 420.699219 410.78125 418.191406 410.683594 415.695312 410.464844 C 412.027344 410.144531 408.335938 410.066406 404.652344 409.878906 C 400.113281 409.648438 395.578125 409.285156 391.027344 409.234375 C 388.28125 409.207031 385.539062 409.035156 382.792969 409.027344 C 380.667969 409.023438 378.539062 409.164062 376.40625 408.894531 C 375.414062 408.773438 374.328125 408.855469 373.3125 409.257812 C 372.855469 409.441406 372.546875 409.640625 372.617188 410.070312 C 372.695312 410.554688 373.273438 410.585938 373.605469 410.597656 C 374.0625 410.613281 374.535156 410.59375 374.996094 410.574219 C 380.804688 410.3125 386.59375 410.675781 392.386719 410.921875 C 396.300781 411.085938 400.210938 411.363281 404.121094 411.597656 C 408.566406 411.863281 413.011719 412.09375 417.453125 412.417969 C 421.121094 412.683594 424.789062 413.03125 428.453125 413.40625 C 431.609375 413.730469 434.761719 414.089844 437.90625 414.53125 C 440.589844 414.90625 443.246094 415.527344 445.9375 415.820312 C 447.324219 415.972656 448.394531 416.816406 449.867188 417.105469 C 450.296875 417.296875 450.917969 417.15625 451.53125 417.171875 C 452.378906 417.195312 452.496094 416.710938 452.441406 416.035156 Z M 412.507812 353.941406 C 413.378906 354.210938 414.191406 355.007812 415.230469 354.5 C 415.402344 354.417969 415.601562 354.375 415.734375 354.550781 C 415.875 354.734375 415.710938 354.890625 415.617188 355.039062 C 414.757812 356.421875 414.296875 357.988281 413.476562 359.410156 C 412.601562 360.921875 412.851562 362.917969 411.738281 364.441406 C 411.488281 364.777344 411.703125 365.429688 411.488281 365.816406 C 410.90625 366.875 411.101562 367.839844 411.582031 368.832031 C 411.933594 369.5625 412.71875 369.898438 413.289062 369.839844 C 413.992188 369.765625 415.015625 369.835938 415.28125 368.703125 C 415.761719 366.621094 416.316406 364.5625 416.824219 362.488281 C 417.453125 359.917969 417.960938 357.320312 418.703125 354.773438 C 419.03125 353.65625 419.417969 352.925781 420.738281 352.855469 C 421.902344 352.789062 422.363281 351.894531 421.789062 351.101562 C 421.136719 350.195312 420.242188 349.613281 419.152344 349.414062 C 418.183594 349.1875 417.226562 349.167969 416.269531 349.558594 C 415.1875 350.003906 414.21875 350.660156 413.089844 351.035156 C 412.195312 351.332031 411.785156 353.71875 412.507812 353.941406 Z M 399.320312 369.863281 C 399.734375 370.140625 400.226562 370.304688 400.6875 370.507812 C 401.875 371.03125 403.042969 370.519531 403.503906 369.28125 C 403.972656 368.019531 404.167969 366.667969 404.621094 365.417969 C 405.378906 363.320312 405.941406 361.160156 406.808594 359.09375 C 407.4375 357.585938 407.765625 355.949219 408.589844 354.519531 C 408.925781 353.9375 408.835938 353.375 408.507812 353.03125 C 408.113281 352.621094 407.738281 352.175781 407.324219 351.78125 C 406.480469 350.972656 405.640625 351.058594 405.097656 352.101562 C 404.421875 353.398438 403.785156 354.703125 403.308594 356.117188 C 402.65625 358.035156 401.378906 359.71875 400.933594 361.753906 C 400.851562 362.128906 400.582031 362.492188 400.328125 362.796875 C 399.863281 363.355469 399.71875 364.046875 399.414062 364.667969 C 398.847656 365.820312 398.605469 366.988281 398.816406 368.125 C 398.242188 369.039062 398.765625 369.492188 399.320312 369.863281 Z M 429.867188 369.417969 C 430.003906 369.570312 430.136719 369.554688 429.9375 369.769531 C 429.21875 370.566406 430.292969 370.855469 430.492188 370.894531 C 431.441406 371.070312 432.445312 371.257812 433.355469 370.644531 C 433.53125 370.527344 433.644531 370.359375 433.890625 370.292969 C 436.214844 369.675781 437.742188 368.246094 438.261719 365.847656 C 438.503906 365.039062 438.597656 364.238281 438.304688 363.445312 C 437.871094 362.273438 437.390625 361.121094 436.546875 360.167969 C 436.132812 359.699219 435.542969 359.1875 435.980469 358.539062 C 436.539062 357.71875 437.242188 356.984375 438.046875 356.371094 C 438.378906 356.117188 438.605469 356.136719 438.84375 356.496094 C 439.195312 357.027344 439.480469 357.667969 440.355469 357.492188 C 440.433594 357.476562 440.847656 357.777344 441.058594 357.59375 C 441.308594 357.378906 441.375 357.039062 441.183594 356.691406 C 440.917969 356.207031 440.726562 355.671875 440.414062 355.21875 C 439.21875 353.496094 437.269531 352.210938 435.160156 354.257812 C 434.953125 354.457031 434.753906 354.667969 434.53125 354.847656 C 433.265625 355.875 432.824219 357.328125 432.644531 358.832031 C 432.515625 359.875 433.285156 360.585938 433.988281 361.277344 C 434.894531 362.164062 435.410156 363.285156 435.105469 364.542969 C 434.804688 365.769531 433.542969 366.261719 432.59375 366.625 C 431.8125 366.925781 430.980469 367.1875 430.195312 367.542969 C 429.160156 368.003906 429.175781 368.679688 429.867188 369.417969 Z M 403.515625 417.203125 C 403.664062 417.222656 403.808594 417.265625 403.953125 417.296875 C 406.859375 417.757812 409.800781 417.546875 412.726562 417.667969 C 415.289062 417.773438 417.851562 417.824219 420.40625 418.074219 C 421.96875 418.226562 423.523438 418.484375 425.082031 418.589844 C 427.25 418.734375 429.417969 418.917969 431.578125 419.125 C 433.078125 419.269531 434.582031 419.449219 436.078125 419.5625 C 438.351562 419.738281 440.648438 419.679688 442.925781 419.960938 C 443.324219 420.007812 443.679688 420.054688 443.800781 419.566406 C 443.929688 419.03125 443.847656 418.332031 443.421875 418.171875 C 442.625 417.875 441.699219 417.667969 440.871094 417.769531 C 438.433594 418.066406 436.046875 417.601562 433.636719 417.503906 C 431.96875 417.433594 430.328125 417.09375 428.652344 417.078125 C 427.058594 417.066406 425.460938 416.957031 423.882812 416.753906 C 421.539062 416.453125 419.179688 416.246094 416.832031 416.234375 C 412.464844 416.21875 408.105469 415.960938 403.742188 415.863281 C 403.238281 415.851562 402.609375 415.578125 402.460938 416.253906 C 402.300781 416.984375 402.941406 417.121094 403.515625 417.203125 Z M 425.109375 360.589844 C 425.835938 360.855469 426.523438 361.058594 427.144531 360.28125 C 428.445312 358.664062 429.4375 356.894531 430.140625 354.933594 C 430.488281 353.964844 430.214844 352.832031 429.3125 352.359375 C 428.511719 351.941406 427.421875 352.285156 426.800781 353.355469 C 425.792969 355.105469 424.363281 356.683594 424.316406 358.898438 C 424.113281 359.664062 424.289062 360.285156 425.109375 360.589844 Z M 425.109375 360.589844 " fill-opacity="1" fill-rule="nonzero"/><path fill="#010101" d="M 379.015625 391.125 C 377.75 393.664062 376.132812 395.992188 374.753906 398.464844 C 374 399.816406 372.96875 401.089844 372.035156 402.375 C 370.910156 403.921875 370.050781 405.6875 369.015625 407.300781 C 367.988281 408.910156 366.875 410.507812 365.933594 412.144531 C 365.039062 413.699219 363.824219 415.085938 363.222656 416.8125 C 362.871094 417.816406 362.167969 418.613281 361.515625 419.414062 C 360.765625 420.347656 359.382812 420.386719 358.136719 419.730469 C 357.144531 419.203125 357 417.882812 357.113281 416.832031 C 357.300781 415.078125 358.375 413.699219 359.164062 412.214844 C 359.46875 411.644531 359.898438 411.082031 360.140625 410.496094 C 361.710938 406.703125 364.277344 403.53125 366.5625 400.207031 C 367.902344 398.257812 369.277344 396.292969 370.617188 394.347656 C 371.632812 392.875 372.777344 391.441406 373.621094 389.835938 C 373.664062 389.761719 373.621094 389.640625 373.613281 389.347656 C 372.832031 390.457031 371.8125 391.113281 370.960938 391.90625 C 369.722656 393.054688 368.679688 394.425781 367.289062 395.386719 C 365.5 396.621094 363.914062 398.3125 361.445312 398.152344 C 359.3125 398.015625 356.769531 395.886719 357.296875 393.21875 C 357.886719 390.269531 358.808594 387.417969 359.683594 384.5625 C 360.449219 382.0625 361.535156 379.65625 362.820312 377.390625 C 363.191406 376.742188 363.21875 376.023438 363.621094 375.457031 C 364.183594 374.667969 364.914062 374.007812 365.570312 373.304688 C 366.152344 372.679688 366.609375 371.882812 367.566406 371.558594 C 367.925781 371.441406 368.089844 371.414062 368.339844 371.582031 C 369.058594 372.066406 369.324219 372.828125 369.460938 373.625 C 369.570312 374.253906 369.164062 374.640625 368.621094 374.796875 C 367.9375 374.996094 367.515625 375.4375 367.132812 376 C 365.300781 378.699219 364.183594 381.710938 363.183594 384.789062 C 362.496094 386.894531 361.890625 389.019531 361.355469 391.167969 C 361.222656 391.703125 361.398438 392.242188 361.132812 392.773438 C 360.980469 393.074219 361.269531 393.1875 361.644531 393.113281 C 362.582031 392.929688 363.21875 392.300781 363.84375 391.679688 C 365.648438 389.894531 367.753906 388.476562 369.683594 386.851562 C 369.964844 386.617188 370.308594 386.410156 370.363281 386.097656 C 370.449219 385.59375 370.78125 385.269531 371.125 385.113281 C 373.042969 384.261719 374.042969 382.402344 375.5625 381.121094 C 377.132812 379.800781 378.738281 378.492188 380.101562 376.972656 C 381.683594 375.210938 383.179688 373.394531 385.15625 372.054688 C 385.390625 371.894531 385.484375 371.652344 385.886719 371.859375 C 387.972656 372.917969 388.453125 375.355469 387.058594 377.25 C 386.328125 378.25 385.640625 379.3125 385.085938 380.457031 C 384.476562 381.714844 383.609375 382.84375 382.914062 384.0625 C 381.921875 385.800781 380.980469 387.570312 380.015625 389.328125 C 379.6875 389.929688 379.320312 390.511719 379.015625 391.125 Z M 414.613281 382.101562 C 414.160156 382.140625 413.453125 382.230469 413.105469 382.925781 C 411.535156 386.078125 410.226562 389.339844 408.898438 392.601562 C 407.507812 396.011719 406.355469 399.488281 405.464844 403.050781 C 405.277344 403.796875 405.382812 404.777344 405.828125 405.417969 C 406.789062 406.800781 409.96875 407.332031 411.4375 406.445312 C 413.976562 404.910156 416.144531 402.894531 418.257812 400.839844 C 418.660156 400.445312 419.027344 400.03125 419.511719 399.695312 C 419.511719 400.261719 419.136719 400.71875 419.101562 401.175781 C 419.0625 401.675781 418.996094 402.191406 418.988281 402.699219 C 418.972656 403.851562 419.859375 405.058594 420.984375 405.351562 C 421.742188 405.546875 423.527344 404.75 423.777344 403.9375 C 424.195312 402.578125 425.109375 401.472656 425.777344 400.289062 C 427.144531 397.863281 428.898438 395.691406 430.042969 393.0625 C 430.6875 391.578125 431.625 390.105469 432.476562 388.65625 C 433.710938 386.554688 433.007812 384.03125 430.878906 382.914062 C 430.515625 382.722656 430.191406 382.589844 429.664062 382.976562 C 428.851562 383.570312 428.304688 384.375 427.566406 385 C 426.523438 385.878906 425.351562 386.621094 424.394531 387.582031 C 421.804688 390.179688 419.507812 393.078125 416.472656 395.222656 C 414.539062 396.585938 413.019531 398.460938 410.859375 399.972656 C 411.109375 398.324219 411.546875 396.992188 411.9375 395.648438 C 412.363281 394.179688 412.851562 392.730469 413.3125 391.28125 C 413.804688 389.730469 413.71875 388.089844 414.335938 386.570312 C 414.496094 386.175781 414.914062 386.457031 414.945312 386.042969 C 415.023438 384.925781 415.054688 384.933594 415.765625 384.445312 C 415.828125 384.402344 415.808594 384.246094 415.835938 384.144531 C 416 383.5 415.261719 382.046875 414.613281 382.101562 Z M 384.308594 398.085938 C 385.285156 394.617188 387.371094 390.597656 389.941406 386.792969 C 391.167969 384.980469 392.527344 383.269531 393.820312 381.511719 C 395.238281 379.585938 397.132812 378.09375 399.367188 377.355469 C 401.476562 376.664062 403.484375 377.253906 405.117188 378.933594 C 406.644531 380.507812 407.203125 382.4375 407.011719 384.492188 C 406.890625 385.773438 406.316406 387.042969 405.902344 388.308594 C 405.308594 390.121094 404.160156 391.632812 403.441406 393.382812 C 402.957031 394.566406 401.894531 395.523438 401.054688 396.550781 C 399.953125 397.898438 398.910156 399.320312 397.667969 400.527344 C 395.828125 402.316406 393.933594 404.148438 391.332031 404.773438 C 389.792969 405.140625 388.167969 405.4375 386.757812 404.257812 C 386.472656 404.015625 386.085938 404.074219 385.757812 403.84375 C 383.566406 402.289062 383.386719 401.839844 384.308594 398.085938 Z M 389.402344 399.117188 C 390.820312 398.164062 392.246094 397.4375 393.496094 396.40625 C 394.757812 395.367188 396.148438 394.398438 397.070312 393.089844 C 398.375 391.230469 399.863281 389.492188 400.847656 387.386719 C 401.539062 385.910156 402.390625 384.511719 402.671875 382.882812 C 402.96875 381.15625 402.550781 380.871094 400.867188 381.414062 C 400.339844 381.585938 400.019531 382.183594 399.488281 382.125 C 398.402344 382 397.71875 382.765625 397.1875 383.367188 C 395.679688 385.078125 394.472656 387.035156 393.296875 389 C 392.394531 390.503906 391.773438 392.121094 391.175781 393.753906 C 390.539062 395.488281 389.488281 397.085938 389.402344 399.117188 Z M 444.945312 442.058594 C 445.128906 443.339844 444.144531 443.214844 443.589844 443.191406 C 442.472656 443.148438 441.542969 443.652344 440.59375 444.015625 C 437.808594 445.082031 435.378906 446.871094 432.726562 448.191406 C 429.898438 449.59375 428.617188 452.054688 427.316406 454.671875 C 425.996094 457.328125 424.460938 459.875 422.726562 462.296875 C 421.621094 463.839844 420.65625 465.496094 419.015625 466.574219 C 417.5 467.570312 415.25 467.15625 414.789062 465.714844 C 414.464844 464.695312 414.390625 463.546875 414.757812 462.570312 C 415.148438 461.546875 415.429688 460.484375 415.765625 459.457031 C 416.570312 456.960938 418.398438 455.367188 420.210938 453.71875 C 421.132812 452.878906 421.960938 451.890625 423 451.242188 C 424.4375 450.34375 425.585938 449.097656 427 448.199219 C 428.058594 447.523438 428.105469 446.25 428.761719 445.335938 C 429.691406 444.042969 430.074219 442.460938 430.808594 441.058594 C 430.941406 440.804688 431.09375 440.449219 430.847656 440 C 429.773438 441.066406 428.742188 442.125 427.542969 442.992188 C 425.765625 444.273438 423.921875 444.78125 421.90625 443.613281 C 421.570312 443.421875 421.355469 443.113281 421.191406 442.640625 C 420.554688 440.769531 421.433594 439.097656 421.71875 437.363281 C 421.941406 436.023438 422.375 434.714844 422.511719 433.347656 C 422.574219 432.710938 423.03125 432.074219 423.5 431.921875 C 424.058594 431.738281 424.679688 432.066406 425.191406 432.644531 C 425.972656 433.519531 426.074219 434.351562 425.8125 435.4375 C 425.5625 436.480469 425.46875 437.574219 425.457031 438.648438 C 425.449219 439.101562 424.949219 439.273438 425.144531 439.917969 C 426.820312 438.464844 428.695312 437.445312 430.285156 435.976562 C 431.394531 434.949219 432.402344 433.832031 433.515625 432.816406 C 434.527344 431.898438 435.597656 432.082031 436.101562 433.363281 C 436.578125 434.566406 436.0625 435.6875 435.609375 436.761719 C 434.644531 439.058594 433.796875 441.40625 432.78125 443.769531 C 434.265625 442.976562 435.765625 442.214844 437.226562 441.378906 C 438.746094 440.503906 440.363281 439.894531 442.058594 439.53125 C 443.125 439.300781 444.792969 440.96875 444.945312 442.058594 Z M 423.996094 454.355469 C 418.515625 458.519531 417.210938 460.4375 417.191406 464.300781 C 418.914062 463.027344 419.855469 461.164062 420.980469 459.421875 C 422.023438 457.800781 423.140625 456.226562 423.996094 454.355469 Z M 431.191406 407.3125 C 431.066406 406.707031 430.921875 405.929688 431.230469 405.234375 C 431.679688 404.226562 432.242188 403.292969 432.832031 402.359375 C 434.109375 400.347656 435.085938 398.171875 436.121094 396.027344 C 437.164062 393.878906 438.160156 391.707031 439.183594 389.550781 C 439.636719 388.597656 439.878906 387.550781 440.660156 386.746094 C 441.472656 385.914062 441.734375 385.921875 442.207031 387.046875 C 443.785156 385.839844 445.320312 384.691406 447.121094 383.980469 C 447.792969 383.714844 448.507812 383.964844 449.082031 384.179688 C 451.613281 385.117188 453.070312 386.984375 453.339844 389.71875 C 453.59375 392.300781 452.523438 394.210938 450.527344 395.832031 C 448.605469 397.390625 446.394531 398.175781 444.113281 398.882812 C 443.558594 399.054688 443.714844 399.472656 443.867188 399.730469 C 444.726562 401.203125 445.121094 402.875 445.90625 404.398438 C 446.65625 405.859375 447.683594 407.109375 448.410156 408.550781 C 448.714844 409.148438 448.859375 409.910156 448.441406 410.40625 C 447.890625 411.058594 446.933594 411.121094 446.1875 410.925781 C 445.140625 410.648438 444.003906 410.285156 443.828125 408.878906 C 443.808594 408.710938 443.609375 408.097656 443.3125 408.835938 C 443.207031 409.101562 442.941406 408.769531 442.808594 408.640625 C 441.902344 407.753906 441.164062 406.769531 440.617188 405.59375 C 440.097656 404.484375 439.804688 403.300781 439.289062 402.199219 C 439.199219 402.007812 439.167969 401.757812 438.835938 401.671875 C 438.363281 402.691406 437.867188 403.710938 437.363281 404.722656 C 436.730469 405.996094 435.890625 407.203125 434.953125 408.273438 C 434.214844 409.117188 431.417969 408.410156 431.191406 407.3125 Z M 442.578125 393.316406 C 443.929688 392.925781 445.226562 392.796875 446.285156 392.121094 C 447.402344 391.410156 448.589844 390.640625 448.753906 389.121094 C 448.851562 388.234375 448.421875 387.90625 447.574219 388.164062 C 446.550781 388.476562 445.664062 389.082031 444.71875 389.5625 C 443.210938 390.324219 442.976562 391.796875 442.578125 393.316406 Z M 403.164062 424.554688 C 401.320312 427.644531 400.671875 431.171875 399.375 434.457031 C 398.023438 437.863281 396.84375 441.34375 395.128906 444.601562 C 394.6875 445.4375 394.5625 446.398438 394.058594 447.214844 C 393.925781 447.429688 393.84375 447.652344 393.628906 447.820312 C 393.199219 448.152344 392.453125 447.761719 392.199219 448.460938 C 391.761719 447.914062 390.992188 448.117188 390.527344 447.753906 C 390.136719 447.445312 389.597656 447.066406 390.023438 446.308594 C 390.238281 445.925781 390.167969 445.367188 390.179688 444.886719 C 390.191406 444.292969 389.710938 444.527344 389.460938 444.558594 C 387.9375 444.746094 386.496094 444.503906 385.078125 443.9375 C 384.03125 443.523438 383.570312 442.34375 383.355469 441.210938 C 382.863281 438.609375 384.34375 436.648438 385.414062 434.6875 C 386.457031 432.785156 387.738281 430.882812 389.601562 429.542969 C 391.046875 428.5 392.605469 428.765625 393.84375 430.082031 C 394.820312 431.121094 395.132812 432.453125 395.777344 433.664062 C 396.535156 432.164062 397.539062 430.792969 397.84375 429.191406 C 398.25 427.054688 399.226562 425.152344 399.914062 423.136719 C 400.164062 422.414062 400.964844 422.050781 401.230469 421.253906 C 401.34375 420.917969 401.976562 421.183594 402.292969 421.414062 C 403.386719 422.21875 403.835938 423.433594 403.164062 424.554688 Z M 392.742188 432.003906 C 392.441406 430.96875 392 430.925781 391.195312 431.738281 C 389.195312 433.746094 387.917969 436.148438 387.292969 439.097656 C 387.117188 439.402344 387.132812 439.929688 387.03125 440.429688 C 386.960938 440.792969 387.015625 440.984375 387.425781 441.019531 C 389.03125 441.15625 390.507812 440.429688 392.074219 440.3125 C 392.140625 440.308594 392.238281 440.125 392.304688 440.039062 C 392.804688 439.410156 393.019531 438.664062 393.308594 437.933594 C 394.136719 435.84375 393.300781 433.929688 392.742188 432.003906 Z M 419.898438 440.976562 C 418.464844 442.347656 417.125 443.804688 415.042969 444.355469 C 413.886719 444.664062 413.003906 444.183594 412.023438 443.984375 C 410.523438 443.679688 410.011719 442.441406 409.707031 441.054688 C 408.582031 441.988281 408.054688 443.382812 406.773438 444.210938 C 404.699219 445.554688 402.867188 444.84375 401.609375 443.496094 C 401.023438 442.863281 401.054688 441.507812 401.425781 440.53125 C 401.878906 439.347656 401.765625 438.058594 402.238281 436.898438 C 402.910156 435.25 403.058594 433.355469 404.441406 432.039062 C 404.882812 431.621094 405.007812 431.023438 405.515625 430.597656 C 406.886719 429.464844 408.128906 429.546875 409.476562 430.65625 C 410.816406 431.757812 411.417969 433.339844 412.433594 434.640625 C 413.078125 435.460938 412.714844 436.75 412.691406 437.820312 C 412.667969 438.933594 413.046875 439.960938 413.183594 441.035156 C 413.257812 441.605469 413.722656 441.335938 413.925781 441.171875 C 415.289062 440.070312 416.882812 439.449219 418.476562 438.796875 C 419.269531 438.472656 419.4375 439.132812 419.738281 439.492188 C 420.078125 439.902344 420.402344 440.496094 419.898438 440.976562 Z M 408.410156 433.878906 C 408.261719 433.761719 407.972656 433.640625 407.855469 433.941406 C 407.285156 435.402344 406.734375 436.871094 406.175781 438.335938 C 406.253906 438.359375 406.339844 438.382812 406.417969 438.40625 C 407.207031 437.335938 408.046875 436.296875 408.746094 435.171875 C 408.949219 434.839844 408.835938 434.214844 408.410156 433.878906 Z M 452.441406 416.035156 C 452.398438 415.503906 452.175781 415.285156 451.242188 415.097656 C 448.015625 414.453125 444.835938 413.585938 441.550781 413.21875 C 439.222656 412.960938 436.917969 412.472656 434.585938 412.214844 C 430.792969 411.792969 426.976562 411.558594 423.191406 411.089844 C 420.699219 410.78125 418.191406 410.683594 415.695312 410.464844 C 412.027344 410.144531 408.335938 410.066406 404.652344 409.878906 C 400.113281 409.648438 395.578125 409.285156 391.027344 409.234375 C 388.28125 409.207031 385.539062 409.035156 382.792969 409.027344 C 380.667969 409.023438 378.539062 409.164062 376.40625 408.894531 C 375.414062 408.773438 374.328125 408.855469 373.3125 409.257812 C 372.855469 409.441406 372.546875 409.640625 372.617188 410.070312 C 372.695312 410.554688 373.273438 410.585938 373.605469 410.597656 C 374.0625 410.613281 374.535156 410.59375 374.996094 410.574219 C 380.804688 410.3125 386.59375 410.675781 392.386719 410.921875 C 396.300781 411.085938 400.210938 411.363281 404.121094 411.597656 C 408.566406 411.863281 413.011719 412.09375 417.453125 412.417969 C 421.121094 412.683594 424.789062 413.03125 428.453125 413.40625 C 431.609375 413.730469 434.761719 414.089844 437.90625 414.53125 C 440.589844 414.90625 443.246094 415.527344 445.9375 415.820312 C 447.324219 415.972656 448.394531 416.816406 449.867188 417.105469 C 450.296875 417.296875 450.917969 417.15625 451.53125 417.171875 C 452.378906 417.195312 452.496094 416.710938 452.441406 416.035156 Z M 412.507812 353.941406 C 413.378906 354.210938 414.191406 355.007812 415.230469 354.5 C 415.402344 354.417969 415.601562 354.375 415.734375 354.550781 C 415.875 354.734375 415.710938 354.890625 415.617188 355.039062 C 414.757812 356.421875 414.296875 357.988281 413.476562 359.410156 C 412.601562 360.921875 412.851562 362.917969 411.738281 364.441406 C 411.488281 364.777344 411.703125 365.429688 411.488281 365.816406 C 410.90625 366.875 411.101562 367.839844 411.582031 368.832031 C 411.933594 369.5625 412.71875 369.898438 413.289062 369.839844 C 413.992188 369.765625 415.015625 369.835938 415.28125 368.703125 C 415.761719 366.621094 416.316406 364.5625 416.824219 362.488281 C 417.453125 359.917969 417.960938 357.320312 418.703125 354.773438 C 419.03125 353.65625 419.417969 352.925781 420.738281 352.855469 C 421.902344 352.789062 422.363281 351.894531 421.789062 351.101562 C 421.136719 350.195312 420.242188 349.613281 419.152344 349.414062 C 418.183594 349.1875 417.226562 349.167969 416.269531 349.558594 C 415.1875 350.003906 414.21875 350.660156 413.089844 351.035156 C 412.195312 351.332031 411.785156 353.71875 412.507812 353.941406 Z M 399.320312 369.863281 C 399.734375 370.140625 400.226562 370.304688 400.6875 370.507812 C 401.875 371.03125 403.042969 370.519531 403.503906 369.28125 C 403.972656 368.019531 404.167969 366.667969 404.621094 365.417969 C 405.378906 363.320312 405.941406 361.160156 406.808594 359.09375 C 407.4375 357.585938 407.765625 355.949219 408.589844 354.519531 C 408.925781 353.9375 408.835938 353.375 408.507812 353.03125 C 408.113281 352.621094 407.738281 352.175781 407.324219 351.78125 C 406.480469 350.972656 405.640625 351.058594 405.097656 352.101562 C 404.421875 353.398438 403.785156 354.703125 403.308594 356.117188 C 402.65625 358.035156 401.378906 359.71875 400.933594 361.753906 C 400.851562 362.128906 400.582031 362.492188 400.328125 362.796875 C 399.863281 363.355469 399.71875 364.046875 399.414062 364.667969 C 398.847656 365.820312 398.605469 366.988281 398.816406 368.125 C 398.242188 369.039062 398.765625 369.492188 399.320312 369.863281 Z M 429.867188 369.417969 C 430.003906 369.570312 430.136719 369.554688 429.9375 369.769531 C 429.21875 370.566406 430.292969 370.855469 430.492188 370.894531 C 431.441406 371.070312 432.445312 371.257812 433.355469 370.644531 C 433.53125 370.527344 433.644531 370.359375 433.890625 370.292969 C 436.214844 369.675781 437.742188 368.246094 438.261719 365.847656 C 438.503906 365.039062 438.597656 364.238281 438.304688 363.445312 C 437.871094 362.273438 437.390625 361.121094 436.546875 360.167969 C 436.132812 359.699219 435.542969 359.1875 435.980469 358.539062 C 436.539062 357.71875 437.242188 356.984375 438.046875 356.371094 C 438.378906 356.117188 438.605469 356.136719 438.84375 356.496094 C 439.195312 357.027344 439.480469 357.667969 440.355469 357.492188 C 440.433594 357.476562 440.847656 357.777344 441.058594 357.59375 C 441.308594 357.378906 441.375 357.039062 441.183594 356.691406 C 440.917969 356.207031 440.726562 355.671875 440.414062 355.21875 C 439.21875 353.496094 437.269531 352.210938 435.160156 354.257812 C 434.953125 354.457031 434.753906 354.667969 434.53125 354.847656 C 433.265625 355.875 432.824219 357.328125 432.644531 358.832031 C 432.515625 359.875 433.285156 360.585938 433.988281 361.277344 C 434.894531 362.164062 435.410156 363.285156 435.105469 364.542969 C 434.804688 365.769531 433.542969 366.261719 432.59375 366.625 C 431.8125 366.925781 430.980469 367.1875 430.195312 367.542969 C 429.160156 368.003906 429.175781 368.679688 429.867188 369.417969 Z M 403.515625 417.203125 C 403.664062 417.222656 403.808594 417.265625 403.953125 417.296875 C 406.859375 417.757812 409.800781 417.546875 412.726562 417.667969 C 415.289062 417.773438 417.851562 417.824219 420.40625 418.074219 C 421.96875 418.226562 423.523438 418.484375 425.082031 418.589844 C 427.25 418.734375 429.417969 418.917969 431.578125 419.125 C 433.078125 419.269531 434.582031 419.449219 436.078125 419.5625 C 438.351562 419.738281 440.648438 419.679688 442.925781 419.960938 C 443.324219 420.007812 443.679688 420.054688 443.800781 419.566406 C 443.929688 419.03125 443.847656 418.332031 443.421875 418.171875 C 442.625 417.875 441.699219 417.667969 440.871094 417.769531 C 438.433594 418.066406 436.046875 417.601562 433.636719 417.503906 C 431.96875 417.433594 430.328125 417.09375 428.652344 417.078125 C 427.058594 417.066406 425.460938 416.957031 423.882812 416.753906 C 421.539062 416.453125 419.179688 416.246094 416.832031 416.234375 C 412.464844 416.21875 408.105469 415.960938 403.742188 415.863281 C 403.238281 415.851562 402.609375 415.578125 402.460938 416.253906 C 402.300781 416.984375 402.941406 417.121094 403.515625 417.203125 Z M 425.109375 360.589844 C 425.835938 360.855469 426.523438 361.058594 427.144531 360.28125 C 428.445312 358.664062 429.4375 356.894531 430.140625 354.933594 C 430.488281 353.964844 430.214844 352.832031 429.3125 352.359375 C 428.511719 351.941406 427.421875 352.285156 426.800781 353.355469 C 425.792969 355.105469 424.363281 356.683594 424.316406 358.898438 C 424.113281 359.664062 424.289062 360.285156 425.109375 360.589844 Z M 425.109375 360.589844 " fill-opacity="1" fill-rule="nonzero"/></g></g></g></g></svg>