<svg xmlns="http://www.w3.org/2000/svg" xmlns:xlink="http://www.w3.org/1999/xlink" width="1080" zoomAndPan="magnify" viewBox="0 0 810 809.999993" height="1080" preserveAspectRatio="xMidYMid meet" version="1.0"><defs><clipPath id="f67041563d"><path d="M 210 135 L 597 135 L 597 620 L 210 620 Z M 210 135 " clip-rule="nonzero"/></clipPath><clipPath id="faf548fda0"><path d="M 356.742188 135.089844 L 596.574219 223.90625 L 449.9375 619.875 L 210.105469 531.0625 Z M 356.742188 135.089844 " clip-rule="nonzero"/></clipPath><clipPath id="c8b84240b4"><path d="M 69 271 L 83 271 L 83 315 L 69 315 Z M 69 271 " clip-rule="nonzero"/></clipPath><clipPath id="8a0d78dcc6"><path d="M 146.742188 0.0898438 L 386.574219 88.90625 L 239.9375 484.875 L 0.105469 396.0625 Z M 146.742188 0.0898438 " clip-rule="nonzero"/></clipPath><clipPath id="c9cc7f9a61"><path d="M 386.246094 88.785156 L 146.410156 -0.03125 L -0.226562 395.9375 L 239.609375 484.753906 Z M 386.246094 88.785156 " clip-rule="nonzero"/></clipPath><clipPath id="7bdf5ff7fd"><path d="M 386.246094 88.785156 L 146.410156 -0.03125 L -0.226562 395.9375 L 239.609375 484.753906 Z M 386.246094 88.785156 " clip-rule="nonzero"/></clipPath><clipPath id="e0b5aae089"><path d="M 107 352 L 154 352 L 154 370 L 107 370 Z M 107 352 " clip-rule="nonzero"/></clipPath><clipPath id="441dcd6b34"><path d="M 146.742188 0.0898438 L 386.574219 88.90625 L 239.9375 484.875 L 0.105469 396.0625 Z M 146.742188 0.0898438 " clip-rule="nonzero"/></clipPath><clipPath id="5ed7746f68"><path d="M 386.246094 88.785156 L 146.410156 -0.03125 L -0.226562 395.9375 L 239.609375 484.753906 Z M 386.246094 88.785156 " clip-rule="nonzero"/></clipPath><clipPath id="7621271c2d"><path d="M 386.246094 88.785156 L 146.410156 -0.03125 L -0.226562 395.9375 L 239.609375 484.753906 Z M 386.246094 88.785156 " clip-rule="nonzero"/></clipPath><clipPath id="fcae89186b"><path d="M 91 300 L 130 300 L 130 335 L 91 335 Z M 91 300 " clip-rule="nonzero"/></clipPath><clipPath id="af819811f0"><path d="M 146.742188 0.0898438 L 386.574219 88.90625 L 239.9375 484.875 L 0.105469 396.0625 Z M 146.742188 0.0898438 " clip-rule="nonzero"/></clipPath><clipPath id="f2d254c241"><path d="M 386.246094 88.785156 L 146.410156 -0.03125 L -0.226562 395.9375 L 239.609375 484.753906 Z M 386.246094 88.785156 " clip-rule="nonzero"/></clipPath><clipPath id="1ebab14bb1"><path d="M 386.246094 88.785156 L 146.410156 -0.03125 L -0.226562 395.9375 L 239.609375 484.753906 Z M 386.246094 88.785156 " clip-rule="nonzero"/></clipPath><clipPath id="5a4a9fb463"><path d="M 153 270 L 175 270 L 175 281 L 153 281 Z M 153 270 " clip-rule="nonzero"/></clipPath><clipPath id="416735c0e5"><path d="M 146.742188 0.0898438 L 386.574219 88.90625 L 239.9375 484.875 L 0.105469 396.0625 Z M 146.742188 0.0898438 " clip-rule="nonzero"/></clipPath><clipPath id="58e832ca42"><path d="M 386.246094 88.785156 L 146.410156 -0.03125 L -0.226562 395.9375 L 239.609375 484.753906 Z M 386.246094 88.785156 " clip-rule="nonzero"/></clipPath><clipPath id="36c021e537"><path d="M 386.246094 88.785156 L 146.410156 -0.03125 L -0.226562 395.9375 L 239.609375 484.753906 Z M 386.246094 88.785156 " clip-rule="nonzero"/></clipPath><clipPath id="870df9d6e9"><path d="M 168 343 L 201 343 L 201 358 L 168 358 Z M 168 343 " clip-rule="nonzero"/></clipPath><clipPath id="3ece8c922b"><path d="M 146.742188 0.0898438 L 386.574219 88.90625 L 239.9375 484.875 L 0.105469 396.0625 Z M 146.742188 0.0898438 " clip-rule="nonzero"/></clipPath><clipPath id="399a27ed83"><path d="M 386.246094 88.785156 L 146.410156 -0.03125 L -0.226562 395.9375 L 239.609375 484.753906 Z M 386.246094 88.785156 " clip-rule="nonzero"/></clipPath><clipPath id="ba4b485a23"><path d="M 386.246094 88.785156 L 146.410156 -0.03125 L -0.226562 395.9375 L 239.609375 484.753906 Z M 386.246094 88.785156 " clip-rule="nonzero"/></clipPath><clipPath id="5fd0f9344e"><path d="M 177 188 L 199 188 L 199 204 L 177 204 Z M 177 188 " clip-rule="nonzero"/></clipPath><clipPath id="6c3815d82f"><path d="M 146.742188 0.0898438 L 386.574219 88.90625 L 239.9375 484.875 L 0.105469 396.0625 Z M 146.742188 0.0898438 " clip-rule="nonzero"/></clipPath><clipPath id="8464bb8748"><path d="M 386.246094 88.785156 L 146.410156 -0.03125 L -0.226562 395.9375 L 239.609375 484.753906 Z M 386.246094 88.785156 " clip-rule="nonzero"/></clipPath><clipPath id="0f229170d6"><path d="M 386.246094 88.785156 L 146.410156 -0.03125 L -0.226562 395.9375 L 239.609375 484.753906 Z M 386.246094 88.785156 " clip-rule="nonzero"/></clipPath><clipPath id="08a73495ec"><path d="M 93 162 L 107 162 L 107 188 L 93 188 Z M 93 162 " clip-rule="nonzero"/></clipPath><clipPath id="2287676c23"><path d="M 146.742188 0.0898438 L 386.574219 88.90625 L 239.9375 484.875 L 0.105469 396.0625 Z M 146.742188 0.0898438 " clip-rule="nonzero"/></clipPath><clipPath id="f38ada3dd4"><path d="M 386.246094 88.785156 L 146.410156 -0.03125 L -0.226562 395.9375 L 239.609375 484.753906 Z M 386.246094 88.785156 " clip-rule="nonzero"/></clipPath><clipPath id="3a9f21f655"><path d="M 386.246094 88.785156 L 146.410156 -0.03125 L -0.226562 395.9375 L 239.609375 484.753906 Z M 386.246094 88.785156 " clip-rule="nonzero"/></clipPath><clipPath id="e4489286d7"><path d="M 242 38 L 261 38 L 261 58 L 242 58 Z M 242 38 " clip-rule="nonzero"/></clipPath><clipPath id="65b9871e23"><path d="M 146.742188 0.0898438 L 386.574219 88.90625 L 239.9375 484.875 L 0.105469 396.0625 Z M 146.742188 0.0898438 " clip-rule="nonzero"/></clipPath><clipPath id="2d29837ba3"><path d="M 386.246094 88.785156 L 146.410156 -0.03125 L -0.226562 395.9375 L 239.609375 484.753906 Z M 386.246094 88.785156 " clip-rule="nonzero"/></clipPath><clipPath id="163fccb18e"><path d="M 386.246094 88.785156 L 146.410156 -0.03125 L -0.226562 395.9375 L 239.609375 484.753906 Z M 386.246094 88.785156 " clip-rule="nonzero"/></clipPath><clipPath id="4cc3d7da6c"><path d="M 80 240 L 96 240 L 96 264 L 80 264 Z M 80 240 " clip-rule="nonzero"/></clipPath><clipPath id="172e3ee93e"><path d="M 146.742188 0.0898438 L 386.574219 88.90625 L 239.9375 484.875 L 0.105469 396.0625 Z M 146.742188 0.0898438 " clip-rule="nonzero"/></clipPath><clipPath id="ab93e38a68"><path d="M 386.246094 88.785156 L 146.410156 -0.03125 L -0.226562 395.9375 L 239.609375 484.753906 Z M 386.246094 88.785156 " clip-rule="nonzero"/></clipPath><clipPath id="1d3786ab27"><path d="M 386.246094 88.785156 L 146.410156 -0.03125 L -0.226562 395.9375 L 239.609375 484.753906 Z M 386.246094 88.785156 " clip-rule="nonzero"/></clipPath><clipPath id="95f9accbff"><path d="M 230 279 L 251 279 L 251 300 L 230 300 Z M 230 279 " clip-rule="nonzero"/></clipPath><clipPath id="25a0178468"><path d="M 146.742188 0.0898438 L 386.574219 88.90625 L 239.9375 484.875 L 0.105469 396.0625 Z M 146.742188 0.0898438 " clip-rule="nonzero"/></clipPath><clipPath id="363b1975c8"><path d="M 386.246094 88.785156 L 146.410156 -0.03125 L -0.226562 395.9375 L 239.609375 484.753906 Z M 386.246094 88.785156 " clip-rule="nonzero"/></clipPath><clipPath id="1356d9c5ea"><path d="M 386.246094 88.785156 L 146.410156 -0.03125 L -0.226562 395.9375 L 239.609375 484.753906 Z M 386.246094 88.785156 " clip-rule="nonzero"/></clipPath><clipPath id="719dc7e9ce"><path d="M 255 94 L 280 94 L 280 116 L 255 116 Z M 255 94 " clip-rule="nonzero"/></clipPath><clipPath id="10c4ce5b11"><path d="M 146.742188 0.0898438 L 386.574219 88.90625 L 239.9375 484.875 L 0.105469 396.0625 Z M 146.742188 0.0898438 " clip-rule="nonzero"/></clipPath><clipPath id="fcef7dcd23"><path d="M 386.246094 88.785156 L 146.410156 -0.03125 L -0.226562 395.9375 L 239.609375 484.753906 Z M 386.246094 88.785156 " clip-rule="nonzero"/></clipPath><clipPath id="1c025080d9"><path d="M 386.246094 88.785156 L 146.410156 -0.03125 L -0.226562 395.9375 L 239.609375 484.753906 Z M 386.246094 88.785156 " clip-rule="nonzero"/></clipPath><clipPath id="a9b815362b"><path d="M 268 154 L 289 154 L 289 187 L 268 187 Z M 268 154 " clip-rule="nonzero"/></clipPath><clipPath id="801593025c"><path d="M 146.742188 0.0898438 L 386.574219 88.90625 L 239.9375 484.875 L 0.105469 396.0625 Z M 146.742188 0.0898438 " clip-rule="nonzero"/></clipPath><clipPath id="1bb5f0f848"><path d="M 386.246094 88.785156 L 146.410156 -0.03125 L -0.226562 395.9375 L 239.609375 484.753906 Z M 386.246094 88.785156 " clip-rule="nonzero"/></clipPath><clipPath id="74fe142479"><path d="M 386.246094 88.785156 L 146.410156 -0.03125 L -0.226562 395.9375 L 239.609375 484.753906 Z M 386.246094 88.785156 " clip-rule="nonzero"/></clipPath><clipPath id="126203014b"><path d="M 121 193 L 161 193 L 161 281 L 121 281 Z M 121 193 " clip-rule="nonzero"/></clipPath><clipPath id="6026846251"><path d="M 146.742188 0.0898438 L 386.574219 88.90625 L 239.9375 484.875 L 0.105469 396.0625 Z M 146.742188 0.0898438 " clip-rule="nonzero"/></clipPath><clipPath id="7935437542"><path d="M 386.246094 88.785156 L 146.410156 -0.03125 L -0.226562 395.9375 L 239.609375 484.753906 Z M 386.246094 88.785156 " clip-rule="nonzero"/></clipPath><clipPath id="420594d532"><path d="M 386.246094 88.785156 L 146.410156 -0.03125 L -0.226562 395.9375 L 239.609375 484.753906 Z M 386.246094 88.785156 " clip-rule="nonzero"/></clipPath><clipPath id="b330af7a58"><path d="M 195 204 L 308 204 L 308 255 L 195 255 Z M 195 204 " clip-rule="nonzero"/></clipPath><clipPath id="12ad83c4b6"><path d="M 146.742188 0.0898438 L 386.574219 88.90625 L 239.9375 484.875 L 0.105469 396.0625 Z M 146.742188 0.0898438 " clip-rule="nonzero"/></clipPath><clipPath id="7c801e0f67"><path d="M 386.246094 88.785156 L 146.410156 -0.03125 L -0.226562 395.9375 L 239.609375 484.753906 Z M 386.246094 88.785156 " clip-rule="nonzero"/></clipPath><clipPath id="21062fca40"><path d="M 386.246094 88.785156 L 146.410156 -0.03125 L -0.226562 395.9375 L 239.609375 484.753906 Z M 386.246094 88.785156 " clip-rule="nonzero"/></clipPath><clipPath id="080e0d9af1"><path d="M 184 58 L 213 58 L 213 136 L 184 136 Z M 184 58 " clip-rule="nonzero"/></clipPath><clipPath id="ed737d10ef"><path d="M 146.742188 0.0898438 L 386.574219 88.90625 L 239.9375 484.875 L 0.105469 396.0625 Z M 146.742188 0.0898438 " clip-rule="nonzero"/></clipPath><clipPath id="6cd5abbb29"><path d="M 386.246094 88.785156 L 146.410156 -0.03125 L -0.226562 395.9375 L 239.609375 484.753906 Z M 386.246094 88.785156 " clip-rule="nonzero"/></clipPath><clipPath id="fca51986be"><path d="M 386.246094 88.785156 L 146.410156 -0.03125 L -0.226562 395.9375 L 239.609375 484.753906 Z M 386.246094 88.785156 " clip-rule="nonzero"/></clipPath><clipPath id="3f458b75e0"><path d="M 92 295 L 101 295 L 101 306 L 92 306 Z M 92 295 " clip-rule="nonzero"/></clipPath><clipPath id="b134d4725a"><path d="M 146.742188 0.0898438 L 386.574219 88.90625 L 239.9375 484.875 L 0.105469 396.0625 Z M 146.742188 0.0898438 " clip-rule="nonzero"/></clipPath><clipPath id="222fc90580"><path d="M 386.246094 88.785156 L 146.410156 -0.03125 L -0.226562 395.9375 L 239.609375 484.753906 Z M 386.246094 88.785156 " clip-rule="nonzero"/></clipPath><clipPath id="ab0464d305"><path d="M 386.246094 88.785156 L 146.410156 -0.03125 L -0.226562 395.9375 L 239.609375 484.753906 Z M 386.246094 88.785156 " clip-rule="nonzero"/></clipPath><clipPath id="b174309587"><path d="M 334 143 L 350 143 L 350 154 L 334 154 Z M 334 143 " clip-rule="nonzero"/></clipPath><clipPath id="03039898ec"><path d="M 146.742188 0.0898438 L 386.574219 88.90625 L 239.9375 484.875 L 0.105469 396.0625 Z M 146.742188 0.0898438 " clip-rule="nonzero"/></clipPath><clipPath id="b5877e55f6"><path d="M 386.246094 88.785156 L 146.410156 -0.03125 L -0.226562 395.9375 L 239.609375 484.753906 Z M 386.246094 88.785156 " clip-rule="nonzero"/></clipPath><clipPath id="985fc2d8ac"><path d="M 386.246094 88.785156 L 146.410156 -0.03125 L -0.226562 395.9375 L 239.609375 484.753906 Z M 386.246094 88.785156 " clip-rule="nonzero"/></clipPath><clipPath id="45dcca3e9c"><path d="M 225 151 L 233 151 L 233 171 L 225 171 Z M 225 151 " clip-rule="nonzero"/></clipPath><clipPath id="1d95f29ef6"><path d="M 146.742188 0.0898438 L 386.574219 88.90625 L 239.9375 484.875 L 0.105469 396.0625 Z M 146.742188 0.0898438 " clip-rule="nonzero"/></clipPath><clipPath id="d93d5ba37d"><path d="M 386.246094 88.785156 L 146.410156 -0.03125 L -0.226562 395.9375 L 239.609375 484.753906 Z M 386.246094 88.785156 " clip-rule="nonzero"/></clipPath><clipPath id="e3ea19c807"><path d="M 386.246094 88.785156 L 146.410156 -0.03125 L -0.226562 395.9375 L 239.609375 484.753906 Z M 386.246094 88.785156 " clip-rule="nonzero"/></clipPath><clipPath id="a20220b1cb"><path d="M 298 257 L 321 257 L 321 271 L 298 271 Z M 298 257 " clip-rule="nonzero"/></clipPath><clipPath id="b4a63ab191"><path d="M 146.742188 0.0898438 L 386.574219 88.90625 L 239.9375 484.875 L 0.105469 396.0625 Z M 146.742188 0.0898438 " clip-rule="nonzero"/></clipPath><clipPath id="f40243e3cf"><path d="M 386.246094 88.785156 L 146.410156 -0.03125 L -0.226562 395.9375 L 239.609375 484.753906 Z M 386.246094 88.785156 " clip-rule="nonzero"/></clipPath><clipPath id="564369892f"><path d="M 386.246094 88.785156 L 146.410156 -0.03125 L -0.226562 395.9375 L 239.609375 484.753906 Z M 386.246094 88.785156 " clip-rule="nonzero"/></clipPath><clipPath id="e7321b8a25"><path d="M 134 110 L 152 110 L 152 126 L 134 126 Z M 134 110 " clip-rule="nonzero"/></clipPath><clipPath id="e79e225909"><path d="M 146.742188 0.0898438 L 386.574219 88.90625 L 239.9375 484.875 L 0.105469 396.0625 Z M 146.742188 0.0898438 " clip-rule="nonzero"/></clipPath><clipPath id="b786257864"><path d="M 386.246094 88.785156 L 146.410156 -0.03125 L -0.226562 395.9375 L 239.609375 484.753906 Z M 386.246094 88.785156 " clip-rule="nonzero"/></clipPath><clipPath id="f25e88a39b"><path d="M 386.246094 88.785156 L 146.410156 -0.03125 L -0.226562 395.9375 L 239.609375 484.753906 Z M 386.246094 88.785156 " clip-rule="nonzero"/></clipPath><clipPath id="36c584e07a"><path d="M 0 319 L 99 319 L 99 404 L 0 404 Z M 0 319 " clip-rule="nonzero"/></clipPath><clipPath id="69be73deb0"><path d="M 146.742188 0.0898438 L 386.574219 88.90625 L 239.9375 484.875 L 0.105469 396.0625 Z M 146.742188 0.0898438 " clip-rule="nonzero"/></clipPath><clipPath id="65a53bf589"><path d="M 386.246094 88.785156 L 146.410156 -0.03125 L -0.226562 395.9375 L 239.609375 484.753906 Z M 386.246094 88.785156 " clip-rule="nonzero"/></clipPath><clipPath id="f6cd7ec5fa"><path d="M 386.246094 88.785156 L 146.410156 -0.03125 L -0.226562 395.9375 L 239.609375 484.753906 Z M 386.246094 88.785156 " clip-rule="nonzero"/></clipPath><clipPath id="e13b2f2b5a"><rect x="0" width="387" y="0" height="485"/></clipPath></defs><g clip-path="url(#f67041563d)"><g clip-path="url(#faf548fda0)"><g transform="matrix(1, 0, 0, 1, 210, 135)"><g clip-path="url(#e13b2f2b5a)"><g clip-path="url(#c8b84240b4)"><g clip-path="url(#8a0d78dcc6)"><g clip-path="url(#c9cc7f9a61)"><g clip-path="url(#7bdf5ff7fd)"><path fill="#000000" d="M 69.582031 275.386719 L 79.304688 271.523438 C 79.304688 271.523438 88.816406 291.613281 74.714844 314.976562 C 74.6875 315.039062 79.21875 293.734375 69.582031 275.386719 Z M 69.582031 275.386719 " fill-opacity="1" fill-rule="nonzero"/></g></g></g></g><g clip-path="url(#e0b5aae089)"><g clip-path="url(#441dcd6b34)"><g clip-path="url(#5ed7746f68)"><g clip-path="url(#7621271c2d)"><path fill="#000000" d="M 153.121094 360.355469 L 147.148438 369.636719 C 130.097656 355.785156 107.019531 356.191406 107.019531 356.191406 C 134.128906 346.308594 153.121094 360.355469 153.121094 360.355469 Z M 153.121094 360.355469 " fill-opacity="1" fill-rule="nonzero"/></g></g></g></g><g clip-path="url(#fcae89186b)"><g clip-path="url(#af819811f0)"><g clip-path="url(#f2d254c241)"><g clip-path="url(#1ebab14bb1)"><path fill="#000000" d="M 129.503906 311.609375 L 91.539062 334.265625 L 120.460938 300.945312 Z M 129.503906 311.609375 " fill-opacity="1" fill-rule="nonzero"/></g></g></g></g><g clip-path="url(#5a4a9fb463)"><g clip-path="url(#416735c0e5)"><g clip-path="url(#58e832ca42)"><g clip-path="url(#36c021e537)"><path fill="#000000" d="M 174.21875 274.957031 L 169.980469 280.550781 C 163.214844 275.433594 157.015625 279.257812 156.925781 279.300781 L 153.222656 273.375 C 153.628906 273.078125 163.644531 267.011719 174.21875 274.957031 Z M 174.21875 274.957031 " fill-opacity="1" fill-rule="nonzero"/></g></g></g></g><g clip-path="url(#870df9d6e9)"><g clip-path="url(#3ece8c922b)"><g clip-path="url(#399a27ed83)"><g clip-path="url(#ba4b485a23)"><path fill="#000000" d="M 171.015625 349.144531 C 171.605469 349.363281 185.601562 354.324219 194.625 343.261719 L 200.085938 347.671875 C 190.277344 359.636719 175.21875 358.164062 168.585938 355.707031 L 171.015625 349.144531 L 169.800781 352.425781 Z M 171.015625 349.144531 " fill-opacity="1" fill-rule="nonzero"/></g></g></g></g><g clip-path="url(#5fd0f9344e)"><g clip-path="url(#6c3815d82f)"><g clip-path="url(#8464bb8748)"><g clip-path="url(#0f229170d6)"><path fill="#000000" d="M 198.1875 189.054688 L 197.121094 195.972656 C 188.304688 194.574219 183.257812 203.152344 183.210938 203.285156 L 177.097656 199.828125 C 177.449219 199.285156 184.632812 186.945312 198.1875 189.054688 Z M 198.1875 189.054688 " fill-opacity="1" fill-rule="nonzero"/></g></g></g></g><g clip-path="url(#08a73495ec)"><g clip-path="url(#2287676c23)"><g clip-path="url(#f38ada3dd4)"><g clip-path="url(#3a9f21f655)"><path fill="#000000" d="M 94.671875 162.0625 L 101.289062 164.363281 C 97.453125 175.332031 105.167969 180.503906 106.082031 181.066406 L 102.453125 187.035156 C 97.734375 184.242188 90.050781 175.351562 94.671875 162.0625 Z M 94.671875 162.0625 " fill-opacity="1" fill-rule="nonzero"/></g></g></g></g><g clip-path="url(#e4489286d7)"><g clip-path="url(#65b9871e23)"><g clip-path="url(#2d29837ba3)"><g clip-path="url(#163fccb18e)"><path fill="#000000" d="M 242.050781 38.949219 L 248.972656 38.003906 C 250.546875 49.484375 259.835938 50.609375 260.855469 50.6875 L 260.359375 57.671875 C 254.898438 57.289062 243.988281 52.875 242.050781 38.949219 Z M 242.050781 38.949219 " fill-opacity="1" fill-rule="nonzero"/></g></g></g></g><g clip-path="url(#4cc3d7da6c)"><g clip-path="url(#172e3ee93e)"><g clip-path="url(#ab93e38a68)"><g clip-path="url(#1d3786ab27)"><path fill="#000000" d="M 80.515625 246.675781 L 83.90625 240.542969 C 95.441406 246.902344 96.425781 258.164062 95.371094 263.222656 L 91.984375 262.488281 L 88.574219 261.820312 C 88.585938 261.378906 90.265625 252 80.515625 246.675781 Z M 80.515625 246.675781 " fill-opacity="1" fill-rule="nonzero"/></g></g></g></g><g clip-path="url(#95f9accbff)"><g clip-path="url(#25a0178468)"><g clip-path="url(#363b1975c8)"><g clip-path="url(#1356d9c5ea)"><path fill="#000000" d="M 250.292969 298.203125 L 243.441406 299.769531 C 240.765625 288.035156 230.941406 286.335938 230.875 286.3125 L 232.007812 279.417969 C 232.609375 279.414062 246.617188 281.914062 250.292969 298.203125 Z M 250.292969 298.203125 " fill-opacity="1" fill-rule="nonzero"/></g></g></g></g><g clip-path="url(#719dc7e9ce)"><g clip-path="url(#10c4ce5b11)"><g clip-path="url(#fcef7dcd23)"><g clip-path="url(#1c025080d9)"><path fill="#000000" d="M 258.0625 115.703125 L 255.550781 109.175781 C 255.640625 109.132812 267.847656 104.398438 273.519531 94.933594 L 279.492188 98.5625 C 272.601562 110.117188 258.667969 115.476562 258.0625 115.703125 Z M 258.0625 115.703125 " fill-opacity="1" fill-rule="nonzero"/></g></g></g></g><g clip-path="url(#a9b815362b)"><g clip-path="url(#801593025c)"><g clip-path="url(#1bb5f0f848)"><g clip-path="url(#74fe142479)"><path fill="#000000" d="M 268.367188 160.265625 L 271.5625 154.058594 C 272.261719 154.394531 288.679688 163.085938 288.125 186.164062 L 281.085938 186.019531 C 281.625 167.414062 268.933594 160.550781 268.367188 160.265625 Z M 268.367188 160.265625 " fill-opacity="1" fill-rule="nonzero"/></g></g></g></g><g clip-path="url(#126203014b)"><g clip-path="url(#6026846251)"><g clip-path="url(#7935437542)"><g clip-path="url(#420594d532)"><path fill="#000000" d="M 146.203125 219.730469 C 140.675781 218.726562 136.914062 215.171875 136.082031 212.175781 C 135.625 210.589844 136.027344 209.09375 137.144531 208.089844 C 139.449219 206.109375 144.238281 206.6875 151.054688 209.660156 C 152.910156 210.496094 154.429688 211.433594 155.507812 212.355469 C 155.71875 211.984375 155.953125 211.550781 156.101562 211.15625 C 158.039062 206.722656 157.789062 200.140625 152.558594 196.113281 L 154.273438 193.910156 C 160.667969 198.816406 161.046875 206.867188 158.679688 212.257812 C 158.320312 213.023438 157.964844 213.785156 157.5 214.433594 C 159.59375 217.449219 159.117188 220.554688 158.320312 222.5 C 157.058594 225.914062 153.890625 229.21875 150.246094 231.601562 C 150.59375 232.476562 150.917969 233.417969 151.128906 234.464844 C 151.992188 239.1875 150.4375 243.984375 147.164062 246.578125 C 146.640625 246.980469 146.027344 247.425781 145.308594 247.757812 C 145.144531 249.414062 144.546875 251.429688 143.1875 253.6875 C 141.59375 256.382812 139.871094 258.207031 138.121094 259.5 C 137.824219 267.972656 124.808594 279.121094 123.253906 280.488281 L 121.441406 278.324219 C 125.042969 275.253906 133.441406 267.09375 135.054688 261.125 C 132.414062 262.011719 129.855469 261.660156 127.785156 260.597656 C 124.382812 258.890625 122.386719 255.613281 123.351562 253.207031 C 123.925781 251.855469 125.695312 249.898438 131.769531 251.847656 C 134.707031 252.789062 136.609375 254.3125 137.558594 256.378906 C 138.589844 255.417969 139.671875 254.101562 140.730469 252.257812 C 141.503906 250.976562 142.007812 249.816406 142.265625 248.71875 C 139.726562 249.121094 136.476562 248.816406 132.28125 247.039062 C 127.957031 245.210938 125.996094 243.441406 126.128906 241.476562 C 126.199219 240.679688 126.578125 239.253906 129.015625 238.515625 C 132.910156 237.269531 140.308594 238.070312 143.695312 242.234375 C 144.207031 242.871094 144.710938 243.730469 145.007812 244.734375 C 145.121094 244.628906 145.238281 244.523438 145.417969 244.4375 C 148.257812 242.207031 148.972656 238.070312 148.382812 235.015625 C 148.273438 234.304688 148.050781 233.699219 147.828125 233.09375 C 144.039062 235.046875 140.070312 235.890625 137.195312 234.976562 C 132.527344 233.472656 131.457031 230.910156 132.097656 228.984375 C 133.035156 226.046875 138.125 224.203125 144.75 226.28125 C 146.347656 226.796875 147.777344 227.777344 148.84375 229.140625 C 151.898438 227.136719 154.648438 224.351562 155.785156 221.488281 C 156.441406 219.714844 156.425781 218.140625 155.699219 216.679688 C 153.085938 219.292969 149.707031 220.355469 146.203125 219.730469 Z M 149.925781 212.300781 C 147.109375 211.035156 144.957031 210.386719 143.351562 210.089844 C 140.160156 209.433594 139.136719 210.171875 138.933594 210.320312 C 138.820312 210.429688 138.5 210.683594 138.71875 211.511719 C 139.234375 213.34375 141.976562 216.222656 146.601562 217.042969 C 149.621094 217.5625 151.984375 216.421875 153.746094 214.6875 C 152.824219 213.75 151.542969 212.976562 149.925781 212.300781 Z M 130.972656 254.613281 C 130.3125 254.367188 129.699219 254.214844 129.125 254.152344 C 127.03125 253.75 126.09375 254.074219 125.96875 254.402344 C 125.726562 255.058594 126.769531 257.085938 129.035156 258.222656 C 130.167969 258.792969 132.515625 259.511719 135.175781 258.183594 C 134.742188 256.53125 133.382812 255.355469 130.972656 254.613281 Z M 139.722656 242.480469 C 135.570312 239.972656 129.761719 240.730469 128.980469 241.636719 C 129.105469 241.90625 129.847656 242.925781 133.453125 244.484375 C 136.925781 245.996094 139.96875 246.449219 142.421875 245.867188 C 142.113281 244.484375 141.175781 243.390625 139.722656 242.480469 Z M 143.859375 229.085938 C 143.203125 228.84375 142.585938 228.6875 142.011719 228.625 C 137.855469 227.757812 135.089844 228.972656 134.789062 229.980469 C 134.570312 230.570312 135.667969 231.648438 138.078125 232.394531 C 140.074219 233.058594 143.265625 232.300781 146.375 230.761719 C 145.648438 229.898438 144.804688 229.359375 143.859375 229.085938 Z M 143.859375 229.085938 " fill-opacity="1" fill-rule="nonzero"/></g></g></g></g><g clip-path="url(#b330af7a58)"><g clip-path="url(#12ad83c4b6)"><g clip-path="url(#7c801e0f67)"><g clip-path="url(#21062fca40)"><path fill="#000000" d="M 222.644531 232.515625 C 224.222656 230.265625 226.691406 228.042969 230.148438 225.964844 C 233.105469 224.226562 235.660156 223.378906 237.816406 223.207031 C 238.222656 222.3125 238.824219 221.492188 239.289062 220.84375 C 242.664062 216.570312 248.867188 214.539062 255.011719 215.695312 C 256.332031 215.957031 257.539062 216.332031 258.695312 216.835938 C 261.796875 212.085938 266.050781 208.066406 270.402344 206.394531 C 273.003906 205.417969 276.992188 204.730469 280.914062 207.449219 C 281.796875 206.882812 282.746094 206.335938 283.710938 205.949219 C 290.746094 202.882812 301.125 203.292969 307.453125 211.605469 L 304.546875 213.8125 C 299.402344 207.132812 290.886719 206.738281 285.085938 209.292969 C 284.546875 209.542969 284.070312 209.8125 283.53125 210.0625 C 284.769531 211.5625 285.949219 213.417969 286.976562 215.890625 C 290.875 224.722656 291.582031 230.878906 288.980469 233.871094 C 287.691406 235.332031 285.789062 235.824219 283.683594 235.265625 C 279.75 234.183594 275.191406 229.359375 273.898438 222.164062 C 273.089844 217.6875 274.5625 213.308594 277.664062 209.976562 C 275.765625 209.050781 273.707031 208.960938 271.441406 209.839844 C 267.71875 211.222656 264.167969 214.757812 261.554688 218.789062 C 263.347656 220.199219 264.617188 222.011719 265.257812 224.117188 C 267.992188 232.664062 265.5625 239.230469 261.820312 240.457031 C 259.359375 241.257812 256.03125 239.953125 254.105469 233.867188 C 252.875 230.128906 254.042969 224.960938 256.503906 220.128906 C 255.714844 219.835938 254.90625 219.609375 254.003906 219.425781 C 250.015625 218.695312 244.757812 219.582031 241.824219 223.273438 C 241.683594 223.445312 241.570312 223.554688 241.496094 223.75 C 242.835938 224.171875 243.878906 224.78125 244.742188 225.472656 C 250.160156 229.792969 251.152344 239.414062 249.527344 244.410156 C 248.515625 247.542969 246.660156 248.125 245.683594 248.136719 C 243.109375 248.230469 240.820312 245.738281 238.480469 240.167969 C 236.152344 234.753906 235.78125 230.515625 236.242188 227.25 C 234.835938 227.625 233.328125 228.261719 231.679688 229.292969 C 229.371094 230.679688 227.667969 232.0625 226.402344 233.457031 C 229.046875 234.585938 231.023438 237.109375 232.226562 240.914062 C 234.761719 248.792969 232.246094 251.144531 230.496094 251.839844 C 227.421875 253.089844 223.140625 250.535156 220.957031 246.144531 C 219.625 243.488281 219.136719 240.171875 220.269531 236.710938 C 212.492188 238.753906 201.964844 249.632812 197.980469 254.351562 L 195.199219 251.980469 C 197.246094 249.675781 211.664062 232.925781 222.644531 232.515625 Z M 277.710938 221.339844 C 278.78125 227.332031 282.539062 230.890625 284.910156 231.542969 C 285.988281 231.867188 286.3125 231.390625 286.425781 231.285156 C 286.566406 231.109375 287.519531 229.746094 286.722656 225.644531 C 286.277344 223.617188 285.4375 220.84375 283.808594 217.179688 C 282.855469 215.109375 281.851562 213.394531 280.761719 212.09375 C 278.492188 214.390625 277.039062 217.507812 277.710938 221.339844 Z M 257.871094 232.574219 C 258.898438 235.640625 260.25 237.039062 261.011719 236.796875 C 262.351562 236.398438 263.820312 232.835938 262.757812 227.441406 C 262.582031 226.707031 262.363281 225.878906 262.148438 225.054688 C 261.765625 223.867188 261.046875 222.78125 260.0625 221.816406 C 257.957031 225.890625 257.046875 229.957031 257.871094 232.574219 Z M 242.144531 238.542969 C 244.140625 243.234375 245.527344 244.125 245.832031 244.308594 C 247.015625 243.332031 247.992188 235.855469 244.753906 230.480469 C 243.601562 228.558594 242.085938 227.402344 240.304688 226.964844 C 239.582031 230.128906 240.164062 234.003906 242.144531 238.542969 Z M 224.496094 244.246094 C 225.953125 247.171875 228.566406 248.589844 229.375 248.214844 C 229.734375 248.050781 230.171875 246.871094 229.683594 244.152344 C 229.574219 243.441406 229.335938 242.679688 229.078125 241.761719 C 228.070312 238.628906 226.582031 236.808594 224.535156 236.273438 C 222.847656 239.828125 223.769531 242.78125 224.496094 244.246094 Z M 224.496094 244.246094 " fill-opacity="1" fill-rule="nonzero"/></g></g></g></g><g clip-path="url(#080e0d9af1)"><g clip-path="url(#ed737d10ef)"><g clip-path="url(#6cd5abbb29)"><g clip-path="url(#fca51986be)"><path fill="#000000" d="M 189.617188 119.234375 C 191.066406 116.9375 193.386719 115.109375 196.527344 113.882812 C 202.613281 111.363281 205.351562 113.644531 206.269531 114.804688 C 207.972656 116.855469 207.890625 120.105469 206.097656 122.726562 C 204.117188 125.652344 199.785156 128.078125 193.582031 126.078125 C 192.769531 125.851562 192.070312 125.519531 191.371094 125.183594 C 191.101562 129.339844 193.390625 133.246094 193.429688 133.335938 L 190.382812 135.117188 C 190.257812 134.847656 186.773438 128.929688 188.167969 122.953125 C 186.257812 121.050781 185.253906 118.515625 185.347656 115.640625 C 185.464844 112.699219 186.746094 109.441406 189.101562 106.507812 C 187.242188 104.476562 186.101562 102.113281 185.851562 99.558594 C 185.714844 97.714844 186.003906 94.914062 188.253906 91.863281 C 186.878906 90.535156 185.847656 88.882812 185.242188 87.09375 C 184.734375 85.636719 183.90625 81.820312 186.644531 78.058594 C 185.273438 71.878906 190.21875 63.5625 204.753906 58.199219 L 205.996094 61.496094 C 195.277344 65.433594 190.980469 70.785156 190.1875 74.746094 C 191.617188 73.707031 193.375 72.789062 195.640625 71.914062 C 203.898438 68.777344 206.246094 69.496094 207.429688 70.53125 C 208.269531 71.289062 208.542969 72.363281 208.238281 73.59375 C 207.367188 77.152344 200.839844 82.273438 195.617188 83.472656 C 192.914062 84.113281 190.480469 83.433594 188.78125 81.761719 C 188.78125 81.761719 188.71875 81.738281 188.71875 81.738281 C 188.207031 83.117188 188.140625 84.507812 188.644531 85.964844 C 189.09375 87.175781 189.785156 88.328125 190.707031 89.265625 C 192.234375 87.964844 194.164062 86.589844 196.667969 85.277344 C 202.457031 82.347656 206.445312 81.660156 208.605469 83.28125 C 209.710938 84.136719 210.199219 85.4375 209.925781 86.980469 C 209.429688 89.929688 205.933594 93.933594 200.496094 95.503906 C 197.410156 96.375 194 95.707031 191.105469 94.039062 C 189.875 95.75 189.285156 97.546875 189.449219 99.324219 C 189.59375 100.945312 190.40625 102.585938 191.601562 104 C 194.410156 101.457031 197.996094 99.429688 202.351562 98.355469 C 206.953125 97.222656 209.972656 97.742188 211.367188 99.828125 C 212.503906 101.59375 212.140625 103.992188 210.355469 106.394531 C 207.714844 109.894531 202.433594 112.863281 196.859375 111.171875 C 194.972656 110.621094 193.273438 109.769531 191.777344 108.765625 C 189.949219 111.074219 188.960938 113.546875 188.890625 115.757812 C 188.738281 116.96875 189.03125 118.199219 189.617188 119.234375 Z M 194.597656 122.722656 C 200.082031 124.453125 202.542969 121.636719 203.171875 120.75 C 204.101562 119.449219 204.242188 117.859375 203.582031 117.019531 C 203.515625 116.996094 203.539062 116.929688 203.472656 116.90625 C 202.527344 116.03125 200.488281 116.097656 197.925781 117.164062 C 195.210938 118.246094 193.363281 119.804688 192.324219 121.804688 C 192.957031 122.113281 193.746094 122.40625 194.597656 122.722656 Z M 194.710938 80.074219 C 199.128906 79.027344 203.71875 74.90625 204.597656 73.140625 C 203.777344 73.136719 201.621094 73.308594 196.820312 75.1875 C 194.21875 76.164062 192.117188 77.398438 190.71875 78.75 C 191.546875 79.949219 192.988281 80.484375 194.710938 80.074219 Z M 199.433594 92.125 C 202.789062 91.128906 205.230469 88.972656 206.109375 87.207031 C 206.441406 86.511719 206.429688 86.132812 206.457031 86.066406 C 206.457031 86.066406 204.78125 85.148438 198.246094 88.476562 C 196.421875 89.367188 194.859375 90.355469 193.5625 91.441406 C 195.484375 92.304688 197.597656 92.640625 199.433594 92.125 Z M 197.835938 107.726562 C 201.980469 109.039062 205.902344 106.3125 207.5 104.214844 C 208.40625 102.984375 208.546875 101.992188 208.359375 101.699219 C 208.359375 101.699219 208.292969 101.675781 208.316406 101.609375 C 207.996094 101.265625 206.59375 100.820312 203.089844 101.613281 C 199.558594 102.46875 196.558594 104.121094 194.191406 106.078125 C 195.277344 106.777344 196.476562 107.371094 197.835938 107.726562 Z M 197.835938 107.726562 " fill-opacity="1" fill-rule="nonzero"/></g></g></g></g><g clip-path="url(#3f458b75e0)"><g clip-path="url(#b134d4725a)"><g clip-path="url(#222fc90580)"><g clip-path="url(#ab0464d305)"><path fill="#000000" d="M 95.753906 305.75 C 89.734375 305.464844 94.648438 298.25 94.648438 298.25 C 94.648438 298.25 97.105469 294.238281 99.421875 295.839844 C 101.742188 297.445312 101.769531 306.039062 95.753906 305.75 Z M 95.753906 305.75 " fill-opacity="1" fill-rule="nonzero"/></g></g></g></g><g clip-path="url(#b174309587)"><g clip-path="url(#03039898ec)"><g clip-path="url(#b5877e55f6)"><g clip-path="url(#985fc2d8ac)"><path fill="#000000" d="M 343.863281 143.742188 C 351.253906 145.363281 350.273438 150.222656 345.972656 152.363281 C 341.671875 154.5 338.078125 153.914062 335.070312 148.324219 C 332.128906 142.757812 343.863281 143.742188 343.863281 143.742188 Z M 343.863281 143.742188 " fill-opacity="1" fill-rule="nonzero"/></g></g></g></g><g clip-path="url(#45dcca3e9c)"><g clip-path="url(#1d95f29ef6)"><g clip-path="url(#d93d5ba37d)"><g clip-path="url(#e3ea19c807)"><path fill="#000000" d="M 230.828125 153.75 C 232.078125 156.828125 235.585938 171.558594 229.582031 170.828125 C 223.578125 170.097656 225.210938 155.402344 225.210938 155.402344 C 225.375 151.734375 229.511719 150.652344 230.828125 153.75 Z M 230.828125 153.75 " fill-opacity="1" fill-rule="nonzero"/></g></g></g></g><g clip-path="url(#a20220b1cb)"><g clip-path="url(#b4a63ab191)"><g clip-path="url(#f40243e3cf)"><g clip-path="url(#564369892f)"><path fill="#000000" d="M 307.105469 258.121094 C 307.105469 258.121094 321.066406 256.722656 320.242188 262.984375 C 319.414062 269.246094 310.539062 273.050781 302.925781 269.410156 C 295.3125 265.769531 298.851562 257.824219 307.105469 258.121094 Z M 307.105469 258.121094 " fill-opacity="1" fill-rule="nonzero"/></g></g></g></g><g clip-path="url(#e7321b8a25)"><g clip-path="url(#e79e225909)"><g clip-path="url(#b786257864)"><g clip-path="url(#f25e88a39b)"><path fill="#000000" d="M 136.21875 124.6875 C 129.964844 120.804688 144.574219 111.808594 144.574219 111.808594 C 149.5 108.1875 151.664062 113.839844 150.835938 116.070312 C 149.988281 118.367188 142.472656 128.570312 136.21875 124.6875 Z M 136.21875 124.6875 " fill-opacity="1" fill-rule="nonzero"/></g></g></g></g><g clip-path="url(#36c584e07a)"><g clip-path="url(#69be73deb0)"><g clip-path="url(#65a53bf589)"><g clip-path="url(#f6cd7ec5fa)"><path fill="#000000" d="M 1.171875 392.96875 L 60.964844 321.449219 C 62.855469 319.167969 66.023438 318.472656 68.683594 319.757812 C 70.386719 320.613281 72.144531 321.710938 73.960938 323.054688 C 78.566406 326.550781 83.300781 331.515625 88.074219 337.984375 C 88.113281 338.074219 88.179688 338.097656 88.222656 338.1875 L 86.269531 339.628906 L 88.289062 338.210938 C 93.761719 345.613281 96.671875 353.480469 97.871094 357.507812 C 98.792969 360.460938 97.46875 363.628906 94.765625 365.089844 L 22.808594 403.515625 C 22.152344 403.871094 21.464844 403.914062 20.808594 403.671875 L 2.222656 396.789062 C 1.5 396.523438 0.921875 395.859375 0.683594 395.101562 C 0.441406 394.339844 0.644531 393.59375 1.171875 392.96875 Z M 42.257812 351.390625 L 33.707031 361.582031 C 36.328125 368.820312 38.480469 378.128906 38.574219 389.578125 L 48.605469 384.265625 C 48.878906 369.8125 45.652344 358.765625 42.257812 351.390625 Z M 55.6875 380.46875 L 64.820312 375.566406 C 65.84375 355.871094 60.488281 342.097656 56.324219 334.585938 L 47.308594 345.425781 C 51.160156 352.96875 55.339844 364.667969 55.6875 380.46875 Z M 66.523438 324.183594 C 65.890625 323.871094 65.15625 324.046875 64.648438 324.605469 L 61.054688 328.871094 C 65.601562 336.152344 72.21875 350.546875 71.902344 371.769531 L 81.933594 366.457031 C 82.5625 350.644531 79.054688 338.746094 75.519531 330.945312 C 73.996094 329.410156 72.46875 328.097656 70.929688 327.007812 C 69.441406 325.785156 67.921875 324.847656 66.523438 324.183594 Z M 93.1875 359.058594 C 92.285156 356.257812 90.558594 351.441406 87.667969 346.339844 C 88.546875 351.21875 89.082031 356.640625 89.082031 362.683594 L 92.507812 360.894531 C 93.097656 360.515625 93.386719 359.726562 93.1875 359.058594 Z M 31.582031 393.332031 C 31.914062 383.15625 30.484375 374.71875 28.449219 367.917969 L 20.539062 377.378906 C 21.964844 383.203125 23.003906 390.082031 23.035156 397.855469 Z M 15.984375 396.738281 C 15.863281 392.214844 15.445312 388.105469 14.75 384.339844 L 7.117188 393.453125 Z M 15.984375 396.738281 " fill-opacity="1" fill-rule="nonzero"/></g></g></g></g></g></g></g></g></svg>