<svg xmlns="http://www.w3.org/2000/svg" xmlns:xlink="http://www.w3.org/1999/xlink" width="1080" zoomAndPan="magnify" viewBox="0 0 810 809.999993" height="1080" preserveAspectRatio="xMidYMid meet" version="1.0"><defs><clipPath id="649bb98df1"><path d="M 287 312 L 497 312 L 497 519 L 287 519 Z M 287 312 " clip-rule="nonzero"/></clipPath><clipPath id="6464ce46b3"><path d="M 277.886719 441.519531 L 468.050781 289.039062 L 531.859375 368.613281 L 341.695312 521.097656 Z M 277.886719 441.519531 " clip-rule="nonzero"/></clipPath><clipPath id="9fb9cafd1c"><path d="M 277.886719 441.519531 L 468.050781 289.039062 L 531.859375 368.613281 L 341.695312 521.097656 Z M 277.886719 441.519531 " clip-rule="nonzero"/></clipPath><clipPath id="19b2cb836d"><path d="M 277.886719 441.519531 L 468.050781 289.039062 L 531.859375 368.613281 L 341.695312 521.097656 Z M 277.886719 441.519531 " clip-rule="nonzero"/></clipPath><clipPath id="b6e69f3868"><path d="M 318 403 L 439 403 L 439 482 L 318 482 Z M 318 403 " clip-rule="nonzero"/></clipPath><clipPath id="c763629f31"><path d="M 277.886719 441.519531 L 468.050781 289.039062 L 531.859375 368.613281 L 341.695312 521.097656 Z M 277.886719 441.519531 " clip-rule="nonzero"/></clipPath><clipPath id="cb17515046"><path d="M 277.886719 441.519531 L 468.050781 289.039062 L 531.859375 368.613281 L 341.695312 521.097656 Z M 277.886719 441.519531 " clip-rule="nonzero"/></clipPath><clipPath id="5f1c7271b7"><path d="M 277.886719 441.519531 L 468.050781 289.039062 L 531.859375 368.613281 L 341.695312 521.097656 Z M 277.886719 441.519531 " clip-rule="nonzero"/></clipPath></defs><g clip-path="url(#649bb98df1)"><g clip-path="url(#6464ce46b3)"><g clip-path="url(#9fb9cafd1c)"><g clip-path="url(#19b2cb836d)"><path fill="#000000" d="M 488.710938 316.582031 C 485.664062 313.253906 481.757812 312.058594 476.914062 313.679688 C 469.035156 316.359375 463.328125 321.753906 458.960938 328.582031 C 457.441406 330.988281 456.15625 333.527344 454.835938 336.027344 C 451.125 343.207031 447.492188 350.324219 444.582031 357.796875 C 443.707031 360.070312 443.253906 362.628906 441.308594 364.503906 C 439.617188 362.785156 438.375 360.769531 437.058594 358.8125 C 435.652344 356.742188 434.625 354.367188 432.398438 352.765625 C 431.363281 352.023438 429.308594 351.726562 429.375 350.167969 C 429.441406 348.609375 428.816406 349.238281 428.152344 349.582031 C 421.800781 352.917969 414.886719 353.757812 408.089844 355.128906 C 405.277344 355.691406 402.519531 355.453125 399.730469 356.121094 C 394.835938 357.289062 391.417969 360.84375 387.632812 363.628906 C 380.777344 368.683594 374.160156 374.113281 367.246094 379.09375 C 360.109375 384.191406 352.597656 388.582031 345.398438 393.601562 C 339.925781 397.488281 334.269531 401.144531 329.074219 405.375 C 325.410156 408.3125 321.730469 411.386719 317.59375 413.574219 C 307.425781 419.03125 298.210938 425.917969 288.933594 432.792969 C 286.847656 434.339844 286.585938 437.6875 288.199219 439.464844 C 288.683594 439.976562 289.109375 440.535156 289.480469 441.136719 C 292.136719 445.46875 294.871094 449.738281 297.34375 454.152344 C 299.527344 458.050781 302.015625 461.699219 304.132812 465.589844 C 307.046875 471.085938 310.394531 476.304688 314.179688 481.246094 C 316.3125 483.988281 318.527344 486.667969 320.441406 489.523438 C 326.136719 497.878906 331.644531 506.390625 337.339844 514.746094 C 340.15625 518.882812 343.320312 519.234375 347.75 515.996094 C 351 513.640625 353.984375 510.871094 357.058594 508.21875 C 365.40625 500.960938 373.289062 493.199219 381.726562 486.054688 C 393.226562 476.394531 405.578125 467.871094 416.863281 457.941406 C 419.253906 455.839844 421.480469 453.613281 423.960938 451.625 C 433.003906 444.375 442.722656 437.960938 452.277344 431.429688 C 453.597656 430.589844 454.566406 429.457031 455.191406 428.027344 C 456.34375 425.117188 457.675781 422.292969 459.183594 419.554688 C 461.597656 415.296875 462.632812 410.644531 464.980469 406.375 C 465.632812 405.160156 465.832031 403.6875 465.285156 402.617188 C 464.023438 400.179688 463.230469 397.550781 461.234375 395.453125 C 458.578125 392.6875 456.273438 389.578125 453.933594 386.5 C 453.175781 385.476562 452.285156 384.058594 454.078125 382.933594 C 455.949219 381.746094 457.207031 378.542969 460.273438 380.726562 C 460.21875 379.640625 459.589844 378.390625 461.171875 377.9375 C 463.292969 377.300781 464.597656 375.566406 466.390625 374.441406 C 474.570312 369.496094 481.667969 363.304688 487.675781 355.871094 C 498.339844 342.988281 498.886719 327.800781 488.710938 316.582031 Z M 451.175781 386.894531 C 452.816406 390.660156 456.730469 392.726562 458.097656 396.777344 C 458.695312 398.617188 461.09375 399.578125 462.242188 401.480469 C 462.734375 402.253906 463.023438 403.097656 463.113281 404.007812 C 463.203125 404.917969 463.082031 405.800781 462.753906 406.652344 C 460.914062 412.019531 458.394531 417.242188 455.75 422.308594 C 454.253906 425.136719 454 429.042969 450.03125 430.34375 C 448.296875 430.917969 446.570312 430.796875 445.410156 433.109375 C 444.558594 434.859375 442.078125 435.90625 440.359375 437.285156 C 434.628906 441.941406 427.984375 445.386719 422.492188 450.417969 C 407.40625 464.207031 390.539062 475.851562 375.148438 489.261719 C 368.484375 495.105469 362.105469 501.222656 355.574219 507.148438 C 354.757812 507.832031 353.902344 508.457031 353.003906 509.023438 C 351.347656 510.164062 349.597656 510.875 348.585938 513.132812 C 347.25 516.082031 342.046875 516.238281 339.996094 513.992188 C 336.667969 510.390625 334.699219 505.820312 331.933594 501.828125 C 327.546875 495.496094 323.730469 488.703125 318.703125 482.824219 C 310.722656 473.414062 305.179688 462.363281 298.769531 451.945312 C 297.230469 449.476562 295.355469 447.214844 295.582031 443.898438 C 295.585938 443.832031 295.558594 443.792969 295.566406 443.722656 C 295.289062 443.066406 295.011719 442.410156 294.667969 441.746094 C 294.476562 441.519531 294.265625 441.3125 294.039062 441.121094 C 293.71875 440.875 293.464844 440.636719 293.246094 440.441406 L 292.496094 441.226562 C 292.0625 441.703125 291.289062 441.128906 291.722656 440.65625 C 292.039062 440.339844 292.320312 439.988281 292.59375 439.707031 C 292.324219 439.382812 292.214844 439.011719 292.265625 438.589844 L 291.714844 437.902344 C 291.628906 437.796875 291.59375 437.679688 291.609375 437.542969 C 291.621094 437.410156 291.683594 437.300781 291.789062 437.214844 C 291.894531 437.132812 292.011719 437.097656 292.148438 437.113281 C 292.28125 437.125 292.390625 437.1875 292.476562 437.292969 L 292.691406 437.558594 L 292.765625 437.5 C 292.566406 437.09375 292.335938 436.648438 292.109375 436.207031 C 291.695312 436.617188 291.355469 437.078125 291.085938 437.589844 C 290.855469 437.148438 290.757812 436.675781 290.800781 436.175781 C 290.84375 435.679688 291.015625 435.230469 291.320312 434.832031 L 291.289062 434.792969 C 290.957031 434.304688 291.578125 433.746094 291.960938 434.066406 C 295.511719 430.359375 299.410156 427.066406 303.65625 424.183594 C 312.621094 418.316406 322.085938 413.234375 330.433594 406.289062 C 338.515625 399.558594 347.492188 393.867188 356.402344 388.167969 C 362.464844 384.3125 368.285156 380.082031 374.140625 375.886719 C 381.429688 370.671875 388.078125 364.652344 395.574219 359.769531 C 398.496094 357.863281 401.789062 357.671875 404.9375 357.53125 C 411.164062 357.242188 417.121094 355.289062 423.136719 353.726562 C 425.003906 353.238281 426.8125 354.167969 428.714844 353.332031 C 429.003906 353.226562 429.664062 353.578125 429.878906 353.84375 C 432.582031 357.761719 436.238281 360.914062 438.335938 365.253906 C 440.070312 368.820312 439.167969 374.1875 436.421875 377.328125 C 435.621094 378.285156 434.894531 377.925781 434.144531 377.773438 C 429.996094 376.898438 426.734375 378.382812 423.898438 381.726562 C 420.382812 385.863281 417.332031 389.878906 418.867188 395.546875 C 420.503906 401.574219 427.746094 405.992188 434.660156 404.839844 C 434.765625 404.816406 434.863281 404.863281 434.972656 404.839844 C 439.386719 403.621094 443.785156 402.226562 445.269531 397.277344 C 446.050781 394.503906 446.417969 391.679688 446.371094 388.800781 C 446.390625 387.339844 446.835938 386.796875 447.996094 386.367188 C 449.207031 386.085938 450.53125 385.394531 451.171875 386.894531 Z M 434.941406 390.183594 C 436.40625 391.773438 438.359375 391.398438 440.246094 390.074219 C 441.335938 389.324219 442.664062 388.320312 443.859375 389.183594 C 445.050781 390.046875 444.121094 391.546875 443.777344 392.761719 C 443.65625 393.234375 443.40625 393.625 443.324219 394.066406 C 441.957031 400.496094 438.253906 403.464844 431.820312 402.789062 C 430.097656 402.617188 428.46875 402.136719 426.933594 401.339844 C 425.398438 400.546875 424.0625 399.496094 422.929688 398.1875 C 421.257812 396.261719 420.414062 393.800781 421.03125 391.363281 C 421.621094 388.785156 422.757812 386.472656 424.4375 384.429688 C 425.792969 382.902344 427.464844 381.914062 429.460938 381.46875 C 430.421875 381.261719 430.613281 380.167969 431.8125 380.335938 C 434.992188 380.859375 435.28125 381.066406 434.566406 384.398438 C 434.132812 386.445312 433.507812 388.636719 434.9375 390.1875 Z M 441.761719 387.039062 C 440.601562 387.78125 438.632812 390.171875 437.191406 387.753906 C 436.3125 386.261719 437.394531 384.640625 438.441406 383.363281 C 439.484375 382.089844 439.945312 383.289062 440.71875 383.859375 C 440.941406 384.929688 442.503906 386.566406 441.761719 387.039062 Z M 445.070312 376.230469 C 446.082031 378.117188 447.023438 379.996094 448.003906 381.84375 C 448.433594 382.691406 449.414062 383.601562 448.070312 384.425781 C 446.984375 385.109375 445.519531 385.78125 444.554688 384.421875 C 443.152344 382.359375 441.5 380.53125 439.585938 378.933594 C 438.984375 378.414062 438.996094 377.648438 439.285156 376.914062 C 440.085938 375.019531 440.945312 373.199219 441.746094 371.304688 C 442.011719 371.402344 442.351562 371.507812 442.3125 371.539062 C 441.648438 374.082031 444.269531 374.613281 445.066406 376.234375 Z M 488.953125 320.402344 C 492.84375 327.132812 495.085938 334.308594 492.742188 342.644531 C 491.753906 346.261719 489.773438 349.417969 487.699219 352.460938 C 483.898438 357.90625 479.464844 362.777344 474.402344 367.074219 C 466.960938 372.101562 459.785156 376.914062 452.609375 381.726562 C 451.40625 382.566406 450.648438 382.171875 450.25 381.046875 C 448.621094 376.972656 446.496094 373.175781 443.875 369.660156 C 442.933594 368.40625 443.128906 366.933594 443.707031 365.464844 C 447.722656 354.527344 452.539062 343.957031 458.148438 333.746094 C 460.753906 329.023438 463.445312 324.480469 467.78125 320.816406 C 471.078125 318.046875 474.613281 315.96875 478.597656 315.152344 C 483.414062 314.054688 486.78125 316.6875 488.949219 320.40625 Z M 488.953125 320.402344 " fill-opacity="1" fill-rule="nonzero"/></g></g></g></g><g clip-path="url(#b6e69f3868)"><g clip-path="url(#c763629f31)"><g clip-path="url(#cb17515046)"><g clip-path="url(#5f1c7271b7)"><path fill="#000000" d="M 355.578125 478.46875 C 355.335938 479.417969 356.863281 479.761719 356.164062 481.074219 C 354.574219 479.714844 352.691406 478.464844 352.71875 476.308594 C 352.8125 472.59375 350.808594 470.25 348.511719 468.011719 C 347.539062 467.035156 346.132812 465.90625 346.855469 464.699219 C 348.054688 462.671875 348.964844 460.058594 351.5 459.152344 C 353.417969 458.496094 354.644531 459.710938 355.300781 461.3125 C 355.90625 462.773438 355.734375 464.355469 355.882812 465.867188 C 356.019531 465.882812 356.082031 465.960938 356.1875 465.9375 C 358.808594 465.214844 361.472656 464.394531 363.121094 467.152344 C 364.765625 469.910156 363.625 472.394531 361.527344 474.703125 C 360.769531 475.5625 361.355469 478.480469 358.695312 476.722656 C 358.484375 476.84375 358.328125 477.011719 358.222656 477.230469 C 358.535156 480.433594 356.828125 478.855469 355.578125 478.46875 Z M 355.359375 468.488281 C 354.410156 469.5 353.527344 470.585938 354.589844 471.992188 C 355.777344 473.546875 359.148438 474.546875 360.070312 473.429688 C 361.277344 471.960938 362.335938 470.234375 361.074219 468.425781 C 360.097656 467.136719 357.167969 467.160156 355.359375 468.488281 Z M 350.609375 467.027344 C 351.253906 467.515625 351.890625 468.699219 352.636719 467.910156 C 354.054688 466.398438 354.023438 464.480469 353.339844 462.769531 C 353.019531 461.898438 352.398438 461.203125 351.238281 461.632812 C 350.960938 461.742188 350.757812 461.925781 350.617188 462.1875 C 349.984375 463.828125 349.414062 465.539062 350.605469 467.03125 Z M 331.957031 443.214844 L 333.058594 444.589844 C 333.121094 444.527344 333.195312 444.492188 333.28125 444.472656 C 332.636719 443.359375 332.03125 442.214844 331.347656 441.128906 C 331.269531 440.984375 331.164062 440.863281 331.035156 440.765625 C 330.902344 440.667969 330.757812 440.601562 330.597656 440.566406 C 330.4375 440.535156 330.277344 440.535156 330.117188 440.570312 C 329.957031 440.605469 329.8125 440.671875 329.683594 440.769531 C 328.164062 441.925781 326.46875 443.097656 326.082031 445.039062 C 325.757812 446.742188 327.050781 447.648438 328.144531 448.78125 C 329.238281 449.910156 329.667969 451.699219 329.976562 453.332031 C 330.113281 453.976562 328.976562 454.511719 328.226562 454.046875 C 327.621094 453.65625 327.117188 453.160156 326.71875 452.554688 C 324.414062 448.703125 321.886719 445 319.132812 441.453125 C 318.429688 440.574219 317.898438 439.367188 319.136719 438.5625 C 320.265625 437.78125 321.214844 438.652344 321.878906 439.5625 C 322.109375 439.941406 322.359375 440.304688 322.628906 440.652344 C 323.328125 441.289062 322.847656 443.425781 324.910156 442.402344 C 327.230469 441.230469 329.527344 438.386719 329.152344 437.058594 C 328.996094 436.554688 328.738281 436.070312 328.582031 435.566406 C 328.390625 434.78125 327.90625 433.789062 328.832031 433.296875 C 329.9375 432.722656 330.191406 433.898438 330.507812 434.527344 C 332.46875 438.421875 334.667969 442.179688 337.101562 445.800781 C 337.492188 446.367188 337.90625 447.039062 337.304688 447.773438 C 336.625 448.566406 335.980469 448.078125 335.308594 447.867188 C 332.753906 447.03125 332.753906 447.03125 331.957031 443.214844 Z M 337.875 440.664062 C 337.328125 439.691406 336.695312 438.773438 335.984375 437.914062 C 332.808594 434.5 334.488281 430.894531 336.472656 427.421875 C 337.933594 424.871094 340.140625 424.417969 342.359375 426.089844 C 345.902344 428.707031 347.246094 432.960938 349.726562 436.367188 C 350.117188 436.933594 349.835938 437.597656 349.164062 438.011719 C 348.929688 438.183594 348.671875 438.25 348.386719 438.210938 C 348.101562 438.171875 347.867188 438.039062 347.6875 437.816406 C 346.941406 436.949219 346.25 436.035156 345.621094 435.082031 C 345.03125 434.109375 344.867188 432.734375 343.089844 433.722656 C 341.050781 434.855469 339.703125 437.316406 340.429688 438.613281 C 341.105469 439.769531 341.777344 440.921875 342.492188 442.042969 C 342.902344 442.714844 343.148438 443.335938 342.289062 443.902344 C 342.144531 444.019531 341.980469 444.109375 341.800781 444.160156 C 341.621094 444.210938 341.441406 444.226562 341.253906 444.203125 C 341.070312 444.179688 340.894531 444.121094 340.734375 444.023438 C 340.574219 443.925781 340.441406 443.804688 340.332031 443.652344 C 339.453125 442.722656 338.695312 441.699219 337.871094 440.667969 Z M 338.4375 435.191406 C 339.4375 434.328125 340.285156 433.585938 341.101562 432.804688 C 341.917969 432.027344 343.546875 431.476562 342.664062 429.984375 C 341.898438 428.71875 341.015625 427.226562 339.167969 427.582031 C 337.320312 427.933594 337.535156 429.769531 337.46875 431.011719 C 337.453125 432.40625 337.210938 433.980469 338.433594 435.195312 Z M 370.320312 460.882812 C 369.992188 458.828125 368.679688 456.804688 367.777344 454.582031 C 367.402344 453.5625 371.359375 449.199219 372.550781 449.121094 C 374.40625 449.011719 376.542969 451.441406 375.90625 453.769531 C 375.089844 456.746094 376.503906 456.238281 378.328125 455.78125 C 378.980469 455.679688 379.636719 455.636719 380.292969 455.648438 C 381.378906 455.59375 382.484375 455.644531 381.933594 454.019531 C 381.75 453.476562 381.777344 452.886719 382.4375 452.613281 C 383.238281 452.28125 383.636719 452.78125 383.875 453.46875 C 384.113281 454.15625 384.425781 454.78125 384.664062 455.46875 C 385.246094 457.132812 384.574219 457.859375 382.765625 457.871094 C 380.464844 457.894531 378.109375 457.773438 375.796875 458.5625 C 374.382812 459.066406 373.652344 459.71875 374.464844 461.199219 C 374.871094 461.941406 375.527344 462.917969 374.40625 463.628906 C 373.167969 464.433594 372.632812 463.296875 371.976562 462.632812 C 371.535156 462.167969 371.066406 461.660156 370.320312 460.886719 Z M 372.945312 456.332031 C 373.578125 455.011719 373.972656 453.628906 373.289062 452.230469 C 373.058594 451.785156 372.617188 451.078125 372.105469 451.613281 C 370.84375 452.933594 371.230469 454.507812 371.589844 455.976562 C 371.671875 456.476562 372.183594 456.878906 372.941406 456.335938 Z M 407.261719 436.660156 C 407.574219 437.601562 408.605469 438.339844 407.4375 439.152344 C 406.378906 439.9375 405.75 439 405.152344 438.410156 C 403.203125 436.527344 402.113281 434.074219 401.054688 431.660156 C 400.390625 430.125 400.953125 429.105469 402.816406 428.617188 C 405.9375 427.824219 409.082031 427.730469 412.246094 428.335938 C 415.078125 428.820312 415.839844 430.785156 414.398438 433.445312 C 414.046875 434.101562 413.597656 434.714844 413.179688 435.363281 C 410.917969 438.488281 410.917969 438.488281 407.257812 436.664062 Z M 404.980469 430.144531 C 404.90625 431.144531 405.921875 431.394531 405.503906 432.359375 C 405.175781 433.125 409.445312 435.789062 410.246094 435.457031 C 410.421875 435.367188 410.585938 435.257812 410.734375 435.128906 C 411.710938 434.15625 412.503906 432.957031 412.433594 431.695312 C 412.414062 430.265625 410.902344 430.414062 409.910156 430.269531 C 408.394531 430.105469 406.785156 430.203125 404.976562 430.144531 Z M 417.097656 423.441406 C 419.621094 424.554688 419.585938 426.464844 420.039062 428.046875 C 420.367188 429.160156 419.460938 430.140625 418.550781 429.550781 C 417.320312 428.71875 415.628906 427.941406 415.632812 425.992188 C 415.625 425.121094 415.171875 424.480469 414.796875 423.777344 C 413.726562 421.816406 414.324219 418.886719 416.140625 417.242188 C 418.070312 415.507812 420.242188 415.398438 422.480469 416.863281 C 423.421875 417.488281 424.027344 418.636719 425.425781 418.582031 C 425.847656 418.558594 426.183594 418.976562 425.871094 419.292969 C 424.488281 420.773438 426.140625 421.582031 426.332031 422.683594 C 426.527344 423.46875 426.488281 424.128906 425.710938 424.5625 C 425.113281 424.917969 424.65625 424.65625 424.242188 424.296875 C 423.410156 423.648438 423.925781 421.792969 422.480469 421.945312 C 421.039062 422.097656 419.5 422.769531 417.09375 423.441406 Z M 417.890625 418.410156 C 417.257812 419.105469 417.03125 420.230469 417.390625 420.445312 C 418.429688 421.117188 419.773438 420.914062 420.988281 420.320312 C 421.613281 420.003906 421.738281 419.53125 421.308594 418.996094 C 420.386719 417.855469 419.078125 418.335938 417.886719 418.414062 Z M 373.824219 410.835938 C 374.746094 408.777344 372.894531 407.5625 373.054688 405.804688 C 373.144531 404.667969 372.898438 403.421875 374.394531 403.101562 C 375.890625 402.777344 375.800781 404.230469 376.054688 405.09375 C 376.363281 405.964844 376.5 406.859375 376.457031 407.78125 C 375.972656 412.183594 377.460938 415.761719 380.109375 418.90625 C 380.488281 419.40625 380.824219 419.929688 381.121094 420.480469 C 381.296875 420.714844 381.367188 420.976562 381.335938 421.269531 C 381.300781 421.558594 381.175781 421.800781 380.953125 421.992188 C 380.84375 422.113281 380.707031 422.207031 380.554688 422.265625 C 380.398438 422.324219 380.238281 422.347656 380.074219 422.332031 C 379.910156 422.316406 379.753906 422.265625 379.613281 422.179688 C 379.472656 422.09375 379.355469 421.980469 379.265625 421.839844 C 378.4375 420.8125 377.503906 419.800781 376.9375 418.625 C 375.660156 416.109375 373.839844 414.074219 371.480469 412.523438 C 370.609375 411.90625 369.460938 410.316406 368.027344 412.28125 C 367.964844 412.382812 367.878906 412.464844 367.773438 412.523438 C 367.671875 412.578125 367.558594 412.609375 367.4375 412.609375 C 367.320312 412.609375 367.207031 412.582031 367.101562 412.527344 C 366.996094 412.46875 366.910156 412.390625 366.84375 412.292969 C 366.230469 411.527344 366.773438 410.71875 367.03125 409.945312 C 367.335938 409.074219 368.015625 408.90625 368.839844 408.996094 C 370.703125 409.136719 372.109375 410.265625 373.820312 410.835938 Z M 360.296875 412.578125 C 361.816406 411.421875 363.457031 411.046875 364.941406 412.117188 C 366.65625 413.316406 366.980469 415.125 366.402344 417.21875 C 366.089844 418.472656 364.480469 419.515625 365.527344 421.058594 C 365.855469 421.546875 365.277344 421.445312 364.933594 421.410156 C 362.6875 421.265625 363.128906 422.289062 363.875 423.449219 C 364.285156 424.121094 364.84375 424.742188 365.257812 425.414062 C 365.671875 426.085938 366.246094 426.878906 365.230469 427.566406 C 364.214844 428.257812 363.574219 427.453125 363.191406 426.820312 C 361.273438 423.613281 359.136719 420.554688 356.78125 417.65625 C 356.628906 417.503906 356.519531 417.324219 356.453125 417.117188 C 356.382812 416.914062 356.367188 416.703125 356.402344 416.488281 C 356.433594 416.277344 356.515625 416.082031 356.644531 415.90625 C 356.769531 415.734375 356.929688 415.597656 357.121094 415.5 C 358.421875 414.777344 359.152344 413.496094 360.296875 412.578125 Z M 361.183594 419.082031 C 361.660156 419.203125 361.714844 420.601562 362.890625 419.722656 C 364.066406 418.839844 364.800781 415.304688 363.859375 414.363281 C 363.707031 414.179688 363.527344 414.035156 363.3125 413.933594 C 363.097656 413.832031 362.871094 413.777344 362.632812 413.777344 C 362.394531 413.773438 362.167969 413.820312 361.949219 413.917969 C 361.734375 414.015625 361.546875 414.15625 361.390625 414.335938 C 359.984375 415.785156 359.566406 417.375 361.1875 419.085938 Z M 393.144531 444.710938 C 392.042969 443.335938 390.789062 442.082031 390.144531 440.339844 C 389.898438 439.722656 389.652344 439.101562 390.402344 438.628906 C 391.035156 438.246094 391.46875 438.710938 391.730469 439.191406 C 392.710938 441.042969 393.933594 440.0625 395.109375 439.183594 C 396.429688 438.25 396.753906 437.171875 395.707031 435.941406 C 395.207031 435.496094 394.988281 434.9375 395.054688 434.269531 C 395.082031 433.898438 395.222656 433.578125 395.472656 433.304688 C 395.855469 433 396.167969 433.3125 396.382812 433.582031 C 397.417969 434.949219 398.449219 436.316406 400.632812 435.441406 C 400.960938 435.304688 401.507812 435.746094 401.300781 436.039062 C 399.347656 438.605469 402.144531 439.4375 402.804688 441.042969 C 403.132812 441.84375 404.089844 442.644531 403.0625 443.472656 C 401.953125 444.359375 401.195312 443.335938 400.5 442.703125 C 400.179688 442.457031 400.0625 441.921875 399.824219 441.546875 C 399.222656 440.714844 398.554688 439.179688 397.675781 439.570312 C 396.507812 440.066406 395.554688 441.460938 394.832031 442.667969 C 394.234375 443.644531 395.390625 444.226562 395.910156 444.875 C 396.246094 445.296875 396.78125 445.492188 397.121094 445.914062 C 397.609375 446.523438 398.152344 447.28125 397.269531 448.054688 C 396.464844 448.695312 395.871094 448.109375 395.402344 447.605469 C 394.671875 446.691406 393.945312 445.707031 393.148438 444.714844 Z M 352.46875 431.902344 C 351.269531 429.542969 349.46875 427.222656 347.664062 424.96875 C 346.558594 423.59375 346.246094 422.339844 348.09375 421.046875 C 348.601562 420.613281 349.039062 420.117188 349.402344 419.554688 C 350.648438 418.058594 352.066406 416.855469 353.957031 417.726562 C 355.972656 418.679688 356.574219 420.519531 356.125 422.699219 C 356.03125 423.375 355.75 423.960938 355.273438 424.449219 C 352.722656 426.746094 352.457031 428.839844 354.859375 431.054688 C 355.425781 431.601562 356 432.710938 354.847656 433.382812 C 353.585938 434.152344 353.167969 432.917969 352.472656 431.90625 Z M 349.699219 423.835938 C 350.773438 424.859375 351.523438 425.949219 352.910156 424.710938 C 354.492188 423.320312 354.449219 421.785156 353.5 420.285156 C 352.933594 419.421875 351.917969 419.171875 351.132812 419.992188 C 350.105469 421.132812 348.921875 422.394531 349.703125 423.839844 Z M 435.050781 405.023438 C 436.15625 405.390625 436.195312 406.300781 435.953125 407.246094 C 435.269531 409.675781 435.761719 412.167969 434.902344 414.613281 C 434.355469 416.121094 435.386719 417.171875 436.136719 418.265625 C 436.765625 419.207031 437.539062 420.089844 438.167969 421.03125 C 438.496094 421.519531 438.367188 422.0625 437.863281 422.527344 C 437.765625 422.632812 437.652344 422.714844 437.523438 422.769531 C 437.394531 422.828125 437.257812 422.855469 437.117188 422.855469 C 436.976562 422.859375 436.839844 422.832031 436.707031 422.773438 C 436.578125 422.71875 436.464844 422.640625 436.367188 422.539062 C 435.859375 422.0625 435.21875 421.574219 434.972656 420.957031 C 433.308594 417.082031 429.851562 414.960938 426.824219 412.433594 C 426.410156 412.074219 425.738281 411.863281 426.050781 411.234375 C 426.125 411.089844 426.230469 410.964844 426.359375 410.859375 C 426.492188 410.757812 426.636719 410.6875 426.796875 410.648438 C 426.957031 410.609375 427.121094 410.605469 427.285156 410.636719 C 427.445312 410.667969 427.59375 410.734375 427.730469 410.828125 C 428.808594 411.433594 429.835938 412.117188 430.8125 412.875 C 432.25 414.042969 432.859375 413.554688 433.082031 411.871094 C 433.277344 410.398438 433.433594 408.953125 433.664062 407.515625 C 433.761719 406.621094 433.726562 405.644531 434.699219 405.054688 C 434.816406 405.050781 434.933594 405.042969 435.050781 405.027344 Z M 384.496094 440.414062 C 385.34375 439.984375 385.886719 438.863281 386.957031 439.257812 C 387.492188 439.457031 387.523438 440.121094 387.460938 440.671875 C 387.3125 441.734375 386.777344 442.160156 385.570312 442.375 C 384.109375 442.667969 384.003906 443.632812 385.089844 444.515625 C 387.195312 446.28125 389.300781 448.042969 391.363281 449.839844 C 392.03125 450.433594 393.445312 450.867188 392.476562 452.085938 C 391.390625 453.390625 390.542969 452.253906 389.710938 451.605469 C 387.683594 450.148438 385.859375 448.476562 384.238281 446.582031 C 383.40625 445.617188 382.746094 444.953125 381.984375 446.820312 C 381.496094 448.089844 380.464844 448.289062 379.535156 447.59375 C 378.601562 446.898438 379.019531 445.933594 379.691406 445.207031 C 381.226562 443.605469 382.898438 442.015625 384.5 440.417969 Z M 364.113281 463.15625 L 360.960938 459.222656 C 360.5 458.652344 359.933594 458.101562 360.8125 457.398438 C 361.582031 456.714844 362.300781 457.144531 362.730469 457.679688 C 365.132812 460.519531 367.46875 463.351562 369.835938 466.222656 C 369.949219 466.339844 370.035156 466.476562 370.09375 466.628906 C 370.152344 466.78125 370.179688 466.9375 370.175781 467.101562 C 370.171875 467.265625 370.132812 467.421875 370.066406 467.570312 C 370 467.71875 369.902344 467.847656 369.78125 467.957031 C 369.011719 468.640625 368.332031 468.179688 367.902344 467.648438 C 366.640625 466.148438 365.484375 464.628906 364.257812 463.101562 C 364.203125 463.101562 364.15625 463.117188 364.117188 463.160156 Z M 364.113281 463.15625 " fill-opacity="1" fill-rule="nonzero"/></g></g></g></g></svg>