<svg xmlns="http://www.w3.org/2000/svg" xmlns:xlink="http://www.w3.org/1999/xlink" width="1080" zoomAndPan="magnify" viewBox="0 0 810 809.999993" height="1080" preserveAspectRatio="xMidYMid meet" version="1.0"><defs><clipPath id="8805054e6e"><path d="M 388 282 L 460 282 L 460 377 L 388 377 Z M 388 282 " clip-rule="nonzero"/></clipPath><clipPath id="fe0aec4f5c"><path d="M 399.125 273.273438 L 468.523438 289.410156 L 410.949219 537.054688 L 341.546875 520.917969 Z M 399.125 273.273438 " clip-rule="nonzero"/></clipPath><clipPath id="9416d57f5f"><path d="M 399.125 273.273438 L 468.523438 289.410156 L 410.949219 537.054688 L 341.546875 520.917969 Z M 399.125 273.273438 " clip-rule="nonzero"/></clipPath><clipPath id="5b89d39c78"><path d="M 399.125 273.273438 L 468.523438 289.410156 L 410.949219 537.054688 L 341.546875 520.917969 Z M 399.125 273.273438 " clip-rule="nonzero"/></clipPath><clipPath id="bfcf96b09b"><path d="M 386 373 L 419 373 L 419 532 L 386 532 Z M 386 373 " clip-rule="nonzero"/></clipPath><clipPath id="5e42305de0"><path d="M 399.125 273.273438 L 468.523438 289.410156 L 410.949219 537.054688 L 341.546875 520.917969 Z M 399.125 273.273438 " clip-rule="nonzero"/></clipPath><clipPath id="9cc89d4613"><path d="M 399.125 273.273438 L 468.523438 289.410156 L 410.949219 537.054688 L 341.546875 520.917969 Z M 399.125 273.273438 " clip-rule="nonzero"/></clipPath><clipPath id="747c18e6b3"><path d="M 399.125 273.273438 L 468.523438 289.410156 L 410.949219 537.054688 L 341.546875 520.917969 Z M 399.125 273.273438 " clip-rule="nonzero"/></clipPath><clipPath id="4c4a69885e"><path d="M 432 299 L 449 299 L 449 353 L 432 353 Z M 432 299 " clip-rule="nonzero"/></clipPath><clipPath id="0ebd28da00"><path d="M 399.125 273.273438 L 468.523438 289.410156 L 410.949219 537.054688 L 341.546875 520.917969 Z M 399.125 273.273438 " clip-rule="nonzero"/></clipPath><clipPath id="cfcb9df771"><path d="M 399.125 273.273438 L 468.523438 289.410156 L 410.949219 537.054688 L 341.546875 520.917969 Z M 399.125 273.273438 " clip-rule="nonzero"/></clipPath><clipPath id="00f8def18e"><path d="M 399.125 273.273438 L 468.523438 289.410156 L 410.949219 537.054688 L 341.546875 520.917969 Z M 399.125 273.273438 " clip-rule="nonzero"/></clipPath></defs><g clip-path="url(#8805054e6e)"><g clip-path="url(#fe0aec4f5c)"><g clip-path="url(#9416d57f5f)"><g clip-path="url(#5b89d39c78)"><path fill="#000000" d="M 445.890625 286.222656 C 440.746094 282.972656 434.511719 281.6875 428.476562 282.105469 C 422.503906 282.511719 416.773438 284.582031 411.691406 287.699219 C 406.65625 290.785156 402.195312 294.863281 398.449219 299.410156 C 394.394531 304.339844 391.089844 309.992188 389.457031 316.199219 C 387.980469 321.820312 388.109375 327.699219 389.632812 333.292969 C 391.101562 338.675781 393.777344 343.730469 397.097656 348.195312 C 404.09375 357.578125 415.0625 366.472656 427.511719 364.824219 C 433.199219 364.074219 438.453125 361.433594 442.757812 357.6875 C 447.410156 353.636719 450.855469 348.308594 453.375 342.71875 C 458.695312 330.90625 460.792969 317.289062 458.925781 304.4375 C 458.144531 299.042969 456.480469 293.527344 452.675781 289.457031 C 448.316406 284.796875 441.808594 283.511719 435.667969 283.902344 C 429.765625 284.269531 423.792969 285.800781 418.316406 288.011719 C 412.84375 290.222656 407.664062 293.324219 403.386719 297.449219 C 399.03125 301.65625 395.664062 306.925781 393.886719 312.722656 C 392.011719 318.835938 392.371094 325.214844 394.019531 331.339844 C 396.960938 342.269531 403.207031 352.324219 411.542969 359.964844 C 413.601562 361.851562 415.804688 363.582031 418.101562 365.167969 L 418.035156 362.875 C 415.773438 364.53125 413.714844 366.457031 411.988281 368.667969 C 411.046875 369.875 410.382812 371.3125 411.414062 372.710938 C 412.203125 373.78125 413.515625 374.65625 414.65625 375.300781 C 416.964844 376.609375 420.078125 376.859375 422.082031 374.839844 C 423.621094 373.292969 423.507812 371.066406 422.6875 369.203125 C 422.230469 368.175781 421.652344 367.207031 421.167969 366.191406 C 421.109375 366.0625 421.054688 365.9375 420.964844 365.714844 C 420.867188 365.457031 420.773438 365.191406 420.707031 364.921875 C 420.628906 364.628906 420.652344 364.773438 420.617188 364.457031 C 420.609375 364.34375 420.609375 364.234375 420.601562 364.117188 C 420.601562 364.054688 420.605469 363.984375 420.605469 363.914062 C 420.585938 364.042969 420.589844 364.023438 420.613281 363.859375 C 420.707031 363.148438 420.367188 362.441406 419.621094 362.265625 C 418.96875 362.117188 418.121094 362.542969 418.023438 363.257812 C 417.785156 365.070312 418.425781 366.65625 419.246094 368.238281 C 419.425781 368.585938 419.609375 368.925781 419.789062 369.269531 C 419.871094 369.417969 419.945312 369.570312 420.019531 369.714844 C 420.144531 369.964844 420.148438 369.964844 420.207031 370.109375 C 420.351562 370.4375 420.476562 370.777344 420.566406 371.121094 C 420.589844 371.207031 420.609375 371.289062 420.628906 371.375 C 420.617188 371.316406 420.605469 371.152344 420.628906 371.410156 C 420.652344 371.597656 420.660156 371.785156 420.652344 371.972656 C 420.644531 372.1875 420.6875 371.78125 420.648438 371.992188 C 420.632812 372.074219 420.613281 372.160156 420.597656 372.238281 C 420.589844 372.273438 420.511719 372.53125 420.5625 372.386719 C 420.617188 372.234375 420.496094 372.527344 420.488281 372.542969 C 420.316406 372.863281 420.085938 373.105469 419.761719 373.296875 C 419.117188 373.6875 418.277344 373.761719 417.570312 373.613281 C 416.503906 373.382812 415.539062 372.785156 414.6875 372.125 C 414.398438 371.902344 413.703125 371.511719 413.566406 371.15625 C 413.5 370.988281 413.765625 370.667969 413.921875 370.472656 C 415.5 368.445312 417.363281 366.628906 419.4375 365.109375 C 420.296875 364.480469 420.214844 363.398438 419.371094 362.820312 C 410.652344 356.792969 403.613281 348.226562 399.367188 338.515625 C 397.074219 333.273438 395.34375 327.582031 395.238281 321.824219 C 395.132812 316.144531 396.941406 310.628906 399.9375 305.839844 C 405.941406 296.265625 416.328125 290.621094 427.058594 287.96875 C 432.601562 286.597656 438.6875 285.671875 444.269531 287.328125 C 446.878906 288.101562 449.203125 289.546875 451.027344 291.570312 C 452.664062 293.378906 453.820312 295.601562 454.644531 297.878906 C 456.53125 303.113281 456.941406 308.863281 456.890625 314.386719 C 456.828125 320.636719 455.90625 326.867188 454.167969 332.875 C 451.019531 343.777344 445.015625 355.0625 434.300781 360.097656 C 429.476562 362.363281 424.070312 362.976562 418.910156 361.589844 C 413.320312 360.082031 408.445312 356.585938 404.378906 352.5625 C 397.015625 345.261719 391.21875 335.351562 391.046875 324.761719 C 390.855469 312.984375 398.113281 302.273438 406.636719 294.738281 C 415.15625 287.203125 426.046875 282.796875 437.136719 285.414062 C 439.796875 286.042969 442.3125 287.09375 444.621094 288.550781 C 445.222656 288.9375 446.097656 288.621094 446.421875 288.019531 C 446.78125 287.355469 446.496094 286.605469 445.886719 286.21875 Z M 445.890625 286.222656 " fill-opacity="1" fill-rule="nonzero"/></g></g></g></g><g clip-path="url(#bfcf96b09b)"><g clip-path="url(#5e42305de0)"><g clip-path="url(#9cc89d4613)"><g clip-path="url(#747c18e6b3)"><path fill="#000000" d="M 415.417969 374.722656 C 415.730469 379.976562 412.15625 384.40625 409.203125 388.394531 C 406.007812 392.714844 402.988281 397.167969 400.265625 401.800781 C 394.929688 410.875 390.648438 420.726562 388.675781 431.113281 C 386.699219 441.496094 387.542969 451.960938 389.035156 462.359375 C 389.773438 467.515625 390.625 472.652344 391.238281 477.828125 C 391.867188 483.132812 392.195312 488.46875 392.160156 493.808594 C 392.089844 504.617188 390.585938 515.402344 387.710938 525.824219 C 387.359375 527.109375 386.980469 528.386719 386.585938 529.664062 C 386.078125 531.296875 388.667969 531.890625 389.171875 530.265625 C 392.382812 519.898438 394.222656 509.132812 394.695312 498.296875 C 394.929688 492.863281 394.8125 487.414062 394.335938 482 C 393.855469 476.582031 393.070312 471.554688 392.292969 466.359375 C 390.75 456.085938 389.261719 445.640625 390.675781 435.265625 C 392.105469 424.773438 396.011719 414.808594 401.140625 405.597656 C 403.746094 400.914062 406.667969 396.40625 409.789062 392.046875 C 412.820312 387.816406 416.570312 383.640625 417.753906 378.429688 C 418.039062 377.179688 418.144531 375.886719 418.070312 374.605469 C 417.96875 372.90625 415.3125 373.003906 415.414062 374.710938 Z M 415.417969 374.722656 " fill-opacity="1" fill-rule="nonzero"/></g></g></g></g><g clip-path="url(#4c4a69885e)"><g clip-path="url(#0ebd28da00)"><g clip-path="url(#cfcb9df771)"><g clip-path="url(#00f8def18e)"><path fill="#000000" d="M 434.742188 350.933594 C 439.507812 345.425781 442.089844 338.398438 443.136719 331.257812 C 444.273438 323.496094 443.679688 315.644531 443.019531 307.871094 C 442.933594 306.867188 442.847656 305.867188 442.765625 304.863281 C 442.691406 304.011719 442.488281 303.046875 442.609375 302.199219 C 442.640625 301.984375 442.757812 301.796875 442.796875 301.769531 C 442.855469 301.730469 443.070312 301.695312 443.199219 301.714844 C 443.707031 301.792969 444.011719 302.042969 444.3125 302.617188 C 444.648438 303.261719 444.769531 304.027344 444.882812 304.738281 C 445.027344 305.644531 445.160156 306.554688 445.273438 307.460938 C 445.503906 309.324219 445.671875 311.1875 445.769531 313.0625 C 446.15625 320.507812 445.464844 327.988281 443.726562 335.238281 C 442.859375 338.832031 441.753906 342.382812 440.367188 345.8125 C 439.824219 347.160156 439.214844 348.664062 438.074219 349.621094 C 437.929688 349.738281 437.773438 349.84375 437.613281 349.9375 C 437.570312 349.964844 437.269531 350.117188 437.371094 350.078125 C 437.070312 350.207031 436.871094 350.246094 436.640625 350.257812 C 436.113281 350.289062 435.6875 350.222656 435.292969 350.023438 C 435.082031 349.914062 434.957031 349.832031 434.832031 349.675781 C 434.894531 349.753906 434.683594 349.421875 434.722656 349.507812 C 434.730469 349.519531 434.636719 349.222656 434.617188 349.132812 C 434.460938 348.433594 433.601562 348.058594 432.953125 348.257812 C 432.226562 348.480469 431.914062 349.210938 432.074219 349.917969 C 432.429688 351.46875 433.84375 352.539062 435.367188 352.824219 C 437.101562 353.144531 438.703125 352.601562 440.003906 351.4375 C 441.304688 350.273438 442.089844 348.589844 442.734375 346.976562 C 443.503906 345.0625 444.207031 343.117188 444.828125 341.148438 C 447.277344 333.402344 448.511719 325.265625 448.523438 317.140625 C 448.53125 313.132812 448.226562 309.132812 447.617188 305.171875 C 447.339844 303.363281 447.082031 301.25 445.578125 299.988281 C 444.261719 298.882812 442.023438 298.621094 440.792969 300.007812 C 440.046875 300.847656 439.894531 301.960938 439.953125 303.042969 C 440.011719 304.125 440.117188 305.097656 440.203125 306.125 C 440.386719 308.246094 440.570312 310.367188 440.726562 312.492188 C 441.039062 316.726562 441.238281 320.984375 441.046875 325.234375 C 440.703125 332.863281 438.914062 340.660156 434.472656 346.996094 C 433.957031 347.730469 433.394531 348.429688 432.808594 349.105469 C 431.6875 350.398438 433.621094 352.222656 434.738281 350.929688 Z M 434.742188 350.933594 " fill-opacity="1" fill-rule="nonzero"/></g></g></g></g></svg>