<svg xmlns="http://www.w3.org/2000/svg" xmlns:xlink="http://www.w3.org/1999/xlink" width="1080" zoomAndPan="magnify" viewBox="0 0 810 809.999993" height="1080" preserveAspectRatio="xMidYMid meet" version="1.0"><defs><clipPath id="f690ef28e8"><path d="M 369 318 L 468 318 L 468 490 L 369 490 Z M 369 318 " clip-rule="nonzero"/></clipPath><clipPath id="b078e280a5"><path d="M 397.597656 303.335938 L 479.902344 335.859375 L 412.378906 506.75 L 330.070312 474.226562 Z M 397.597656 303.335938 " clip-rule="nonzero"/></clipPath><clipPath id="fdf4ff7d15"><path d="M 397.597656 303.335938 L 479.902344 335.859375 L 412.378906 506.75 L 330.070312 474.226562 Z M 397.597656 303.335938 " clip-rule="nonzero"/></clipPath><clipPath id="5c76e875d5"><path d="M 397.597656 303.335938 L 479.902344 335.859375 L 412.378906 506.75 L 330.070312 474.226562 Z M 397.597656 303.335938 " clip-rule="nonzero"/></clipPath><clipPath id="1978126657"><path d="M 387 320 L 464 320 L 464 422 L 387 422 Z M 387 320 " clip-rule="nonzero"/></clipPath><clipPath id="340a2d3943"><path d="M 397.597656 303.335938 L 479.902344 335.859375 L 412.378906 506.75 L 330.070312 474.226562 Z M 397.597656 303.335938 " clip-rule="nonzero"/></clipPath><clipPath id="761ddb7149"><path d="M 397.597656 303.335938 L 479.902344 335.859375 L 412.378906 506.75 L 330.070312 474.226562 Z M 397.597656 303.335938 " clip-rule="nonzero"/></clipPath><clipPath id="b9dfa4c000"><path d="M 397.597656 303.335938 L 479.902344 335.859375 L 412.378906 506.75 L 330.070312 474.226562 Z M 397.597656 303.335938 " clip-rule="nonzero"/></clipPath></defs><g clip-path="url(#f690ef28e8)"><g clip-path="url(#b078e280a5)"><g clip-path="url(#fdf4ff7d15)"><g clip-path="url(#5c76e875d5)"><path fill="#000000" d="M 467.171875 359.609375 C 467.230469 355.914062 467.667969 352.066406 466.242188 348.574219 C 465.539062 346.730469 465.230469 344.820312 465.320312 342.847656 C 465.382812 340.492188 464.300781 338.726562 462.949219 337.09375 C 461.820312 335.699219 460.617188 334.371094 459.339844 333.109375 C 457.289062 331.203125 456.234375 328.394531 453.757812 326.878906 C 448.476562 323.585938 442.8125 321.1875 436.769531 319.679688 C 432.648438 318.679688 428.363281 318.066406 424.246094 318.757812 C 417.9375 319.800781 411.554688 320.6875 405.335938 322.621094 C 398.804688 324.667969 392.957031 327.296875 388.222656 333.414062 C 383.289062 339.75 381.851562 346.800781 380.949219 354 C 380.15625 360.515625 380.84375 367.25 380.882812 373.847656 C 380.886719 375.613281 381.496094 377.074219 382.179688 378.625 C 383.519531 381.652344 385.835938 383.730469 387.851562 386.167969 C 390.351562 389.230469 392.882812 392.257812 396.148438 394.628906 C 397.160156 395.335938 399.039062 396.320312 398.570312 398.449219 C 397.96875 401.199219 397.390625 403.882812 396.601562 406.570312 C 395.109375 411.585938 393.515625 416.566406 391.414062 421.34375 C 390.96875 422.328125 391.078125 423.28125 392.382812 423.128906 C 393.910156 422.945312 393.554688 423.714844 393.203125 424.730469 C 392.152344 427.671875 391.214844 430.589844 389.667969 433.269531 C 388.121094 435.953125 387.757812 439.101562 386.433594 441.867188 C 384.914062 445.167969 383.089844 448.285156 381.800781 451.679688 C 378.628906 460.117188 375.226562 468.460938 371.914062 476.84375 C 371.914062 476.84375 371.960938 476.863281 372.046875 476.777344 C 371.441406 478.304688 370.742188 479.800781 370.234375 481.363281 C 369.621094 483.316406 369.085938 485.359375 369.355469 487.414062 C 369.605469 489.769531 371.179688 490.453125 373.195312 489.175781 C 375.394531 487.851562 376.496094 485.601562 377.503906 483.320312 C 379.332031 479.105469 380.648438 474.6875 382.78125 470.652344 C 386.960938 462.675781 390.347656 454.371094 393.84375 446.074219 C 395.832031 441.316406 397.542969 436.445312 399.714844 431.757812 C 400.835938 429.332031 401.222656 425.890625 404.84375 425.613281 C 405.203125 425.507812 405.472656 425.289062 405.644531 424.953125 C 407.351562 422.277344 409.515625 419.796875 410.484375 416.6875 C 411.835938 412.164062 414.054688 407.921875 415.550781 403.457031 C 415.984375 402.222656 416.175781 400.101562 418.328125 399.976562 C 421.058594 399.902344 423.773438 398.902344 426.433594 398.730469 C 428.199219 398.644531 429.6875 398.554688 431.398438 397.644531 C 433.109375 396.738281 435.09375 396.351562 436.949219 395.757812 C 439.601562 394.917969 442.019531 393.308594 444.648438 392.398438 C 451.875 389.953125 457.847656 385.363281 461.863281 378.476562 C 463.535156 375.609375 464.824219 372.578125 465.722656 369.382812 C 466.621094 366.183594 467.105469 362.929688 467.171875 359.609375 Z M 382.433594 373.058594 C 382.542969 366.640625 382.121094 360.195312 382.640625 353.820312 C 383.101562 348.148438 384.066406 342.433594 387.164062 337.320312 C 391.773438 329.753906 398.191406 325.402344 406.34375 323.75 C 409.632812 323.082031 412.882812 322.128906 416.15625 321.332031 C 416.519531 321.234375 416.945312 320.972656 417.335938 321.492188 C 410.113281 325.96875 405.75 333.328125 400.808594 340.089844 C 396.800781 345.585938 393.769531 351.753906 390.710938 357.859375 C 388.136719 363 385.925781 368.464844 386.375 374.429688 C 386.425781 375.125 385.796875 379.871094 385.722656 381.003906 C 383.929688 378.707031 382.300781 376.414062 382.433594 373.058594 Z M 396.609375 392.800781 C 396.207031 393.007812 395.867188 392.628906 395.609375 392.34375 C 392.773438 389.578125 389.851562 386.839844 387.710938 383.371094 C 387.472656 382.972656 387.105469 382.582031 387.195312 382.070312 C 388.183594 376.851562 386.796875 371.613281 388.515625 366.4375 C 390.402344 360.664062 392.765625 355.136719 396.261719 350.117188 C 398.304688 347.269531 399.496094 343.839844 401.496094 340.847656 C 404.488281 336.363281 407.757812 332.089844 411.296875 328.023438 C 414 324.882812 417.707031 322.875 421.582031 321.296875 C 424.875 319.9375 427.707031 320.660156 430.828125 320.683594 C 433.953125 320.707031 436.699219 321.539062 439.570312 322.066406 C 442.300781 322.535156 444.957031 323.460938 447.148438 325.425781 C 448.21875 326.40625 450.160156 325.601562 450.925781 327.347656 C 447.785156 328.464844 444.609375 327.210938 441.359375 328.195312 C 434.386719 330.136719 426.988281 330.503906 420.71875 335.207031 C 416.140625 338.589844 411.621094 342.105469 408.371094 346.917969 C 405.96875 350.539062 404 354.5625 402.128906 358.59375 C 400.273438 362.625 398.773438 366.789062 397.628906 371.078125 C 396.539062 375.339844 396.5625 379.738281 396.457031 384.148438 C 396.445312 386.640625 396.976562 388.980469 396.914062 391.457031 C 396.898438 391.9375 397.199219 392.546875 396.609375 392.800781 Z M 396.742188 410.648438 C 398.304688 406.695312 398.769531 402.917969 400.027344 399.453125 C 400.277344 398.820312 400.679688 397.941406 401.839844 398.15625 C 406.117188 398.933594 410.453125 399.855469 414.875 400.140625 C 412.664062 400.542969 410.636719 401.574219 408.65625 402.621094 C 406.679688 403.667969 404.730469 404.90625 402.726562 405.878906 C 400.539062 406.910156 399.636719 409.601562 396.742188 410.648438 Z M 393.964844 419.304688 L 394.59375 417.714844 C 396.304688 415.160156 397.3125 412.203125 400.0625 410.433594 C 401.605469 409.398438 402.503906 407.128906 404.472656 406.507812 C 407.464844 405.496094 409.742188 402.738281 412.882812 402.148438 C 413.359375 402.035156 413.847656 401.617188 414.207031 402.066406 C 414.570312 402.515625 414.019531 402.964844 413.894531 403.402344 C 413.253906 406.261719 411.019531 407.265625 408.917969 408.628906 C 405.398438 410.835938 401.78125 412.890625 399.242188 416.449219 C 398.480469 417.550781 397.769531 418.667969 397.082031 419.859375 C 396.90625 420.242188 396.636719 420.542969 396.273438 420.757812 C 395.914062 420.972656 395.523438 421.070312 395.101562 421.042969 C 393.875 421.035156 393.378906 420.660156 393.964844 419.304688 Z M 397.589844 433.230469 C 395.019531 439.589844 392.5 445.96875 389.929688 452.328125 C 387.15625 459.21875 383.609375 465.742188 380.507812 472.5 C 378.902344 476.007812 377.578125 479.632812 376.117188 483.199219 C 375.46875 484.792969 374.5625 486.222656 373.394531 487.488281 C 372.890625 488.078125 372.175781 488.652344 371.433594 488.359375 C 370.476562 488.039062 371.335938 487.101562 371.175781 486.683594 C 370.320312 484.335938 371.570312 482.269531 371.855469 480.976562 C 376.609375 469.089844 380.3125 457.808594 385.292969 446.976562 C 388.167969 440.796875 390.652344 434.402344 393.324219 428.148438 C 394.101562 426.316406 395.65625 424.980469 396.007812 422.863281 C 396.152344 421.949219 397.191406 422.601562 397.746094 422.699219 C 400.402344 423.082031 401 424.167969 400.332031 426.949219 C 399.777344 429.222656 398.421875 431.125 397.589844 433.230469 Z M 407.84375 419.300781 C 407.113281 421.148438 405.015625 422.085938 404.480469 424.128906 C 404.425781 424.304688 404.320312 424.4375 404.160156 424.527344 C 403.996094 424.617188 403.828125 424.636719 403.648438 424.585938 C 403.160156 424.453125 403.164062 424.03125 403.289062 423.589844 C 403.621094 422.195312 404.144531 420.878906 401.910156 422.4375 C 400.546875 423.421875 399.335938 421.84375 398.207031 421.277344 C 397.359375 420.820312 398.511719 419.824219 398.875 419.179688 C 401.902344 413.976562 406.90625 411.5625 411.394531 408.394531 L 412.03125 408.828125 C 410.660156 412.308594 409.3125 415.859375 407.84375 419.300781 Z M 418.128906 398.742188 C 417.683594 399.175781 417.09375 398.757812 416.609375 398.753906 C 412.542969 398.667969 408.582031 398.019531 404.648438 397.320312 C 404.003906 397.183594 403.351562 397.050781 402.335938 396.894531 C 401.199219 394.796875 398.058594 393.917969 398.539062 390.515625 C 398.679688 389.164062 397.410156 387.628906 399.203125 386.511719 C 398.222656 385.574219 398.089844 384.363281 398.050781 383.003906 C 397.820312 376.621094 399.109375 370.625 401.296875 364.542969 C 403.199219 359.320312 406.015625 354.644531 408.273438 349.621094 C 409.730469 346.480469 412.097656 344.183594 414.53125 341.980469 C 418.269531 338.636719 422.121094 335.34375 426.699219 333.316406 C 428.503906 332.527344 430.371094 331.945312 432.304688 331.570312 C 436.320312 330.839844 440.273438 329.167969 444.3125 329.191406 C 447.164062 329.21875 450.003906 329 452.847656 328.90625 C 454.15625 328.875 455.449219 329.566406 455.046875 331.539062 C 454.875 332.386719 455.554688 332.714844 456.042969 332.851562 C 457.765625 333.410156 458.632812 335.03125 459.742188 336.320312 C 460.46875 337.21875 460.242188 337.800781 459.089844 338.382812 C 450.726562 342.757812 442.785156 347.671875 436.035156 354.933594 C 431.738281 359.527344 427.445312 364.09375 423.75 369.21875 C 419.726562 374.757812 416.328125 380.484375 416.253906 387.648438 C 416.265625 390.875 416.851562 393.988281 418.011719 396.996094 C 418.21875 397.546875 418.726562 398.183594 418.113281 398.738281 Z M 426.28125 397.636719 C 424.429688 397.820312 422.632812 398.269531 420.78125 398.628906 C 419.796875 398.792969 419.414062 398.398438 419.09375 397.417969 C 417.695312 393.40625 417.183594 389.28125 417.558594 385.046875 C 417.847656 382.542969 418.382812 379.824219 419.96875 377.589844 C 422.695312 373.667969 425.464844 369.824219 428.15625 365.878906 C 430.289062 362.78125 432.746094 359.976562 435.535156 357.457031 C 438.082031 355.113281 440.21875 352.296875 442.980469 350.097656 C 448.261719 345.890625 453.90625 342.53125 459.757812 339.476562 C 460.453125 339.085938 460.730469 338.519531 461.3125 337.734375 C 462.570312 339.875 463.546875 341.785156 463.671875 344.332031 C 463.757812 345.890625 463.363281 346.34375 462.027344 346.851562 C 451.960938 350.550781 443.523438 356.605469 437.285156 366.140625 C 434.992188 369.625 432.839844 373.164062 431.832031 377.214844 C 430.355469 383.273438 427.332031 389.148438 427.960938 395.617188 C 428.042969 396.871094 427.644531 397.503906 426.28125 397.636719 Z M 447.8125 389.746094 C 442.363281 392.59375 436.664062 395.277344 430.578125 396.46875 C 429.640625 396.648438 429.167969 396.765625 429.128906 395.226562 C 429.097656 391.050781 429.875 387.03125 431.460938 383.167969 C 432.171875 381.375 432.25 379.394531 432.914062 377.585938 C 436.234375 368.351562 441.523438 360.570312 449.550781 355.148438 C 450.101562 354.753906 450.820312 354.128906 451.328125 354.207031 C 453.296875 354.554688 454.394531 352.734375 456.003906 352.214844 C 456.136719 352.144531 456.320312 352.09375 456.359375 351.988281 C 457.070312 349.515625 459.3125 349.984375 460.890625 349.269531 C 463.078125 348.242188 465.023438 349.328125 465.339844 351.8125 C 465.929688 356.742188 465.902344 361.726562 464.703125 366.675781 C 464.1875 368.667969 463.8125 370.714844 462.6875 372.769531 C 460.695312 381.0625 454.699219 386.253906 447.8125 389.746094 Z M 447.8125 389.746094 " fill-opacity="1" fill-rule="nonzero"/></g></g></g></g><g clip-path="url(#1978126657)"><g clip-path="url(#340a2d3943)"><g clip-path="url(#761ddb7149)"><g clip-path="url(#b9dfa4c000)"><path fill="#010200" d="M 408.925781 408.636719 C 405.410156 410.84375 401.789062 412.898438 399.25 416.457031 C 398.488281 417.558594 397.777344 418.675781 397.09375 419.867188 C 396.914062 420.25 396.644531 420.550781 396.285156 420.765625 C 395.921875 420.980469 395.53125 421.078125 395.109375 421.050781 C 393.871094 421.050781 393.375 420.671875 393.960938 419.320312 L 394.59375 417.714844 C 396.304688 415.160156 397.3125 412.203125 400.0625 410.433594 C 401.605469 409.398438 402.503906 407.128906 404.472656 406.507812 C 407.464844 405.496094 409.742188 402.738281 412.882812 402.148438 C 413.359375 402.035156 413.847656 401.617188 414.207031 402.066406 C 414.570312 402.515625 414.019531 402.964844 413.894531 403.402344 C 413.261719 406.269531 411.023438 407.289062 408.925781 408.636719 Z M 447.148438 325.425781 C 444.957031 323.460938 442.300781 322.535156 439.570312 322.066406 C 436.699219 321.539062 433.953125 320.699219 430.828125 320.683594 C 427.707031 320.667969 424.875 319.9375 421.582031 321.296875 C 417.707031 322.875 414 324.882812 411.296875 328.023438 C 407.753906 332.085938 404.480469 336.359375 401.484375 340.84375 C 399.492188 343.835938 398.296875 347.265625 396.246094 350.113281 C 392.75 355.132812 390.402344 360.664062 388.5 366.433594 C 386.78125 371.605469 388.167969 376.847656 387.183594 382.066406 C 387.089844 382.578125 387.476562 382.96875 387.695312 383.367188 C 389.835938 386.832031 392.75 389.570312 395.597656 392.335938 C 395.875 392.632812 396.199219 393.003906 396.59375 392.796875 C 397.183594 392.539062 396.886719 391.933594 396.910156 391.457031 C 396.972656 388.980469 396.453125 386.640625 396.453125 384.144531 C 396.570312 379.742188 396.53125 375.335938 397.621094 371.074219 C 398.769531 366.785156 400.269531 362.625 402.128906 358.59375 C 403.988281 354.574219 405.960938 350.539062 408.363281 346.917969 C 411.613281 342.105469 416.136719 338.582031 420.707031 335.214844 C 426.988281 330.503906 434.386719 330.136719 441.359375 328.195312 C 444.601562 327.222656 447.777344 328.480469 450.925781 327.347656 C 450.160156 325.601562 448.21875 326.40625 447.148438 325.425781 Z M 463.664062 344.328125 C 463.539062 341.777344 462.566406 339.867188 461.308594 337.726562 C 460.71875 338.527344 460.441406 339.089844 459.753906 339.472656 C 453.902344 342.527344 448.253906 345.898438 442.976562 350.089844 C 440.214844 352.292969 438.074219 355.105469 435.53125 357.449219 C 432.742188 359.96875 430.285156 362.777344 428.152344 365.871094 C 425.464844 369.808594 422.714844 373.660156 419.960938 377.582031 C 418.378906 379.820312 417.84375 382.535156 417.554688 385.039062 C 417.175781 389.273438 417.6875 393.398438 419.089844 397.410156 C 419.40625 398.390625 419.789062 398.785156 420.773438 398.625 C 422.640625 398.269531 424.4375 397.816406 426.277344 397.632812 C 427.628906 397.492188 428.039062 396.863281 427.941406 395.609375 C 427.3125 389.140625 430.335938 383.265625 431.8125 377.207031 C 432.820312 373.15625 434.972656 369.617188 437.265625 366.132812 C 443.515625 356.597656 451.957031 350.542969 462.003906 346.835938 C 463.347656 346.332031 463.742188 345.878906 463.660156 344.308594 Z M 463.664062 344.328125 " fill-opacity="1" fill-rule="nonzero"/></g></g></g></g></svg>