<svg xmlns="http://www.w3.org/2000/svg" xmlns:xlink="http://www.w3.org/1999/xlink" width="1080" zoomAndPan="magnify" viewBox="0 0 810 809.999993" height="1080" preserveAspectRatio="xMidYMid meet" version="1.0"><defs><clipPath id="5ec5217dd1"><path d="M 344 229 L 434 229 L 434 350 L 344 350 Z M 344 229 " clip-rule="nonzero"/></clipPath><clipPath id="e8f97ca382"><path d="M 329.519531 246.234375 L 416.617188 220.753906 L 507.597656 531.714844 L 420.5 557.199219 Z M 329.519531 246.234375 " clip-rule="nonzero"/></clipPath><clipPath id="725a306dfb"><path d="M 329.519531 246.234375 L 416.617188 220.753906 L 507.597656 531.714844 L 420.5 557.199219 Z M 329.519531 246.234375 " clip-rule="nonzero"/></clipPath><clipPath id="5bd5335fe2"><path d="M 329.519531 246.234375 L 416.617188 220.753906 L 507.597656 531.714844 L 420.5 557.199219 Z M 329.519531 246.234375 " clip-rule="nonzero"/></clipPath><clipPath id="75d35d409d"><path d="M 410 346 L 480 346 L 480 540 L 410 540 Z M 410 346 " clip-rule="nonzero"/></clipPath><clipPath id="d80e361b60"><path d="M 329.519531 246.234375 L 416.617188 220.753906 L 507.597656 531.714844 L 420.5 557.199219 Z M 329.519531 246.234375 " clip-rule="nonzero"/></clipPath><clipPath id="2f16c06736"><path d="M 329.519531 246.234375 L 416.617188 220.753906 L 507.597656 531.714844 L 420.5 557.199219 Z M 329.519531 246.234375 " clip-rule="nonzero"/></clipPath><clipPath id="79151fdaba"><path d="M 329.519531 246.234375 L 416.617188 220.753906 L 507.597656 531.714844 L 420.5 557.199219 Z M 329.519531 246.234375 " clip-rule="nonzero"/></clipPath><clipPath id="9237789ca8"><path d="M 392 246 L 425 246 L 425 313 L 392 313 Z M 392 246 " clip-rule="nonzero"/></clipPath><clipPath id="02a6ca7d1a"><path d="M 329.519531 246.234375 L 416.617188 220.753906 L 507.597656 531.714844 L 420.5 557.199219 Z M 329.519531 246.234375 " clip-rule="nonzero"/></clipPath><clipPath id="97afb41b5b"><path d="M 329.519531 246.234375 L 416.617188 220.753906 L 507.597656 531.714844 L 420.5 557.199219 Z M 329.519531 246.234375 " clip-rule="nonzero"/></clipPath><clipPath id="ca110de78b"><path d="M 329.519531 246.234375 L 416.617188 220.753906 L 507.597656 531.714844 L 420.5 557.199219 Z M 329.519531 246.234375 " clip-rule="nonzero"/></clipPath></defs><g clip-path="url(#5ec5217dd1)"><g clip-path="url(#e8f97ca382)"><g clip-path="url(#725a306dfb)"><g clip-path="url(#5bd5335fe2)"><path fill="#000000" d="M 389.507812 231.367188 C 381.769531 230.972656 374.046875 233.445312 367.613281 237.683594 C 361.238281 241.871094 356.175781 247.753906 352.488281 254.390625 C 348.828125 260.96875 346.429688 268.285156 345.117188 275.675781 C 343.699219 283.6875 343.566406 292.023438 345.636719 299.9375 C 347.515625 307.105469 351.332031 313.550781 356.523438 318.808594 C 361.515625 323.867188 367.644531 327.804688 374.125 330.683594 C 387.753906 336.730469 405.484375 339.746094 418.269531 330.132812 C 424.113281 325.738281 428.289062 319.523438 430.722656 312.671875 C 433.351562 305.269531 433.84375 297.195312 433.144531 289.417969 C 431.664062 272.972656 425.472656 256.539062 415.367188 243.441406 C 411.121094 237.9375 405.824219 232.855469 399.0625 230.714844 C 391.308594 228.265625 383.289062 230.910156 376.714844 235.183594 C 370.398438 239.285156 364.726562 244.71875 360.035156 250.59375 C 355.34375 256.472656 351.53125 263.15625 349.367188 270.410156 C 347.167969 277.804688 346.726562 285.761719 348.378906 293.308594 C 350.121094 301.269531 354.507812 308.125 360.167969 313.898438 C 370.269531 324.191406 383.484375 331.449219 397.515625 334.722656 C 400.976562 335.527344 404.5 336.070312 408.042969 336.398438 L 406.535156 333.894531 C 405.0625 337.148438 403.984375 340.574219 403.449219 344.105469 C 403.160156 346.035156 403.324219 348.046875 405.339844 348.953125 C 406.886719 349.648438 408.890625 349.796875 410.558594 349.800781 C 413.9375 349.8125 417.546875 348.144531 418.507812 344.648438 C 419.246094 341.96875 417.730469 339.566406 415.65625 338.011719 C 414.507812 337.152344 413.257812 336.441406 412.089844 335.613281 C 411.941406 335.507812 411.800781 335.40625 411.5625 335.210938 C 411.292969 334.988281 411.023438 334.75 410.777344 334.492188 C 410.511719 334.21875 410.625 334.363281 410.390625 334.03125 C 410.3125 333.914062 410.246094 333.792969 410.164062 333.667969 C 410.121094 333.59375 410.082031 333.515625 410.039062 333.4375 C 410.097656 333.597656 410.089844 333.570312 410.011719 333.375 C 409.675781 332.527344 408.855469 331.953125 407.914062 332.226562 C 407.101562 332.464844 406.425781 333.46875 406.765625 334.324219 C 407.628906 336.484375 409.332031 337.847656 411.234375 339.089844 C 411.648438 339.363281 412.066406 339.628906 412.480469 339.894531 C 412.664062 340.007812 412.839844 340.128906 413.015625 340.246094 C 413.308594 340.445312 413.3125 340.445312 413.472656 340.566406 C 413.835938 340.839844 414.1875 341.136719 414.503906 341.464844 C 414.578125 341.546875 414.65625 341.625 414.730469 341.707031 C 414.679688 341.652344 414.566406 341.476562 414.753906 341.746094 C 414.894531 341.941406 415.019531 342.144531 415.132812 342.359375 C 415.253906 342.597656 415.050781 342.125 415.140625 342.382812 C 415.167969 342.484375 415.199219 342.589844 415.234375 342.6875 C 415.25 342.730469 415.320312 343.0625 415.289062 342.875 C 415.257812 342.671875 415.300781 343.070312 415.304688 343.09375 C 415.316406 343.554688 415.210938 343.96875 414.972656 344.386719 C 414.5 345.222656 413.613281 345.828125 412.738281 346.105469 C 411.410156 346.519531 409.964844 346.457031 408.605469 346.253906 C 408.144531 346.191406 407.132812 346.191406 406.757812 345.878906 C 406.578125 345.738281 406.671875 345.214844 406.722656 344.902344 C 407.207031 341.664062 408.136719 338.480469 409.492188 335.496094 C 410.050781 334.261719 409.285156 333.109375 407.984375 332.996094 C 394.542969 331.757812 381.375 326.648438 370.589844 318.519531 C 364.769531 314.132812 359.285156 308.894531 355.570312 302.566406 C 351.902344 296.328125 350.457031 289.070312 350.789062 281.882812 C 351.460938 267.5 359.457031 254.738281 369.707031 245.082031 C 375 240.09375 381.171875 235.261719 388.402344 233.609375 C 391.777344 232.835938 395.265625 232.988281 398.550781 234.09375 C 401.5 235.074219 404.171875 236.824219 406.511719 238.835938 C 411.882812 243.46875 415.925781 249.59375 419.324219 255.757812 C 423.167969 262.738281 426.039062 270.230469 427.871094 277.988281 C 431.195312 292.066406 431.585938 308.347656 422.84375 320.636719 C 418.914062 326.171875 413.296875 330.234375 406.699219 331.917969 C 399.558594 333.742188 391.960938 332.90625 384.933594 330.980469 C 372.199219 327.480469 359.566406 320.101562 352.757812 308.449219 C 345.175781 295.496094 346.535156 279.0625 351.277344 265.367188 C 356.015625 251.671875 365.351562 239.972656 379.292969 235.945312 C 382.636719 234.980469 386.082031 234.570312 389.554688 234.75 C 390.46875 234.796875 391.238281 233.902344 391.222656 233.027344 C 391.203125 232.066406 390.417969 231.410156 389.5 231.363281 Z M 389.507812 231.367188 " fill-opacity="1" fill-rule="nonzero"/></g></g></g></g><g clip-path="url(#75d35d409d)"><g clip-path="url(#d80e361b60)"><g clip-path="url(#2f16c06736)"><g clip-path="url(#79151fdaba)"><path fill="#000000" d="M 411.042969 348.683594 C 414.675781 354.320312 413.476562 361.472656 412.695312 367.75 C 411.851562 374.546875 411.289062 381.378906 411.160156 388.222656 C 410.914062 401.636719 412.328125 415.25 416.628906 428.015625 C 420.933594 440.78125 428.414062 451.875 436.574219 462.484375 C 440.617188 467.746094 444.773438 472.921875 448.691406 478.277344 C 452.707031 483.777344 456.40625 489.496094 459.703125 495.449219 C 466.386719 507.492188 471.464844 520.410156 474.792969 533.777344 C 475.203125 535.425781 475.585938 537.082031 475.941406 538.746094 C 476.40625 540.875 479.648438 539.914062 479.191406 537.796875 C 476.269531 524.277344 471.582031 511.175781 465.328125 498.84375 C 462.1875 492.664062 458.652344 486.691406 454.734375 480.976562 C 450.816406 475.261719 446.800781 470.171875 442.6875 464.890625 C 434.550781 454.445312 426.367188 443.777344 421.449219 431.375 C 416.472656 418.832031 414.574219 405.328125 414.503906 391.890625 C 414.46875 385.0625 414.894531 378.230469 415.628906 371.441406 C 416.347656 364.847656 417.894531 357.863281 415.953125 351.339844 C 415.488281 349.773438 414.796875 348.269531 413.910156 346.898438 C 412.738281 345.070312 409.847656 346.839844 411.027344 348.675781 Z M 411.042969 348.683594 " fill-opacity="1" fill-rule="nonzero"/></g></g></g></g><g clip-path="url(#9237789ca8)"><g clip-path="url(#02a6ca7d1a)"><g clip-path="url(#97afb41b5b)"><g clip-path="url(#ca110de78b)"><path fill="#000000" d="M 417.605469 310.1875 C 419.449219 301.089844 417.921875 291.675781 414.617188 283.089844 C 411.023438 273.765625 405.457031 265.417969 399.863281 257.199219 C 399.140625 256.140625 398.417969 255.078125 397.699219 254.019531 C 397.085938 253.121094 396.253906 252.175781 395.859375 251.15625 C 395.761719 250.902344 395.773438 250.617188 395.796875 250.566406 C 395.839844 250.484375 396.058594 250.308594 396.210938 250.253906 C 396.828125 250.019531 397.316406 250.109375 398.011719 250.558594 C 398.785156 251.0625 399.398438 251.835938 399.96875 252.554688 C 400.695312 253.46875 401.410156 254.398438 402.105469 255.335938 C 403.527344 257.257812 404.878906 259.222656 406.160156 261.242188 C 411.242188 269.265625 415.15625 278.003906 417.757812 287.140625 C 419.046875 291.675781 420.039062 296.308594 420.644531 300.984375 C 420.886719 302.816406 421.152344 304.871094 420.484375 306.648438 C 420.398438 306.867188 420.289062 307.085938 420.171875 307.285156 C 420.136719 307.34375 419.898438 307.703125 419.992188 307.589844 C 419.734375 307.925781 419.535156 308.09375 419.292969 308.246094 C 418.726562 308.613281 418.210938 308.808594 417.648438 308.832031 C 417.347656 308.84375 417.15625 308.828125 416.921875 308.734375 C 417.039062 308.785156 416.597656 308.546875 416.695312 308.613281 C 416.710938 308.621094 416.417969 308.351562 416.339844 308.265625 C 415.726562 307.585938 414.542969 307.707031 413.945312 308.332031 C 413.28125 309.039062 413.394531 310.042969 414.011719 310.726562 C 415.375 312.226562 417.613281 312.53125 419.480469 311.894531 C 421.605469 311.164062 423.046875 309.5625 423.761719 307.457031 C 424.472656 305.351562 424.292969 302.988281 424 300.796875 C 423.65625 298.1875 423.21875 295.589844 422.679688 293.015625 C 420.554688 282.882812 416.832031 273.078125 411.765625 264.050781 C 409.265625 259.597656 406.425781 255.34375 403.277344 251.328125 C 401.835938 249.492188 400.230469 247.308594 397.769531 246.847656 C 395.617188 246.445312 392.972656 247.554688 392.472656 249.863281 C 392.171875 251.261719 392.699219 252.589844 393.4375 253.753906 C 394.179688 254.917969 394.90625 255.933594 395.644531 257.019531 C 397.175781 259.265625 398.707031 261.5 400.207031 263.765625 C 403.203125 268.269531 406.089844 272.875 408.53125 277.707031 C 412.917969 286.394531 415.808594 296.171875 414.847656 305.984375 C 414.734375 307.121094 414.546875 308.25 414.320312 309.367188 C 413.882812 311.5 417.171875 312.320312 417.601562 310.1875 Z M 417.605469 310.1875 " fill-opacity="1" fill-rule="nonzero"/></g></g></g></g></svg>