<svg xmlns="http://www.w3.org/2000/svg" xmlns:xlink="http://www.w3.org/1999/xlink" width="1080" zoomAndPan="magnify" viewBox="0 0 810 809.999993" height="1080" preserveAspectRatio="xMidYMid meet" version="1.0"><defs><clipPath id="2e1b820239"><path d="M 361 408 L 432 408 L 432 473 L 361 473 Z M 361 408 " clip-rule="nonzero"/></clipPath><clipPath id="820c018120"><path d="M 355.957031 240.820312 L 539.703125 299.054688 L 454.050781 569.304688 L 270.308594 511.074219 Z M 355.957031 240.820312 " clip-rule="nonzero"/></clipPath><clipPath id="7efbe644c1"><path d="M 355.957031 240.820312 L 539.703125 299.054688 L 454.050781 569.304688 L 270.308594 511.074219 Z M 355.957031 240.820312 " clip-rule="nonzero"/></clipPath><clipPath id="1e52d48d39"><path d="M 355.957031 240.820312 L 539.703125 299.054688 L 454.050781 569.304688 L 270.308594 511.074219 Z M 355.957031 240.820312 " clip-rule="nonzero"/></clipPath><clipPath id="c5d09666d0"><path d="M 271 277 L 512 277 L 512 553 L 271 553 Z M 271 277 " clip-rule="nonzero"/></clipPath><clipPath id="b071043710"><path d="M 355.957031 240.820312 L 539.703125 299.054688 L 454.050781 569.304688 L 270.308594 511.074219 Z M 355.957031 240.820312 " clip-rule="nonzero"/></clipPath><clipPath id="a60be58fc6"><path d="M 355.957031 240.820312 L 539.703125 299.054688 L 454.050781 569.304688 L 270.308594 511.074219 Z M 355.957031 240.820312 " clip-rule="nonzero"/></clipPath><clipPath id="f97d557724"><path d="M 355.957031 240.820312 L 539.703125 299.054688 L 454.050781 569.304688 L 270.308594 511.074219 Z M 355.957031 240.820312 " clip-rule="nonzero"/></clipPath></defs><g clip-path="url(#2e1b820239)"><g clip-path="url(#820c018120)"><g clip-path="url(#7efbe644c1)"><g clip-path="url(#1e52d48d39)"><path fill="#000000" d="M 404.246094 426.195312 C 403.402344 427.496094 403.011719 428.730469 404.550781 430.773438 C 408.707031 436.121094 404.515625 442.851562 397.339844 442.597656 C 394.125 442.472656 390.816406 441.980469 387.960938 440.070312 C 384.671875 437.796875 382.320312 435.707031 385.496094 432.460938 C 388.492188 429.488281 388.148438 425.105469 389.4375 421.390625 C 391.019531 416.40625 398.898438 415.546875 403.644531 419.625 C 405.992188 421.703125 405.121094 423.769531 404.246094 426.195312 Z M 394.574219 438.929688 C 398.21875 440.085938 400.042969 438.425781 401.535156 436.453125 C 403.332031 434.21875 400.308594 432.476562 399.347656 430.722656 C 399.085938 430.1875 396.625 430.082031 396.824219 431.152344 C 397.398438 434.46875 394.917969 433.472656 393.03125 432.875 C 391.554688 432.40625 390.570312 432.09375 389.953125 433.351562 C 389.371094 434.511719 389.441406 435.652344 390.953125 436.695312 C 392.121094 437.46875 393.40625 438.195312 394.578125 438.917969 Z M 396.125 426.878906 C 398.871094 426.742188 400.507812 425.695312 401.265625 423.582031 C 401.980469 421.683594 400.378906 420.835938 398.496094 420.363281 C 396.621094 419.769531 393.917969 420.03125 394.207031 421.238281 C 394.730469 423.066406 393.59375 425.28125 396.128906 426.871094 Z M 382.113281 448.527344 C 385.320312 451.335938 389.757812 451.402344 394.480469 451.550781 C 399.847656 451.683594 401.800781 455.441406 399.117188 459.066406 C 398.335938 460.164062 397.554688 461.261719 396.085938 461.804688 C 391.429688 463.574219 388.3125 466.503906 386.597656 470.554688 C 386.496094 470.871094 386.34375 471.160156 386.132812 471.417969 C 385.917969 471.671875 385.667969 471.882812 385.375 472.039062 C 385.082031 472.199219 384.769531 472.292969 384.4375 472.332031 C 384.105469 472.367188 383.78125 472.335938 383.460938 472.246094 C 381.59375 471.988281 381.160156 470.621094 380.761719 469.488281 C 379.601562 466.316406 379.027344 463.339844 375.476562 460.535156 C 372.449219 458.117188 370.824219 454.019531 372.839844 450.738281 C 374.320312 448.175781 377.457031 447.152344 382.117188 448.515625 Z M 382.605469 454.84375 C 384.25 453.347656 383.996094 452.148438 381.40625 451.773438 C 380.277344 451.644531 378.75 450.265625 377.867188 451.324219 C 377.578125 451.671875 377.355469 452.058594 377.195312 452.480469 C 377.03125 452.902344 376.945312 453.335938 376.929688 453.789062 C 376.914062 454.238281 376.972656 454.679688 377.105469 455.113281 C 377.234375 455.546875 377.433594 455.945312 377.699219 456.308594 C 379.378906 458.859375 381.390625 461.402344 383.070312 463.945312 C 384.03125 465.375 385.078125 465.480469 385.960938 464.417969 C 387.894531 462.003906 390.5625 460.496094 393.628906 459.347656 C 395.105469 458.808594 395.722656 457.546875 394.464844 456.027344 C 393.207031 454.511719 391.609375 454.453125 390.113281 454.984375 C 388.761719 455.5625 387.699219 456.460938 386.425781 457.0625 C 385.894531 457.308594 385.335938 457.410156 384.753906 457.367188 C 384.167969 457.320312 383.632812 457.132812 383.144531 456.808594 C 382.148438 456.28125 382.050781 455.554688 382.605469 454.835938 Z M 364.628906 437.050781 C 362.917969 435.28125 361.367188 433.675781 361.980469 431.738281 C 363.175781 427.972656 362.863281 423.824219 364.828125 420.351562 C 365.382812 419.410156 365.738281 418.398438 365.898438 417.320312 C 366.054688 416.238281 366.003906 415.167969 365.742188 414.109375 C 365.363281 412.492188 365.5625 410.949219 366.34375 409.484375 C 366.734375 408.601562 367.222656 407.742188 368.632812 408.078125 C 368.933594 408.128906 369.21875 408.230469 369.480469 408.382812 C 369.746094 408.539062 369.976562 408.734375 370.171875 408.96875 C 370.363281 409.207031 370.511719 409.46875 370.609375 409.761719 C 370.707031 410.050781 370.75 410.347656 370.742188 410.652344 C 370.574219 412.636719 370.3125 414.605469 369.953125 416.558594 C 369.664062 418.480469 369.839844 420.328125 372.957031 421.09375 C 375.972656 421.828125 377.144531 420.519531 377.808594 418.710938 C 378.46875 416.902344 379 414.949219 379.578125 413.117188 C 380 411.792969 380.875 410.390625 382.75 410.984375 C 385.140625 411.628906 383.96875 413.277344 383.617188 414.394531 C 381.808594 420.429688 379.316406 426.246094 378.207031 432.5 C 377.984375 433.882812 377.300781 435.683594 375.003906 435.066406 C 372.613281 434.421875 373.292969 432.625 373.414062 431.203125 C 373.570312 430.359375 374.355469 429.601562 374.453125 428.609375 C 374.542969 426.957031 376.742188 425.074219 372.367188 423.914062 C 368.761719 422.996094 367.789062 423.582031 367.367188 426.363281 C 367.121094 429.867188 367.003906 433.648438 364.628906 437.042969 Z M 430.179688 434.191406 C 427.875 430.535156 424.777344 427.328125 421.9375 423.972656 C 419.960938 421.664062 417.273438 421.265625 415.476562 423.160156 C 414.167969 424.597656 412.925781 425.066406 411.402344 424.332031 C 411.578125 424.488281 411.632812 424.679688 411.566406 424.902344 L 409.789062 430.515625 C 410.574219 430.6875 410.734375 429.964844 411 429.445312 C 411.390625 428.898438 410.859375 427.835938 412.597656 427.824219 C 411.144531 432.738281 405.792969 436.640625 409.164062 442.746094 C 411.460938 442.6875 411.765625 439.316406 413.453125 441.179688 C 415.824219 443.609375 418.707031 443.066406 421.230469 443.976562 C 424.253906 445.046875 427.390625 445.035156 429.441406 442.664062 C 431.539062 440.222656 432.378906 437.574219 430.179688 434.191406 Z M 425.824219 441.097656 C 423.175781 442.269531 415.46875 440.28125 415.320312 438.351562 C 415.246094 435.527344 416.34375 432.742188 417.214844 429.996094 C 417.601562 428.769531 418.675781 427.769531 419.910156 425.921875 C 421.304688 430.0625 424.863281 432.171875 426.703125 435.242188 C 428.246094 437.609375 428.753906 439.785156 425.839844 441.101562 Z M 425.824219 441.097656 " fill-opacity="1" fill-rule="nonzero"/></g></g></g></g><g clip-path="url(#c5d09666d0)"><g clip-path="url(#b071043710)"><g clip-path="url(#a60be58fc6)"><g clip-path="url(#f97d557724)"><path fill="#000000" d="M 334.445312 380.886719 C 333.496094 378.34375 330.578125 379.078125 328.761719 377.628906 C 331.175781 375.144531 333.808594 377.769531 336.238281 378.320312 C 337.046875 376.449219 335.953125 374.085938 338.238281 372.683594 C 339.78125 373.617188 339.207031 376.796875 342.511719 375.601562 C 343 375.421875 343.976562 376.515625 343.433594 376.792969 C 341.113281 378.316406 340.503906 379.882812 343.417969 381.976562 C 342.570312 382.601562 343.886719 384.585938 341.753906 384.132812 C 339.101562 383.625 337.730469 384.539062 336.128906 385.820312 C 335.382812 386.480469 334.210938 388.460938 333.027344 387.078125 C 331.757812 385.554688 329.242188 383.972656 329.070312 382.800781 C 329.097656 380.660156 332.484375 381.617188 334.445312 380.886719 Z M 498.265625 427.539062 C 500.984375 420.003906 503.433594 412.265625 505.460938 404.511719 C 507.800781 395.402344 509.539062 386.097656 511.28125 376.90625 C 511.414062 376.164062 511.570312 375.320312 511.242188 374.660156 C 510.773438 373.726562 509.757812 373.515625 508.871094 373.234375 C 486.371094 368.019531 463.773438 363.109375 441.078125 358.503906 C 440.257812 358.355469 439.242188 358.144531 438.71875 357.414062 C 438.125 356.558594 438.316406 355.273438 438.636719 354.257812 C 445.328125 330.066406 452.011719 305.90625 458.679688 281.785156 C 460.804688 274.050781 451.851562 279.40625 448.949219 280.695312 C 443.625 283.152344 438.226562 285.492188 432.835938 287.796875 C 421.6875 292.550781 410.476562 297.167969 399.164062 301.421875 C 377.324219 309.839844 355.09375 317.457031 332.777344 324.273438 C 330.523438 324.902344 322.523438 362.789062 317.257812 377.6875 C 302.402344 420.121094 287.523438 462.511719 272.621094 504.847656 C 271.726562 507.359375 271.320312 511.042969 273.714844 512.035156 C 274.664062 512.449219 275.75 512.09375 276.757812 511.992188 C 284.382812 510.488281 292.21875 512.078125 299.730469 513.671875 C 321.070312 518.097656 342.386719 522.605469 363.738281 527.019531 C 366.878906 525.996094 370.316406 526.761719 373.519531 527.542969 L 418.285156 538.707031 C 422.910156 539.839844 428.21875 540.847656 432.230469 543.574219 C 435.910156 545.972656 449.246094 548.96875 456.253906 552.195312 C 458.914062 553.375 459.09375 546.933594 459.71875 544 C 464.511719 521.375 470.949219 499.226562 479.023438 477.554688 C 485.195312 460.585938 492.320312 444.257812 498.265625 427.539062 Z M 342.789062 326.882812 C 346.390625 323.773438 350.597656 321.050781 355.738281 320.128906 C 366.113281 318.148438 374.605469 313.566406 383.925781 310.140625 C 394.871094 306.003906 405.035156 300.59375 416.554688 297.414062 C 421.882812 295.972656 425.46875 292.515625 430.707031 291.363281 C 439.3125 289.5 444.953125 283.671875 454.242188 281.355469 C 453.042969 288.777344 451.113281 296.003906 448.453125 303.035156 C 444.804688 312.851562 442.925781 323.226562 440.355469 333.386719 C 438.585938 340.328125 436 347.121094 433.808594 354.039062 C 433.195312 355.976562 431.488281 356.230469 429.28125 355.40625 C 421.082031 352.226562 412.519531 350.539062 404.152344 348.226562 C 391.886719 344.894531 380.066406 339.8125 367.445312 337.601562 C 363.6875 336.894531 360.101562 335.683594 356.683594 333.96875 C 352.742188 332.046875 348.667969 330.195312 344.148438 329.765625 C 343.199219 329.695312 342.011719 329.675781 341.550781 328.722656 C 340.855469 327.507812 342.203125 327.371094 342.789062 326.882812 Z M 346.222656 332.453125 L 347.109375 332.734375 C 347.222656 332.765625 347.308594 332.832031 347.371094 332.929688 C 348.027344 333.25 348.683594 333.566406 349.4375 333.917969 C 352.519531 335.480469 355.496094 336.957031 358.667969 338.300781 L 364.066406 340.011719 C 365.011719 340.316406 365.824219 340.835938 366.5 341.566406 C 369.949219 342.996094 373.417969 344.34375 377.035156 345.578125 C 385.867188 348.824219 395.117188 350.726562 404.203125 353.851562 C 403.941406 354.511719 403.519531 355.042969 402.9375 355.449219 C 402.355469 355.855469 401.710938 356.066406 401.003906 356.082031 C 394.628906 356.070312 391.746094 359.757812 389.058594 363.382812 C 385.484375 368.183594 383.148438 373.496094 382.800781 379.429688 C 382.53125 384.382812 379.441406 388.3125 375.195312 390.789062 C 371.175781 393.214844 365.082031 392.265625 359.933594 392.113281 C 349.910156 391.621094 340.609375 392.257812 331.691406 395.453125 C 324.34375 398.074219 320.898438 403.476562 316.710938 408.195312 C 314.367188 410.8125 311.296875 412.636719 309.3125 415.476562 C 310.261719 409.398438 313.347656 404.105469 315.824219 398.621094 C 318.613281 392.660156 320.820312 386.492188 322.445312 380.113281 C 324.757812 371.109375 327.496094 362.125 330.105469 353.207031 C 331.492188 348.496094 331.53125 343.582031 333.011719 338.914062 C 335.242188 331.882812 339.003906 329.605469 346.222656 332.453125 Z M 431.617188 539.761719 C 417.152344 534.632812 402.371094 530.695312 387.269531 527.945312 C 379.074219 526.464844 371.6875 522.785156 363.195312 521.546875 C 364.984375 518.640625 367.433594 516.730469 370.203125 515.148438 C 374.84375 512.472656 379.316406 509.636719 384.175781 507.285156 C 388.164062 505.300781 391.464844 503.101562 397.96875 504.378906 C 409.84375 506.570312 419.117188 501.898438 426.421875 494.917969 C 430.007812 491.464844 433.101562 487.523438 436.753906 484.195312 C 442.410156 479.269531 451.003906 477.851562 459.519531 477.300781 C 462.167969 477.136719 464.828125 477.644531 465.234375 480.792969 C 465.394531 481.550781 465.785156 482.164062 466.410156 482.621094 C 474.484375 485.855469 470.414062 490.5 469.222656 493.929688 C 468.089844 497.152344 466.371094 500.191406 465.402344 503.574219 C 466.769531 508.824219 463.128906 512.804688 462.066406 517.523438 C 460.171875 525.546875 457.757812 533.515625 455.339844 541.480469 C 454.726562 543.414062 452.445312 544.816406 453.699219 547.34375 C 451.5625 547.226562 436.402344 541.410156 431.613281 539.78125 Z M 490.707031 434.3125 C 486.085938 446.847656 480.96875 459.222656 476.410156 471.917969 C 475.4375 474.628906 473.289062 476.632812 472.796875 479.613281 C 472.449219 482.078125 469.429688 480.675781 468.765625 479.007812 C 467.007812 474.644531 463.367188 473.488281 459.171875 474.066406 C 448.929688 475.296875 437.824219 475.8125 432.003906 483.597656 C 428.457031 488.296875 424.1875 492.203125 419.351562 495.828125 C 413.511719 500.242188 406.84375 502.835938 397.925781 500.90625 C 391.625 499.582031 386.886719 501.882812 382.019531 504.261719 C 373.203125 508.488281 365.757812 514.222656 357.328125 518.941406 C 354.8125 520.378906 352.460938 520.640625 349.378906 520.449219 C 343.109375 520.011719 336.96875 518.882812 330.953125 517.074219 C 324.039062 514.882812 317.1875 515.050781 310.328125 513.113281 C 300.390625 510.300781 290.300781 508 280.085938 505.65625 C 281.957031 505.578125 277.613281 501.847656 279.0625 497.609375 C 281.226562 491.464844 289.648438 472.074219 291.003906 468.136719 C 295.75 454.523438 300.496094 440.914062 304.589844 426.984375 C 305.457031 423.898438 306.722656 421.613281 310.582031 420.035156 C 314.308594 418.527344 316.648438 414.90625 319.382812 412.078125 C 321.699219 409.566406 323.550781 406.792969 325.667969 404.214844 C 332.820312 395.585938 344.125 393.703125 356.496094 395.390625 C 373.933594 397.777344 383.574219 393.332031 386.71875 379.664062 C 387.644531 375.703125 388.480469 371.707031 390.425781 367.964844 C 393.246094 362.480469 398.667969 359.382812 405.175781 357.300781 C 406.382812 356.898438 407.523438 355.703125 409.136719 356.765625 L 409.238281 356.796875 C 409.363281 356.726562 409.496094 356.65625 409.628906 356.582031 C 409.878906 356.574219 410.132812 356.578125 410.382812 356.597656 C 410.511719 356.527344 410.574219 356.324219 410.769531 356.386719 C 411.757812 356.230469 412.753906 356.171875 413.753906 356.210938 C 413.523438 355.914062 413.71875 355.304688 414.144531 355.328125 C 414.46875 355.320312 414.765625 355.414062 415.089844 355.40625 C 415.835938 355.046875 416.621094 354.847656 417.445312 354.804688 C 418.402344 354.8125 419.308594 355.023438 420.167969 355.445312 L 421.054688 355.726562 C 426.273438 358.386719 432.113281 358.785156 437.566406 360.375 C 443.695312 362.207031 450.117188 362.449219 456.351562 364.316406 C 462.386719 366.117188 468.546875 366.835938 474.714844 367.894531 C 483.925781 369.582031 493.042969 371.578125 502.257812 373.605469 C 504.191406 373.988281 505.476562 375.066406 505.425781 376.949219 C 505.320312 383.070312 504.402344 389.046875 503.382812 394.996094 C 501.417969 409.070312 495.417969 421.5 490.699219 434.335938 Z M 408.246094 512 C 412.035156 509.28125 416.199219 510.15625 420.785156 513.046875 C 416.804688 509.878906 420.757812 509.453125 421.839844 508.003906 C 422.230469 507.457031 423.097656 507.730469 423.5 508.308594 C 424.59375 509.660156 424.082031 512.636719 427.839844 511.027344 C 428.203125 510.917969 428.929688 512.042969 428.613281 512.28125 C 424.953125 513.917969 427.753906 517.378906 426.6875 519.726562 C 426.261719 520.71875 426.007812 522.203125 424.265625 520.867188 C 422.492188 519.632812 422.691406 520.703125 422.140625 521.425781 C 421.257812 522.492188 420.1875 524.5 418.925781 521.300781 C 418.28125 519.640625 417.832031 521.066406 417.519531 521.304688 C 416.445312 521.972656 415.3125 522.730469 413.855469 522.609375 C 413.21875 522.5 412.652344 522.242188 412.148438 521.839844 C 411.65625 521.347656 412.015625 520.902344 412.667969 520.550781 C 415.050781 519.511719 416.425781 518.605469 416.246094 515.414062 C 416.035156 512.660156 414.792969 512.488281 413.082031 512.070312 C 411.472656 511.675781 409.785156 511.925781 408.246094 512 Z M 465.367188 503.339844 C 464.945312 503.992188 464.25 504.113281 463.382812 504.058594 C 459.648438 503.882812 456.472656 504.332031 456.921875 508.054688 C 451.730469 505.292969 449.460938 509.722656 444.578125 509.746094 C 448.292969 505.542969 454.433594 502.230469 447.65625 495.9375 C 450.011719 495.339844 452.015625 497.90625 453.386719 495.628906 C 453.84375 494.875 455.082031 495.828125 455.164062 496.859375 C 455.246094 497.890625 455.265625 498.910156 455.273438 499.921875 C 456.886719 500.652344 459.910156 496.574219 459.804688 501.691406 C 459.777344 503.140625 463.617188 502.3125 465.351562 503.335938 Z M 364.160156 357.53125 C 362.824219 359.011719 362.015625 358.757812 361.21875 358.613281 C 354.828125 357.933594 353.816406 358.730469 353.546875 364.019531 C 353.519531 364.792969 353.851562 365.796875 352.707031 365.992188 C 351.6875 366.121094 351.292969 365.324219 351.0625 364.6875 C 350.730469 363.355469 350.332031 362.890625 349.289062 364.125 C 349.144531 364.3125 348.972656 364.464844 348.769531 364.582031 C 348.566406 364.699219 348.347656 364.773438 348.113281 364.804688 C 347.882812 364.835938 347.652344 364.820312 347.425781 364.761719 C 347.199219 364.703125 346.992188 364.601562 346.800781 364.460938 C 345.691406 363.523438 346.992188 363.175781 347.511719 362.554688 C 348.488281 361.519531 349.535156 360.621094 346.65625 359.710938 C 345.476562 359.335938 343.605469 358.410156 344.058594 356.984375 C 344.410156 355.527344 346.113281 356.292969 347.359375 356.464844 C 349.429688 356.78125 349.785156 355.664062 349.796875 354.308594 C 349.8125 352.957031 349.539062 351.429688 350.558594 350.1875 C 353.191406 351.804688 351.757812 353.925781 353.210938 355.839844 C 357.246094 352.292969 359.746094 358.125 364.160156 357.53125 Z M 388.753906 356.144531 C 385.351562 356.636719 382.339844 357.582031 379.859375 359.261719 C 379.296875 359.667969 377.863281 359.746094 377.992188 359.34375 C 379.292969 356.953125 372.6875 359 375.21875 356.125 C 375.542969 355.765625 375.730469 355.347656 375.78125 354.871094 C 375.835938 354.394531 375.742188 353.945312 375.503906 353.527344 C 375.007812 352.359375 371.824219 351.125 374.339844 350.019531 C 376.757812 348.886719 381.191406 350.957031 381.695312 353.46875 C 381.929688 354.78125 382.714844 354.6875 383.570312 354.738281 C 385.28125 354.800781 387.179688 354.617188 388.761719 356.125 Z M 388.753906 356.144531 " fill-opacity="1" fill-rule="nonzero"/></g></g></g></g></svg>