<svg xmlns="http://www.w3.org/2000/svg" xmlns:xlink="http://www.w3.org/1999/xlink" width="1080" zoomAndPan="magnify" viewBox="0 0 810 809.999993" height="1080" preserveAspectRatio="xMidYMid meet" version="1.0"><defs><clipPath id="25f3e55df6"><path d="M 206 219.554688 L 617 219.554688 L 617 411 L 206 411 Z M 206 219.554688 " clip-rule="nonzero"/></clipPath><clipPath id="839e4ab254"><path d="M 124.632812 379 L 525 379 L 525 529 L 124.632812 529 Z M 124.632812 379 " clip-rule="nonzero"/></clipPath><clipPath id="9b69d38990"><path d="M 514 435 L 685.632812 435 L 685.632812 590.804688 L 514 590.804688 Z M 514 435 " clip-rule="nonzero"/></clipPath></defs><g clip-path="url(#25f3e55df6)"><path fill="#000000" d="M 283.554688 340.835938 C 282.597656 340.957031 281.703125 341.015625 280.867188 341.015625 C 276.445312 341.015625 272.746094 339.550781 269.757812 336.625 C 266.773438 333.699219 264.476562 329.789062 262.863281 324.894531 C 261.25 319.996094 260.175781 314.621094 259.636719 308.769531 C 259.101562 302.917969 258.710938 297.601562 258.472656 292.824219 C 251.546875 293.0625 245.394531 293.242188 240.023438 293.363281 C 236.796875 293.484375 233.8125 293.601562 231.0625 293.722656 C 228.316406 293.839844 225.988281 293.898438 224.074219 293.898438 L 221.210938 294.078125 C 221.210938 294.4375 221.242188 295.601562 221.300781 297.574219 C 221.359375 299.542969 221.417969 301.902344 221.480469 304.648438 C 221.539062 307.398438 221.628906 310.351562 221.75 313.515625 C 221.867188 316.679688 221.925781 319.636719 221.925781 322.382812 C 221.925781 325.132812 221.867188 327.460938 221.75 329.371094 C 221.628906 331.28125 221.449219 332.355469 221.210938 332.59375 C 220.851562 334.03125 220.074219 335.222656 218.882812 336.179688 C 217.6875 337.132812 216.730469 337.640625 216.015625 337.699219 C 215.300781 337.761719 214.878906 337.792969 214.761719 337.792969 C 213.566406 337.792969 212.460938 337.34375 211.445312 336.449219 C 210.433594 335.550781 209.863281 333.851562 209.746094 331.34375 C 209.507812 322.382812 209.238281 312.621094 208.9375 302.050781 C 208.640625 291.480469 208.34375 281.238281 208.042969 271.328125 C 207.746094 261.414062 207.445312 252.277344 207.148438 243.917969 C 206.847656 235.558594 206.640625 228.988281 206.519531 224.210938 C 206.519531 223.015625 207.027344 222.03125 208.042969 221.257812 C 209.058594 220.480469 210.015625 220 210.910156 219.820312 C 211.804688 219.644531 212.550781 219.554688 213.148438 219.554688 C 213.863281 219.554688 214.699219 219.703125 215.65625 220 C 216.613281 220.300781 217.269531 221.046875 217.625 222.242188 C 217.746094 222.839844 217.925781 224.867188 218.164062 228.332031 C 218.402344 231.796875 218.644531 235.945312 218.882812 240.78125 C 219.121094 245.621094 219.390625 250.757812 219.6875 256.191406 C 219.984375 261.625 220.226562 266.671875 220.40625 271.328125 C 220.582031 275.988281 220.761719 279.867188 220.941406 282.972656 C 221.121094 286.078125 221.210938 287.691406 221.210938 287.808594 C 221.328125 287.929688 222.285156 287.988281 224.074219 287.988281 C 225.867188 287.988281 228.136719 287.957031 230.886719 287.898438 C 233.632812 287.839844 236.585938 287.75 239.753906 287.628906 C 242.917969 287.507812 245.875 287.390625 248.621094 287.273438 C 251.367188 287.152344 253.695312 287.035156 255.605469 286.914062 C 257.519531 286.792969 258.535156 286.734375 258.652344 286.734375 C 258.652344 284.226562 258.652344 280.285156 258.652344 274.910156 C 258.652344 269.535156 258.773438 263.742188 259.007812 257.535156 C 259.25 251.324219 259.636719 245.320312 260.175781 239.53125 C 260.714844 233.734375 261.519531 229.167969 262.59375 225.824219 C 263.070312 224.628906 263.9375 223.644531 265.191406 222.867188 C 266.445312 222.09375 267.460938 221.671875 268.238281 221.613281 C 269.011719 221.554688 269.460938 221.523438 269.582031 221.523438 C 270.65625 221.523438 271.550781 221.824219 272.269531 222.421875 C 272.984375 223.015625 273.34375 223.914062 273.34375 225.109375 L 273.34375 226.183594 C 272.984375 229.167969 272.535156 233.914062 272 240.425781 C 271.460938 246.933594 271.074219 253.472656 270.832031 260.039062 C 270.597656 266.609375 270.476562 272.460938 270.476562 277.597656 C 270.476562 280.824219 270.535156 285.359375 270.65625 291.210938 C 270.773438 297.066406 271.3125 303.515625 272.269531 310.558594 C 273.222656 317.609375 274.628906 323.339844 276.476562 327.757812 C 278.328125 332.179688 280.746094 334.386719 283.730469 334.386719 L 283.910156 334.386719 C 286.300781 334.386719 288.332031 332.835938 290.003906 329.730469 C 291.675781 326.625 293.105469 322.863281 294.304688 318.445312 C 295.496094 314.023438 296.480469 309.308594 297.257812 304.289062 C 298.035156 299.273438 298.601562 294.796875 298.960938 290.855469 C 299.199219 290.136719 299.675781 289.539062 300.394531 289.0625 C 301.109375 288.585938 301.707031 288.316406 302.183594 288.257812 C 302.664062 288.199219 303.019531 288.167969 303.257812 288.167969 C 303.738281 288.167969 304.246094 288.316406 304.78125 288.617188 C 305.320312 288.914062 305.589844 289.601562 305.589844 290.675781 C 305.109375 297.003906 304.394531 303.09375 303.4375 308.949219 C 302.484375 314.800781 301.167969 320.027344 299.496094 324.625 C 297.824219 329.222656 295.707031 332.984375 293.136719 335.910156 C 290.570312 338.835938 287.375 340.480469 283.554688 340.835938 Z M 378.859375 289.960938 C 378.859375 289.359375 379.21875 288.886719 379.933594 288.523438 C 380.652344 288.167969 381.246094 287.957031 381.726562 287.898438 C 382.203125 287.839844 382.503906 287.808594 382.621094 287.808594 C 383.339844 287.808594 383.964844 287.988281 384.5 288.347656 C 385.039062 288.707031 385.308594 289.183594 385.308594 289.78125 L 385.308594 290.136719 C 385.1875 293.601562 384.832031 297.988281 384.234375 303.304688 C 383.636719 308.621094 382.472656 313.726562 380.738281 318.621094 C 379.007812 323.519531 376.53125 327.730469 373.304688 331.25 C 370.082031 334.773438 365.839844 336.539062 360.585938 336.539062 C 357.722656 336.539062 355.0625 335.910156 352.613281 334.65625 C 350.167969 333.402344 348.078125 331.789062 346.34375 329.820312 C 344.613281 327.847656 343.269531 325.699219 342.3125 323.371094 C 341.359375 321.039062 340.878906 318.800781 340.878906 316.652344 L 340.878906 316.292969 C 340.761719 316.292969 340.640625 316.472656 340.523438 316.832031 C 340.402344 317.1875 339.863281 318.144531 338.910156 319.695312 C 335.445312 326.625 331.625 331.371094 327.445312 333.9375 C 323.261719 336.507812 319.144531 337.792969 315.082031 337.792969 C 313.769531 337.792969 312.457031 337.671875 311.140625 337.433594 C 307.441406 336.835938 304.394531 334.835938 302.003906 331.429688 C 299.617188 328.027344 297.972656 324.207031 297.078125 319.964844 C 296.183594 315.726562 295.734375 311.515625 295.734375 307.335938 C 295.734375 305.902344 295.855469 303.363281 296.09375 299.722656 C 296.332031 296.078125 297.257812 291.511719 298.871094 286.019531 C 300.484375 280.523438 302.722656 275.476562 305.589844 270.878906 C 308.453125 266.28125 311.976562 262.789062 316.15625 260.402344 C 320.695312 257.652344 325.355469 256.277344 330.132812 256.277344 C 330.609375 256.277344 332.25 256.371094 335.058594 256.546875 C 337.863281 256.726562 340.761719 258.308594 343.746094 261.296875 C 344.34375 261.773438 344.910156 262.460938 345.449219 263.355469 C 345.984375 264.25 346.492188 265.175781 346.972656 266.132812 C 347.449219 267.085938 347.867188 267.953125 348.222656 268.730469 C 348.585938 269.503906 348.761719 270.011719 348.761719 270.253906 C 348.761719 270.730469 348.851562 271 349.03125 271.058594 C 349.210938 271.117188 349.777344 271.148438 350.734375 271.148438 C 351.925781 271.148438 352.855469 271.328125 353.511719 271.6875 C 354.167969 272.042969 354.613281 272.640625 354.855469 273.476562 C 355.09375 274.3125 355.210938 275.269531 355.210938 276.34375 C 355.210938 276.820312 355.179688 277.65625 355.121094 278.851562 C 355.0625 280.046875 354.914062 282.136719 354.671875 285.121094 C 354.199219 290.734375 353.898438 295.183594 353.777344 298.46875 C 353.660156 301.75 353.597656 304.171875 353.597656 305.722656 C 353.597656 308.828125 353.75 312.023438 354.046875 315.308594 C 354.347656 318.59375 355.035156 321.546875 356.109375 324.175781 C 357.183594 326.804688 358.675781 328.59375 360.585938 329.550781 C 361.542969 330.027344 362.4375 330.269531 363.273438 330.269531 C 364.945312 330.269531 366.675781 329.132812 368.46875 326.863281 C 370.257812 324.59375 371.902344 321.21875 373.394531 316.742188 C 374.890625 312.261719 376.082031 307.484375 376.976562 302.410156 C 377.875 297.332031 378.5 293.183594 378.859375 289.960938 Z M 341.773438 281.179688 C 342.015625 280.34375 342.136719 279.390625 342.136719 278.3125 C 342.136719 277.476562 342.015625 276.34375 341.773438 274.910156 C 341.539062 273.476562 340.910156 271.804688 339.894531 269.894531 C 338.878906 267.984375 337.683594 266.3125 336.3125 264.878906 C 334.9375 263.445312 333.476562 262.609375 331.921875 262.371094 C 327.503906 263.683594 323.769531 266.34375 320.726562 270.34375 C 317.679688 274.34375 315.261719 278.972656 313.472656 284.226562 C 311.679688 289.480469 310.605469 294.167969 310.246094 298.289062 C 309.886719 302.410156 309.707031 305.664062 309.707031 308.054688 C 309.707031 311.039062 309.949219 314.382812 310.425781 318.085938 C 310.902344 321.785156 311.949219 325.101562 313.558594 328.027344 C 315.171875 330.953125 317.171875 332.417969 319.5625 332.417969 L 320.101562 332.417969 C 322.605469 331.222656 324.996094 329.101562 327.265625 326.058594 C 329.535156 323.011719 331.5625 319.609375 333.355469 315.84375 C 335.148438 312.082031 336.609375 308.234375 337.746094 304.289062 C 338.878906 300.347656 339.566406 296.886719 339.804688 293.898438 C 339.804688 291.390625 340.015625 289.003906 340.433594 286.734375 C 340.851562 284.464844 341.300781 282.613281 341.773438 281.179688 Z M 457.863281 289.0625 C 458.21875 288.945312 458.519531 288.886719 458.757812 288.886719 C 459.117188 288.886719 459.445312 289.0625 459.742188 289.421875 C 460.042969 289.78125 460.222656 290.136719 460.28125 290.496094 C 460.339844 290.855469 460.371094 291.09375 460.371094 291.210938 C 460.371094 291.691406 460.25 292.199219 460.011719 292.734375 C 459.773438 293.273438 459.414062 293.660156 458.9375 293.898438 C 454.398438 296.410156 449.503906 298.707031 444.246094 300.796875 C 438.992188 302.886719 434.632812 304.828125 431.171875 306.621094 C 430.574219 309.964844 429.617188 313.367188 428.304688 316.832031 C 427.347656 319.695312 425.945312 322.800781 424.09375 326.144531 C 422.242188 329.492188 419.941406 332.59375 417.195312 335.460938 C 414.925781 337.492188 412.449219 338.984375 409.761719 339.941406 C 407.074219 340.894531 404.476562 341.375 401.96875 341.375 C 399.460938 341.375 397.160156 340.894531 395.070312 339.941406 C 392.980469 338.984375 391.460938 337.492188 390.503906 335.460938 C 390.144531 334.746094 389.90625 334.386719 389.789062 334.386719 L 389.789062 334.746094 C 389.789062 335.105469 390.027344 337.015625 390.503906 340.480469 C 390.742188 342.867188 390.980469 345.226562 391.21875 347.554688 C 391.460938 349.882812 391.785156 352.273438 392.207031 354.722656 C 392.621094 357.167969 393.070312 359.796875 393.550781 362.601562 C 394.027344 365.410156 394.625 368.542969 395.339844 372.007812 C 395.816406 374.15625 396.058594 375.710938 396.058594 376.664062 C 396.058594 376.785156 396.027344 377.113281 395.96875 377.652344 C 395.90625 378.1875 395.402344 378.933594 394.445312 379.890625 C 393.488281 380.964844 392.324219 381.652344 390.953125 381.949219 C 389.578125 382.25 388.53125 382.398438 387.816406 382.398438 C 386.859375 382.398438 386.085938 382.21875 385.488281 381.863281 C 384.292969 381.382812 383.097656 379.117188 381.902344 375.054688 C 380.710938 370.992188 379.664062 365.917969 378.769531 359.828125 C 377.871094 353.734375 377.128906 346.988281 376.527344 339.582031 C 375.933594 332.179688 375.632812 324.894531 375.632812 317.726562 C 375.632812 309.246094 375.875 301.515625 376.351562 294.527344 C 376.828125 287.542969 377.605469 280.105469 378.679688 272.222656 C 378.917969 269.238281 379.1875 266.851562 379.484375 265.058594 C 379.785156 263.265625 380.203125 261.863281 380.738281 260.847656 C 381.277344 259.832031 381.996094 259.175781 382.890625 258.878906 C 383.785156 258.578125 385.007812 258.429688 386.5625 258.429688 C 387.996094 258.429688 389.101562 258.609375 389.875 258.964844 C 390.652344 259.324219 391.191406 260.070312 391.488281 261.207031 C 391.785156 262.339844 391.9375 263.742188 391.9375 265.414062 C 391.9375 265.894531 391.90625 266.910156 391.847656 268.460938 C 391.785156 270.011719 391.640625 272.878906 391.398438 277.0625 C 391.398438 278.613281 391.460938 279.390625 391.578125 279.390625 C 391.699219 279.390625 391.996094 278.613281 392.472656 277.0625 C 395.816406 269.296875 399.519531 263.742188 403.582031 260.402344 C 405.96875 258.609375 408.269531 257.414062 410.480469 256.816406 C 412.6875 256.21875 414.570312 255.921875 416.121094 255.921875 C 417.4375 255.921875 419.105469 256.160156 421.136719 256.636719 C 423.167969 257.113281 425.347656 258.488281 427.675781 260.757812 C 430.003906 263.027344 431.765625 266.191406 432.960938 270.253906 C 433.675781 272.878906 434.035156 275.867188 434.035156 279.210938 C 434.035156 282.671875 433.855469 285.957031 433.496094 289.0625 C 433.261719 292.648438 432.839844 296.230469 432.246094 299.8125 C 436.304688 298.019531 440.066406 296.347656 443.53125 294.796875 C 446.515625 293.484375 449.382812 292.257812 452.128906 291.125 C 454.875 289.988281 456.789062 289.300781 457.863281 289.0625 Z M 417.554688 305.902344 C 418.867188 298.496094 419.761719 291.75 420.242188 285.660156 C 420.363281 283.152344 420.421875 280.585938 420.421875 277.957031 C 420.421875 275.449219 420.300781 273.121094 420.0625 270.96875 C 419.824219 268.820312 419.40625 266.96875 418.808594 265.414062 C 418.210938 263.863281 417.316406 262.847656 416.121094 262.371094 C 415.523438 262.011719 414.867188 261.832031 414.148438 261.832031 C 412.238281 261.832031 410.03125 263.386719 407.523438 266.488281 C 405.011719 269.597656 402.535156 274.222656 400.085938 280.375 C 397.640625 286.527344 395.578125 293.390625 393.90625 300.976562 C 392.234375 308.5625 391.398438 315.757812 391.398438 322.5625 C 391.398438 323.519531 391.457031 323.996094 391.578125 323.996094 L 391.757812 323.816406 C 391.875 323.816406 392.414062 323.101562 393.371094 321.667969 C 394.921875 319.636719 397.074219 317.695312 399.820312 315.84375 C 402.566406 313.996094 405.253906 312.292969 407.878906 310.738281 C 410.988281 309.070312 414.210938 307.457031 417.554688 305.902344 Z M 406.269531 335.460938 C 408.058594 333.671875 409.550781 331.582031 410.746094 329.191406 C 411.941406 326.804688 412.898438 324.472656 413.613281 322.207031 C 414.570312 319.578125 415.285156 316.949219 415.761719 314.320312 C 411.460938 316.710938 408 319.160156 405.375 321.667969 C 403.101562 323.816406 401.609375 325.699219 400.894531 327.3125 C 400.175781 328.925781 399.820312 330.085938 399.820312 330.804688 C 399.820312 332.476562 400.65625 334.03125 402.324219 335.460938 C 403.28125 336.417969 403.9375 336.894531 404.296875 336.894531 C 404.65625 336.894531 405.3125 336.417969 406.269531 335.460938 Z M 532.746094 289.0625 C 533.105469 288.945312 533.402344 288.886719 533.640625 288.886719 C 534 288.886719 534.328125 289.0625 534.628906 289.421875 C 534.925781 289.78125 535.105469 290.136719 535.164062 290.496094 C 535.222656 290.855469 535.253906 291.09375 535.253906 291.210938 C 535.253906 291.691406 535.136719 292.199219 534.894531 292.734375 C 534.65625 293.273438 534.300781 293.660156 533.820312 293.898438 C 529.28125 296.410156 524.386719 298.707031 519.128906 300.796875 C 513.875 302.886719 509.519531 304.828125 506.054688 306.621094 C 505.457031 309.964844 504.5 313.367188 503.1875 316.832031 C 502.234375 319.695312 500.828125 322.800781 498.976562 326.144531 C 497.125 329.492188 494.828125 332.59375 492.082031 335.460938 C 489.808594 337.492188 487.332031 338.984375 484.644531 339.941406 C 481.957031 340.894531 479.359375 341.375 476.851562 341.375 C 474.34375 341.375 472.046875 340.894531 469.953125 339.941406 C 467.867188 338.984375 466.34375 337.492188 465.386719 335.460938 C 465.027344 334.746094 464.789062 334.386719 464.671875 334.386719 L 464.671875 334.746094 C 464.671875 335.105469 464.910156 337.015625 465.386719 340.480469 C 465.625 342.867188 465.863281 345.226562 466.105469 347.554688 C 466.34375 349.882812 466.671875 352.273438 467.089844 354.722656 C 467.507812 357.167969 467.957031 359.796875 468.433594 362.601562 C 468.910156 365.410156 469.507812 368.542969 470.222656 372.007812 C 470.703125 374.15625 470.941406 375.710938 470.941406 376.664062 C 470.941406 376.785156 470.910156 377.113281 470.851562 377.652344 C 470.789062 378.1875 470.285156 378.933594 469.328125 379.890625 C 468.371094 380.964844 467.207031 381.652344 465.835938 381.949219 C 464.460938 382.25 463.417969 382.398438 462.699219 382.398438 C 461.746094 382.398438 460.96875 382.21875 460.371094 381.863281 C 459.175781 381.382812 457.984375 379.117188 456.789062 375.054688 C 455.59375 370.992188 454.546875 365.917969 453.652344 359.828125 C 452.757812 353.734375 452.011719 346.988281 451.414062 339.582031 C 450.816406 332.179688 450.519531 324.894531 450.519531 317.726562 C 450.519531 309.246094 450.757812 301.515625 451.234375 294.527344 C 451.710938 287.542969 452.488281 280.105469 453.5625 272.222656 C 453.800781 269.238281 454.070312 266.851562 454.367188 265.058594 C 454.667969 263.265625 455.085938 261.863281 455.625 260.847656 C 456.160156 259.832031 456.878906 259.175781 457.773438 258.878906 C 458.667969 258.578125 459.894531 258.429688 461.445312 258.429688 C 462.878906 258.429688 463.984375 258.609375 464.761719 258.964844 C 465.535156 259.324219 466.074219 260.070312 466.371094 261.207031 C 466.671875 262.339844 466.820312 263.742188 466.820312 265.414062 C 466.820312 265.894531 466.792969 266.910156 466.730469 268.460938 C 466.671875 270.011719 466.523438 272.878906 466.285156 277.0625 C 466.285156 278.613281 466.34375 279.390625 466.460938 279.390625 C 466.582031 279.390625 466.878906 278.613281 467.359375 277.0625 C 470.703125 269.296875 474.40625 263.742188 478.464844 260.402344 C 480.851562 258.609375 483.152344 257.414062 485.363281 256.816406 C 487.570312 256.21875 489.453125 255.921875 491.003906 255.921875 C 492.320312 255.921875 493.992188 256.160156 496.019531 256.636719 C 498.050781 257.113281 500.230469 258.488281 502.5625 260.757812 C 504.886719 263.027344 506.652344 266.191406 507.84375 270.253906 C 508.5625 272.878906 508.917969 275.867188 508.917969 279.210938 C 508.917969 282.671875 508.742188 285.957031 508.382812 289.0625 C 508.144531 292.648438 507.726562 296.230469 507.128906 299.8125 C 511.1875 298.019531 514.953125 296.347656 518.414062 294.796875 C 521.402344 293.484375 524.269531 292.257812 527.015625 291.125 C 529.761719 289.988281 531.671875 289.300781 532.746094 289.0625 Z M 492.4375 305.902344 C 493.753906 298.496094 494.648438 291.75 495.125 285.660156 C 495.246094 283.152344 495.304688 280.585938 495.304688 277.957031 C 495.304688 275.449219 495.183594 273.121094 494.945312 270.96875 C 494.707031 268.820312 494.289062 266.96875 493.691406 265.414062 C 493.097656 263.863281 492.199219 262.847656 491.003906 262.371094 C 490.410156 262.011719 489.75 261.832031 489.035156 261.832031 C 487.121094 261.832031 484.914062 263.386719 482.40625 266.488281 C 479.898438 269.597656 477.417969 274.222656 474.972656 280.375 C 472.523438 286.527344 470.460938 293.390625 468.789062 300.976562 C 467.121094 308.5625 466.285156 315.757812 466.285156 322.5625 C 466.285156 323.519531 466.34375 323.996094 466.460938 323.996094 L 466.640625 323.816406 C 466.757812 323.816406 467.296875 323.101562 468.253906 321.667969 C 469.804688 319.636719 471.957031 317.695312 474.703125 315.84375 C 477.449219 313.996094 480.136719 312.292969 482.765625 310.738281 C 485.871094 309.070312 489.09375 307.457031 492.4375 305.902344 Z M 481.152344 335.460938 C 482.945312 333.671875 484.4375 331.582031 485.632812 329.191406 C 486.824219 326.804688 487.78125 324.472656 488.496094 322.207031 C 489.453125 319.578125 490.167969 316.949219 490.644531 314.320312 C 486.347656 316.710938 482.886719 319.160156 480.257812 321.667969 C 477.988281 323.816406 476.496094 325.699219 475.777344 327.3125 C 475.058594 328.925781 474.703125 330.085938 474.703125 330.804688 C 474.703125 332.476562 475.539062 334.03125 477.210938 335.460938 C 478.167969 336.417969 478.824219 336.894531 479.183594 336.894531 C 479.539062 336.894531 480.195312 336.417969 481.152344 335.460938 Z M 612.824219 287.988281 C 613.300781 287.75 613.722656 287.628906 614.078125 287.628906 C 614.675781 287.628906 615.183594 287.988281 615.601562 288.707031 C 616.019531 289.421875 616.230469 290.078125 616.230469 290.675781 C 616.230469 291.035156 616.167969 291.332031 616.050781 291.570312 C 611.511719 297.542969 606.585938 303.304688 601.269531 308.859375 C 595.957031 314.414062 591.566406 319.636719 588.101562 324.535156 L 588.101562 333.492188 C 588.101562 338.507812 588.011719 344.003906 587.832031 349.972656 C 587.65625 355.945312 587.207031 361.886719 586.488281 367.796875 C 585.773438 373.710938 584.699219 379.414062 583.265625 384.90625 C 581.832031 390.402344 579.890625 395.175781 577.445312 399.238281 C 574.996094 403.300781 572.101562 406.257812 568.753906 408.105469 C 565.410156 409.957031 561.769531 410.882812 557.828125 410.882812 C 556.753906 410.882812 555.617188 410.824219 554.421875 410.703125 C 549.40625 410.105469 545.675781 408.167969 543.226562 404.882812 C 540.777344 401.597656 539.554688 397.269531 539.554688 391.894531 C 539.554688 385.683594 541.105469 379.324219 544.210938 372.8125 C 547.320312 366.304688 550.8125 360.125 554.691406 354.273438 C 558.574219 348.421875 562.335938 343.167969 565.976562 338.507812 C 569.621094 333.851562 571.980469 330.269531 573.054688 327.757812 C 573.175781 326.324219 573.234375 324.683594 573.234375 322.832031 C 573.234375 320.980469 573.234375 319.28125 573.234375 317.726562 C 571.679688 320.117188 570.097656 322.5625 568.484375 325.070312 C 566.875 327.582031 565.082031 329.820312 563.113281 331.789062 C 561.140625 333.761719 558.960938 335.375 556.574219 336.625 C 554.183594 337.878906 551.496094 338.507812 548.511719 338.507812 C 541.585938 338.03125 536.300781 335.761719 532.65625 331.699219 C 529.011719 327.640625 526.714844 321.667969 525.757812 313.785156 C 525.640625 312.234375 525.550781 310.320312 525.492188 308.054688 C 525.429688 305.785156 525.402344 303.8125 525.402344 302.140625 C 525.402344 300.46875 525.429688 298.257812 525.492188 295.511719 C 525.550781 292.765625 525.640625 289.421875 525.757812 285.480469 C 525.878906 281.539062 526.058594 277.835938 526.296875 274.375 C 526.535156 270.910156 526.804688 267.953125 527.101562 265.507812 C 527.402344 263.054688 527.671875 261.535156 527.910156 260.9375 C 528.386719 260.222656 529.132812 259.652344 530.148438 259.234375 C 531.164062 258.816406 532.269531 258.609375 533.464844 258.609375 C 534.539062 258.609375 535.582031 258.816406 536.597656 259.234375 C 537.613281 259.652344 538.359375 260.222656 538.835938 260.9375 C 539.316406 261.414062 539.585938 262.726562 539.644531 264.878906 C 539.703125 267.027344 539.734375 271.328125 539.734375 277.777344 C 539.734375 286.613281 539.761719 293.957031 539.824219 299.8125 C 539.882812 305.664062 540.09375 310.472656 540.449219 314.234375 C 540.808594 317.996094 541.375 320.953125 542.152344 323.101562 C 542.925781 325.25 544.03125 327.042969 545.46875 328.476562 C 546.78125 329.667969 548.273438 330.269531 549.945312 330.269531 C 551.019531 330.269531 552.660156 329.761719 554.871094 328.746094 C 557.082031 327.730469 559.617188 325.160156 562.484375 321.039062 C 565.351562 316.921875 567.890625 311.605469 570.097656 305.097656 C 572.308594 298.589844 573.652344 291.273438 574.128906 283.152344 C 574.605469 278.492188 575.054688 274.222656 575.472656 270.34375 C 575.890625 266.460938 576.277344 263.742188 576.636719 262.191406 C 577.117188 260.757812 577.832031 259.800781 578.789062 259.324219 C 579.742188 258.847656 580.640625 258.609375 581.476562 258.609375 C 581.832031 258.609375 582.398438 258.667969 583.175781 258.789062 C 583.953125 258.90625 584.820312 259.386719 585.773438 260.222656 C 586.730469 261.054688 587.328125 262.132812 587.566406 263.445312 C 587.925781 265.355469 588.101562 268.789062 588.101562 273.746094 C 588.101562 278.703125 588.101562 284.761719 588.101562 291.929688 C 588.101562 295.394531 588.074219 298.347656 588.011719 300.796875 C 587.953125 303.246094 587.925781 305.304688 587.925781 306.976562 C 587.925781 308.648438 587.894531 310.085938 587.832031 311.277344 C 587.773438 312.472656 587.746094 313.605469 587.746094 314.683594 C 592.042969 309.785156 595.984375 305.425781 599.570312 301.605469 C 601.601562 299.453125 603.539062 297.394531 605.390625 295.421875 C 607.242188 293.453125 608.855469 291.78125 610.226562 290.40625 C 611.601562 289.03125 612.46875 288.226562 612.824219 287.988281 Z M 559.796875 404.433594 L 560.335938 404.433594 C 562.367188 404.433594 564.15625 403.121094 565.710938 400.492188 C 567.261719 397.863281 568.546875 394.371094 569.5625 390.011719 C 570.578125 385.652344 571.351562 380.847656 571.890625 375.589844 C 572.425781 370.335938 572.816406 365.230469 573.054688 360.273438 C 573.292969 355.316406 573.441406 350.867188 573.503906 346.929688 C 573.5625 342.988281 573.652344 340.179688 573.769531 338.507812 C 573.292969 339.34375 572.398438 340.835938 571.085938 342.988281 C 569.769531 345.136719 568.335938 347.554688 566.785156 350.242188 C 565.230469 352.929688 563.648438 355.585938 562.035156 358.214844 C 560.425781 360.839844 559.140625 363.050781 558.1875 364.839844 C 552.214844 376.1875 549.230469 385.144531 549.230469 391.714844 C 549.230469 392.429688 549.40625 394.609375 549.765625 398.253906 C 550.125 401.894531 553.46875 403.957031 559.796875 404.433594 Z M 559.796875 404.433594 " fill-opacity="1" fill-rule="nonzero"/></g><g clip-path="url(#839e4ab254)"><path fill="#000000" d="M 158.851562 449.988281 C 162.554688 449.988281 165.75 451.03125 168.4375 453.125 C 171.125 455.210938 173.277344 457.929688 174.886719 461.273438 C 176.5 464.617188 177.457031 467.664062 177.753906 470.410156 C 178.054688 473.15625 178.199219 475.246094 178.199219 476.679688 C 178.199219 479.425781 177.902344 482.175781 177.304688 484.921875 C 175.992188 490.175781 174.082031 494.746094 171.574219 498.625 C 169.066406 502.507812 166.171875 505.613281 162.882812 507.941406 C 159.601562 510.269531 156.734375 511.644531 154.285156 512.0625 C 151.835938 512.480469 150.015625 512.6875 148.820312 512.6875 C 146.195312 512.6875 143.566406 512.210938 140.941406 511.253906 C 139.503906 511.253906 138.667969 511.285156 138.429688 511.34375 C 138.191406 511.40625 138.074219 511.734375 138.074219 512.332031 C 138.074219 513.046875 137.835938 513.824219 137.355469 514.660156 C 136.878906 515.496094 136.28125 516.242188 135.566406 516.898438 C 134.847656 517.554688 134.160156 518.03125 133.503906 518.332031 C 132.847656 518.628906 132.28125 518.78125 131.804688 518.78125 C 131.445312 518.78125 131.085938 518.71875 130.730469 518.601562 C 129.652344 518.125 128.726562 515.40625 127.949219 510.449219 C 127.175781 505.492188 126.546875 499.3125 126.070312 491.90625 C 125.59375 484.5 125.261719 476.382812 125.085938 467.542969 C 124.90625 458.703125 124.789062 451.539062 124.726562 446.046875 C 124.667969 440.550781 124.636719 436.550781 124.636719 434.042969 C 124.636719 428.90625 124.695312 423.59375 124.816406 418.097656 C 124.933594 412.605469 125.054688 408.367188 125.175781 405.378906 C 125.652344 403.46875 126.460938 402.035156 127.59375 401.082031 C 128.726562 400.125 129.652344 399.617188 130.367188 399.558594 C 131.085938 399.496094 131.503906 399.46875 131.625 399.46875 C 132.582031 399.46875 133.476562 399.765625 134.3125 400.363281 C 135.148438 400.960938 135.566406 401.917969 135.566406 403.230469 C 135.683594 403.828125 135.742188 404.601562 135.742188 405.558594 C 135.742188 406.394531 135.683594 407.589844 135.566406 409.140625 C 135.445312 410.695312 135.265625 413.082031 135.027344 416.304688 C 134.789062 422.039062 134.609375 426.429688 134.492188 429.476562 C 134.371094 432.519531 134.3125 434.9375 134.3125 436.730469 C 134.3125 437.566406 134.339844 438.730469 134.398438 440.222656 C 134.460938 441.714844 134.519531 443.089844 134.578125 444.34375 C 134.640625 445.597656 134.667969 446.640625 134.667969 447.480469 C 136.101562 439.835938 138.101562 432.9375 140.671875 426.789062 C 143.238281 420.636719 146.132812 415.46875 149.359375 411.292969 C 152.585938 407.109375 155.691406 404.277344 158.675781 402.78125 C 161.660156 401.289062 164.289062 400.542969 166.558594 400.542969 C 167.988281 400.542969 169.367188 400.722656 170.675781 401.082031 C 174.617188 402.035156 177.097656 403.855469 178.113281 406.542969 C 179.128906 409.230469 179.636719 411.707031 179.636719 413.980469 C 179.636719 415.890625 179.214844 418.546875 178.382812 421.949219 C 177.546875 425.355469 175.425781 429.625 172.019531 434.757812 C 168.617188 439.894531 164.226562 444.671875 158.855469 449.09375 L 157.242188 449.808594 C 157.242188 449.929688 157.777344 449.988281 158.855469 449.988281 Z M 143.089844 442.820312 C 142.613281 444.136719 142.371094 445.210938 142.371094 446.046875 C 142.371094 446.40625 142.460938 446.882812 142.640625 447.480469 C 142.820312 448.078125 143.148438 448.523438 143.628906 448.824219 C 144.101562 449.121094 144.523438 449.269531 144.878906 449.269531 C 145.117188 449.269531 145.507812 449.210938 146.046875 449.09375 C 146.582031 448.972656 147.148438 448.613281 147.746094 448.015625 C 152.046875 445.269531 155.839844 442.136719 159.121094 438.613281 C 162.40625 435.085938 165.003906 431.445312 166.914062 427.683594 C 168.828125 423.921875 169.871094 420.9375 170.050781 418.726562 C 170.230469 416.515625 170.320312 415.113281 170.320312 414.515625 C 170.320312 411.53125 169.664062 408.722656 168.351562 406.09375 C 164.527344 406.8125 161.242188 408.511719 158.496094 411.199219 C 155.75 413.886719 153.359375 417.023438 151.328125 420.605469 C 149.300781 424.191406 147.628906 427.980469 146.316406 431.984375 C 145 435.984375 143.925781 439.597656 143.089844 442.820312 Z M 155.808594 504.089844 C 157.839844 502.773438 159.691406 500.863281 161.363281 498.355469 C 163.035156 495.847656 164.378906 493.070312 165.394531 490.027344 C 166.410156 486.980469 167.007812 484.382812 167.183594 482.234375 C 167.363281 480.085938 167.453125 478.589844 167.453125 477.753906 C 167.453125 475.484375 167.214844 473.394531 166.738281 471.484375 C 165.304688 465.394531 163.183594 461.183594 160.375 458.855469 C 157.570312 456.527344 155.390625 455.300781 153.839844 455.183594 C 152.285156 455.0625 151.328125 455.003906 150.972656 455.003906 C 148.582031 455.003906 146.316406 455.601562 144.164062 456.792969 C 142.015625 457.988281 140.640625 459.125 140.042969 460.199219 C 139.328125 461.390625 138.789062 463.273438 138.429688 465.84375 C 138.074219 468.410156 137.863281 470.886719 137.804688 473.277344 C 137.746094 475.664062 137.714844 477.636719 137.714844 479.1875 C 137.714844 480.738281 137.746094 482.742188 137.804688 485.191406 C 137.863281 487.636719 137.894531 489.996094 137.894531 492.265625 C 137.894531 499.191406 139.148438 503.34375 141.65625 504.71875 C 144.164062 506.089844 146.195312 506.777344 147.746094 506.777344 C 150.253906 506.777344 152.941406 505.882812 155.808594 504.089844 Z M 195.578125 441.746094 C 193.90625 441.148438 192.265625 440.222656 190.652344 438.96875 C 189.042969 437.714844 187.699219 436.3125 186.621094 434.757812 C 185.546875 433.207031 184.980469 432.011719 184.917969 431.175781 C 184.859375 430.339844 184.832031 429.863281 184.832031 429.746094 C 184.832031 428.308594 185.425781 426.996094 186.621094 425.800781 C 187.457031 424.847656 188.53125 424.367188 189.847656 424.367188 C 190.324219 424.367188 191.21875 424.519531 192.535156 424.816406 C 193.847656 425.113281 194.863281 426.699219 195.578125 429.566406 C 196.058594 427.292969 197.074219 425.683594 198.625 424.726562 C 200.175781 423.769531 201.371094 423.292969 202.207031 423.292969 C 203.402344 423.292969 204.535156 423.710938 205.609375 424.546875 C 206.925781 425.503906 207.582031 426.699219 207.582031 428.132812 C 207.582031 428.371094 207.519531 428.96875 207.402344 429.921875 C 207.285156 430.878906 206.65625 432.222656 205.523438 433.953125 C 204.386719 435.6875 202.894531 437.269531 201.042969 438.699219 C 199.191406 440.132812 197.371094 441.148438 195.578125 441.746094 Z M 233.019531 471.484375 C 233.257812 470.527344 233.765625 469.84375 234.542969 469.425781 C 235.320312 469.007812 236.066406 468.796875 236.78125 468.796875 C 236.902344 468.796875 237.230469 468.828125 237.769531 468.886719 C 238.304688 468.945312 238.84375 469.304688 239.378906 469.960938 C 239.917969 470.621094 240.1875 471.425781 240.1875 472.378906 C 240.1875 472.738281 240.128906 473.097656 240.007812 473.453125 C 238.457031 480.382812 236.691406 486.953125 234.722656 493.164062 C 232.75 499.371094 230.511719 504.804688 228.003906 509.464844 C 225.496094 514.121094 222.75 517.703125 219.765625 520.210938 C 216.777344 522.722656 213.613281 523.972656 210.269531 523.972656 L 209.371094 523.972656 C 204.359375 523.972656 200.328125 522.601562 197.28125 519.855469 C 194.234375 517.109375 191.847656 513.523438 190.117188 509.105469 C 188.382812 504.6875 187.277344 499.941406 186.800781 494.863281 C 186.324219 489.789062 186.085938 484.980469 186.085938 480.441406 C 186.085938 479.488281 186.113281 477.335938 186.171875 473.992188 C 186.234375 470.648438 186.5625 466.378906 187.160156 461.183594 C 187.757812 455.988281 188.351562 451.539062 188.949219 447.835938 C 189.308594 446.523438 190.175781 445.539062 191.546875 444.882812 C 192.921875 444.222656 194.324219 443.894531 195.757812 443.894531 C 195.878906 443.894531 196.355469 443.925781 197.191406 443.988281 C 198.027344 444.046875 199.011719 444.460938 200.148438 445.238281 C 201.28125 446.015625 201.847656 447.121094 201.847656 448.554688 L 201.847656 448.914062 C 201.371094 454.527344 200.863281 460.585938 200.328125 467.097656 C 199.789062 473.605469 199.519531 479.367188 199.519531 484.382812 C 199.519531 486.414062 199.609375 489.640625 199.789062 494.058594 C 199.96875 498.476562 200.835938 503.222656 202.386719 508.300781 C 203.9375 513.375 206.566406 516.273438 210.269531 516.988281 C 210.507812 517.109375 210.808594 517.167969 211.164062 517.167969 C 212.71875 517.167969 214.507812 516.003906 216.539062 513.675781 C 218.570312 511.34375 220.660156 507.972656 222.808594 503.550781 C 224.957031 499.132812 226.960938 494.117188 228.8125 488.503906 C 230.664062 482.890625 232.066406 477.21875 233.019531 471.484375 Z M 246.277344 506.957031 L 246.277344 508.210938 C 246.277344 510.480469 245.710938 512.300781 244.574219 513.675781 C 243.441406 515.046875 242.246094 515.882812 240.992188 516.179688 C 239.738281 516.480469 238.75 516.628906 238.035156 516.628906 C 237.082031 516.628906 235.976562 516.421875 234.722656 516.003906 C 233.46875 515.585938 232.722656 514.660156 232.484375 513.226562 C 232.242188 510.957031 231.945312 507.671875 231.585938 503.375 C 231.226562 499.074219 230.960938 494.296875 230.78125 489.039062 C 230.601562 483.785156 230.484375 479.488281 230.421875 476.140625 C 230.363281 472.800781 230.332031 470.527344 230.332031 469.335938 C 230.332031 465.035156 230.453125 460.734375 230.691406 456.4375 C 230.929688 452.136719 231.347656 448.226562 231.945312 444.703125 C 232.542969 441.179688 233.378906 438.882812 234.453125 437.804688 C 235.765625 436.015625 237.4375 435.117188 239.46875 435.117188 C 239.707031 435.117188 240.484375 435.179688 241.800781 435.296875 C 243.113281 435.417969 244.246094 436.253906 245.203125 437.804688 C 245.441406 438.28125 245.5625 439.117188 245.5625 440.3125 C 245.5625 440.671875 245.53125 441.417969 245.46875 442.550781 C 245.410156 443.6875 245.261719 445.476562 245.023438 447.925781 C 244.785156 450.375 244.574219 452.617188 244.394531 454.644531 C 244.21875 456.675781 244.125 458.347656 244.125 459.660156 C 244.125 460.976562 244.1875 462.289062 244.304688 463.601562 C 245.5 460.257812 247.144531 456.585938 249.230469 452.585938 C 251.324219 448.585938 253.710938 445 256.398438 441.835938 C 259.085938 438.671875 261.625 436.492188 264.011719 435.296875 C 266.402344 434.101562 268.371094 433.507812 269.921875 433.507812 C 271.597656 433.507812 273.269531 433.921875 274.941406 434.757812 C 277.089844 435.953125 278.433594 437.714844 278.972656 440.042969 C 279.507812 442.375 279.777344 444.730469 279.777344 447.121094 C 279.777344 448.078125 279.6875 449.660156 279.507812 451.867188 C 279.328125 454.078125 278.882812 457.121094 278.164062 461.003906 C 277.449219 464.886719 276.910156 468.261719 276.550781 471.128906 C 276.195312 473.992188 276.015625 476.382812 276.015625 478.292969 C 276.015625 479.007812 276.074219 480.171875 276.195312 481.785156 C 276.3125 483.398438 277.210938 484.5625 278.882812 485.277344 C 279 485.398438 279.179688 485.457031 279.417969 485.457031 C 280.015625 485.457031 280.910156 485.21875 282.105469 484.742188 C 283.300781 484.265625 284.914062 483.367188 286.945312 482.054688 C 288.972656 480.738281 291.242188 479.128906 293.75 477.21875 C 296.257812 475.304688 298.707031 473.039062 301.09375 470.410156 C 301.574219 469.933594 302.109375 469.691406 302.707031 469.691406 C 302.828125 469.691406 303.097656 469.722656 303.511719 469.785156 C 303.933594 469.84375 304.441406 470.113281 305.035156 470.589844 C 305.632812 471.066406 305.992188 471.515625 306.113281 471.933594 C 306.234375 472.351562 306.292969 472.679688 306.292969 472.917969 C 306.292969 473.394531 306.050781 473.816406 305.574219 474.171875 C 303.546875 476.199219 300.976562 478.53125 297.871094 481.160156 C 294.765625 483.785156 292.078125 485.816406 289.808594 487.25 C 286.226562 489.519531 283.359375 490.832031 281.210938 491.191406 C 279.058594 491.550781 277.507812 491.726562 276.550781 491.726562 C 274.402344 491.726562 272.433594 491.25 270.640625 490.296875 C 268.492188 489.101562 267 487.011719 266.160156 484.027344 C 265.324219 481.039062 264.878906 478.472656 264.816406 476.320312 C 264.757812 474.171875 264.730469 472.859375 264.730469 472.378906 C 264.730469 469.035156 264.9375 465.453125 265.355469 461.632812 C 265.773438 457.808594 266.132812 454.464844 266.429688 451.601562 C 266.730469 448.734375 266.878906 446.40625 266.878906 444.613281 C 266.878906 444.132812 266.847656 443.359375 266.789062 442.285156 C 266.730469 441.207031 266.339844 440.671875 265.625 440.671875 L 265.085938 440.671875 C 264.371094 441.03125 263.324219 442.042969 261.953125 443.71875 C 260.578125 445.390625 259.144531 447.480469 257.652344 449.988281 C 256.160156 452.496094 254.667969 455.273438 253.175781 458.316406 C 251.679688 461.363281 250.398438 464.320312 249.324219 467.183594 C 247.886719 471.484375 246.8125 475.066406 246.097656 477.933594 C 245.382812 480.800781 244.992188 483.128906 244.933594 484.921875 C 244.875 486.714844 244.84375 487.964844 244.84375 488.683594 C 244.84375 490.832031 244.960938 493.25 245.203125 495.9375 C 245.441406 498.625 245.800781 502.296875 246.277344 506.957031 Z M 353.765625 416.128906 C 354.003906 416.367188 354.125 416.667969 354.125 417.023438 C 354.125 417.144531 354.035156 417.351562 353.855469 417.648438 C 353.675781 417.949219 353.316406 418.21875 352.78125 418.457031 C 352.242188 418.695312 351.675781 418.816406 351.078125 418.816406 C 350.957031 418.816406 350.691406 418.785156 350.273438 418.726562 C 349.855469 418.664062 349.347656 418.457031 348.75 418.097656 C 346.71875 416.667969 344.507812 415.738281 342.121094 415.324219 C 339.734375 414.902344 337.523438 414.695312 335.492188 414.695312 C 334.417969 414.695312 332.804688 414.785156 330.65625 414.960938 C 328.507812 415.144531 325.757812 415.710938 322.414062 416.667969 C 319.070312 417.621094 315.847656 418.757812 312.742188 420.070312 C 312.382812 429.980469 312.054688 438.941406 311.753906 446.941406 C 311.457031 454.941406 311.308594 461.570312 311.308594 466.828125 C 311.308594 471.246094 311.425781 476.679688 311.664062 483.128906 C 311.90625 489.578125 312.652344 495.96875 313.90625 502.296875 C 315.160156 508.628906 317.160156 512.808594 319.90625 514.835938 C 320.621094 515.316406 321.398438 515.554688 322.234375 515.554688 C 323.550781 515.554688 325.191406 514.507812 327.164062 512.417969 C 329.132812 510.332031 331.195312 506.957031 333.34375 502.296875 C 335.492188 497.640625 337.433594 492.355469 339.164062 486.445312 C 340.898438 480.53125 342.121094 474.890625 342.835938 469.515625 C 343.078125 468.320312 343.554688 467.574219 344.269531 467.273438 C 344.988281 466.976562 345.582031 466.828125 346.0625 466.828125 C 346.300781 466.828125 346.6875 466.886719 347.226562 467.003906 C 347.761719 467.125 348.332031 467.425781 348.929688 467.902344 C 349.527344 468.378906 349.824219 468.855469 349.824219 469.335938 L 349.824219 469.515625 C 348.628906 475.605469 347.078125 482.113281 345.167969 489.039062 C 343.257812 495.96875 340.835938 502.179688 337.910156 507.671875 C 334.984375 513.167969 331.878906 517.109375 328.59375 519.496094 C 325.3125 521.886719 322.175781 523.078125 319.191406 523.078125 C 317.28125 523.078125 315.308594 522.722656 313.277344 522.003906 C 309.457031 520.691406 306.472656 517.523438 304.320312 512.511719 C 302.171875 507.492188 300.589844 501.582031 299.574219 494.773438 C 298.558594 487.964844 298.019531 481.964844 297.960938 476.769531 C 297.902344 471.574219 297.871094 467.722656 297.871094 465.214844 C 297.871094 460.316406 297.960938 454.972656 298.140625 449.179688 C 298.320312 443.386719 298.617188 437.894531 299.035156 432.699219 C 299.457031 427.503906 299.664062 424.132812 299.664062 422.578125 C 295.363281 423.414062 291.363281 423.832031 287.660156 423.832031 C 283.957031 423.832031 279.839844 423.203125 275.300781 421.949219 C 270.761719 420.695312 267.238281 418.097656 264.730469 414.15625 C 264.371094 413.800781 264.191406 413.382812 264.191406 412.902344 C 264.191406 412.785156 264.25 412.515625 264.371094 412.097656 C 264.488281 411.679688 264.789062 411.320312 265.265625 411.023438 C 265.746094 410.726562 266.28125 410.574219 266.878906 410.574219 C 267 410.574219 267.328125 410.605469 267.863281 410.664062 C 268.402344 410.726562 269.027344 411.234375 269.746094 412.1875 C 270.820312 413.621094 272.492188 414.875 274.761719 415.949219 C 277.03125 417.023438 279.417969 417.769531 281.925781 418.1875 C 284.4375 418.605469 286.882812 418.816406 289.273438 418.816406 C 289.871094 418.816406 291.09375 418.785156 292.945312 418.726562 C 294.796875 418.664062 297.097656 418.097656 299.84375 417.023438 C 299.960938 415.46875 300.082031 413.980469 300.199219 412.542969 C 300.199219 411.234375 300.230469 409.949219 300.289062 408.695312 C 300.351562 407.4375 300.378906 406.394531 300.378906 405.558594 C 300.617188 402.570312 301.394531 400.394531 302.710938 399.019531 C 304.023438 397.644531 305.066406 396.929688 305.84375 396.871094 C 306.621094 396.8125 307.066406 396.78125 307.1875 396.78125 C 308.621094 396.78125 309.933594 397.347656 311.128906 398.480469 C 312.320312 399.617188 312.980469 401.199219 313.097656 403.230469 C 313.21875 404.066406 313.277344 405.738281 313.277344 408.246094 C 313.277344 410.753906 313.277344 412.664062 313.277344 413.980469 C 314.832031 413.738281 317.28125 413.203125 320.621094 412.367188 C 323.96875 411.53125 326.953125 410.992188 329.582031 410.753906 C 332.210938 410.515625 334.179688 410.394531 335.492188 410.394531 C 338.121094 410.394531 341.105469 410.695312 344.449219 411.292969 C 347.792969 411.886719 350.898438 413.5 353.765625 416.128906 Z M 428.289062 470.589844 C 428.53125 469.515625 428.976562 468.738281 429.632812 468.261719 C 430.292969 467.78125 430.976562 467.542969 431.695312 467.542969 C 431.8125 467.542969 432.113281 467.574219 432.589844 467.632812 C 433.066406 467.691406 433.605469 468.050781 434.203125 468.707031 C 434.796875 469.363281 435.097656 470.289062 435.097656 471.484375 C 433.664062 482.589844 431.785156 491.96875 429.457031 499.613281 C 427.125 507.253906 424.4375 513.347656 421.390625 517.882812 C 418.347656 522.421875 415.363281 525.316406 412.4375 526.574219 C 409.507812 527.828125 406.792969 528.453125 404.285156 528.453125 C 402.730469 528.453125 401.179688 528.273438 399.625 527.917969 C 395.925781 527.199219 393 525.824219 390.847656 523.796875 C 388.699219 521.765625 387.296875 519.136719 386.640625 515.914062 C 385.984375 512.6875 385.652344 509.34375 385.652344 505.882812 C 385.652344 503.96875 385.804688 500.863281 386.101562 496.566406 C 386.398438 492.265625 387.265625 485.578125 388.699219 476.5 C 388.816406 474.828125 389.117188 472.558594 389.59375 469.691406 C 390.074219 466.828125 390.488281 463.8125 390.847656 460.648438 C 391.207031 457.480469 391.445312 454.941406 391.566406 453.03125 C 391.683594 451.121094 391.746094 449.808594 391.746094 449.09375 C 391.746094 447.0625 391.503906 445.179688 391.027344 443.449219 C 390.550781 441.714844 389.921875 440.671875 389.144531 440.3125 C 388.371094 439.957031 387.800781 439.777344 387.445312 439.777344 C 386.25 439.777344 384.699219 440.492188 382.789062 441.925781 C 375.859375 446.820312 370.007812 453.898438 365.230469 463.15625 C 360.453125 472.410156 357.050781 482.769531 355.019531 494.238281 C 355.019531 495.429688 355.046875 496.417969 355.109375 497.191406 C 355.167969 497.96875 355.226562 498.804688 355.289062 499.699219 C 355.347656 500.59375 355.4375 501.671875 355.554688 502.925781 C 355.675781 504.179688 355.855469 505.882812 356.09375 508.03125 C 356.214844 508.988281 356.273438 509.824219 356.273438 510.539062 C 356.273438 512.210938 355.824219 513.554688 354.929688 514.570312 C 354.035156 515.585938 352.09375 516.09375 349.105469 516.09375 C 346.121094 516.09375 344.179688 515.585938 343.285156 514.570312 C 342.390625 513.554688 341.703125 511.074219 341.226562 507.136719 C 339.554688 496.984375 338.6875 488.921875 338.625 482.949219 C 338.566406 476.976562 338.539062 473.574219 338.539062 472.738281 C 338.539062 462.585938 339.195312 452.554688 340.507812 442.644531 C 341.820312 432.730469 343.824219 423.414062 346.511719 414.695312 C 349.199219 405.976562 352.394531 398.871094 356.09375 393.375 C 360.035156 387.523438 364.007812 383.703125 368.007812 381.910156 C 372.007812 380.121094 375.441406 379.222656 378.308594 379.222656 C 379.742188 379.222656 381.800781 379.613281 384.488281 380.390625 C 387.175781 381.164062 389.355469 383.164062 391.027344 386.390625 C 392.699219 389.613281 393.535156 392.839844 393.535156 396.0625 C 393.535156 398.214844 393.238281 400.601562 392.640625 403.230469 C 391.328125 409.679688 388.9375 415.230469 385.476562 419.890625 C 382.011719 424.546875 378.308594 428.488281 374.367188 431.714844 C 370.425781 434.9375 366.636719 437.503906 362.992188 439.417969 C 359.347656 441.328125 356.691406 442.761719 355.019531 443.71875 C 354.542969 444.554688 354.183594 446.046875 353.945312 448.195312 C 353.703125 450.34375 353.527344 452.617188 353.40625 455.003906 C 353.289062 457.390625 353.199219 459.660156 353.136719 461.8125 C 353.078125 463.960938 353.050781 465.574219 353.050781 466.648438 C 353.050781 468.558594 353.109375 469.515625 353.230469 469.515625 L 353.230469 469.691406 C 353.347656 469.691406 353.644531 468.976562 354.125 467.542969 C 355.554688 463.839844 357.257812 460.289062 359.230469 456.886719 C 361.199219 453.480469 363.261719 450.40625 365.410156 447.65625 C 367.558594 444.910156 369.769531 442.523438 372.039062 440.492188 C 374.308594 438.460938 376.578125 436.96875 378.847656 436.015625 C 381.832031 434.34375 384.816406 433.507812 387.800781 433.507812 C 389.238281 433.507812 391.386719 433.894531 394.25 434.671875 C 397.117188 435.445312 399.566406 437.867188 401.597656 441.925781 C 402.550781 443.835938 403.269531 445.925781 403.746094 448.195312 C 404.226562 450.464844 404.464844 453.089844 404.464844 456.078125 C 404.464844 459.066406 404.226562 462.617188 403.746094 466.738281 C 403.269531 470.859375 402.550781 475.726562 401.597656 481.339844 C 401.359375 483.847656 400.96875 487.429688 400.433594 492.085938 C 399.894531 496.746094 399.597656 500.355469 399.539062 502.925781 C 399.476562 505.492188 399.449219 507.015625 399.449219 507.492188 C 399.449219 511.433594 399.835938 514.988281 400.613281 518.152344 C 401.390625 521.316406 403.03125 522.898438 405.539062 522.898438 C 408.285156 522.898438 410.824219 521.199219 413.152344 517.792969 C 415.480469 514.390625 417.601562 510.089844 419.511719 504.894531 C 421.425781 499.699219 423.097656 494.027344 424.527344 487.875 C 425.960938 481.726562 427.214844 475.964844 428.289062 470.589844 Z M 383.683594 389.433594 C 382.847656 387.40625 381.652344 386.390625 380.101562 386.390625 C 379.503906 386.390625 378.398438 386.71875 376.785156 387.375 C 375.171875 388.03125 372.992188 390.507812 370.246094 394.808594 C 367.5 399.109375 364.8125 404.902344 362.183594 412.1875 C 359.558594 419.472656 357.527344 428.070312 356.09375 437.984375 C 357.167969 437.503906 358.421875 436.910156 359.855469 436.195312 C 361.289062 435.476562 363.019531 434.402344 365.050781 432.96875 C 370.664062 428.789062 375.054688 424.640625 378.21875 420.515625 C 381.386719 416.398438 383.503906 412.636719 384.578125 409.230469 C 385.652344 405.828125 386.191406 402.8125 386.191406 400.183594 C 386.191406 399.46875 386.101562 398.125 385.921875 396.152344 C 385.742188 394.183594 384.996094 391.945312 383.683594 389.433594 Z M 516.429688 468.617188 C 516.667969 467.78125 517.175781 467.273438 517.953125 467.097656 C 518.726562 466.917969 519.414062 466.828125 520.011719 466.828125 C 520.25 466.828125 520.699219 466.859375 521.355469 466.917969 C 522.015625 466.976562 522.671875 467.214844 523.328125 467.632812 C 523.984375 468.050781 524.3125 468.558594 524.3125 469.15625 L 524.3125 469.515625 C 523.832031 472.5 523.027344 475.964844 521.894531 479.902344 C 520.757812 483.847656 519.476562 487.789062 518.042969 491.726562 C 516.609375 495.667969 515.144531 499.371094 513.652344 502.835938 C 512.160156 506.300781 510.757812 509.046875 509.445312 511.074219 C 507.53125 514.0625 505.5 516.511719 503.351562 518.421875 C 501.203125 520.332031 498.636719 521.527344 495.648438 522.003906 C 491.113281 522.003906 487.347656 520.988281 484.363281 518.960938 C 481.375 516.929688 478.957031 514.539062 477.105469 511.792969 C 475.257812 509.046875 473.941406 506.300781 473.167969 503.550781 C 472.390625 500.804688 472 498.714844 472 497.28125 C 469.015625 505.164062 465.402344 510.566406 461.164062 513.492188 C 456.921875 516.421875 452.953125 517.882812 449.25 517.882812 C 447.339844 517.882812 445.367188 517.585938 443.339844 516.988281 C 439.15625 515.792969 435.664062 513.492188 432.859375 510.089844 C 430.050781 506.6875 427.871094 502.6875 426.316406 498.089844 C 424.765625 493.488281 423.898438 489.546875 423.722656 486.265625 C 423.542969 482.980469 423.453125 480.738281 423.453125 479.546875 C 423.453125 475.484375 423.898438 471.1875 424.796875 466.648438 C 425.691406 462.109375 427.246094 457.601562 429.453125 453.125 C 431.664062 448.644531 434.5 445.03125 437.964844 442.285156 C 441.664062 439.058594 444.980469 437.148438 447.90625 436.550781 C 450.832031 435.953125 453.25 435.65625 455.164062 435.65625 C 456.476562 435.65625 458.238281 435.835938 460.445312 436.195312 C 462.65625 436.550781 464.867188 437.359375 467.074219 438.613281 C 469.285156 439.863281 470.867188 440.910156 471.824219 441.746094 C 472.539062 434.222656 473.851562 427.117188 475.761719 420.429688 C 476.835938 416.605469 478.152344 412.84375 479.703125 409.140625 C 481.257812 405.4375 483.140625 402.003906 485.347656 398.839844 C 487.558594 395.675781 490.15625 393.257812 493.140625 391.585938 C 495.050781 390.507812 496.605469 389.941406 497.796875 389.882812 C 498.992188 389.824219 499.648438 389.792969 499.769531 389.792969 C 501.800781 389.792969 503.769531 390.242188 505.679688 391.136719 C 507.59375 392.03125 509.265625 393.347656 510.695312 395.078125 C 512.128906 396.808594 513.085938 398.871094 513.5625 401.257812 C 513.921875 402.570312 514.101562 404.007812 514.101562 405.558594 C 514.101562 408.1875 513.472656 411.378906 512.21875 415.144531 C 510.964844 418.90625 508.90625 422.964844 506.039062 427.324219 C 503.171875 431.683594 499.800781 435.625 495.917969 439.148438 C 492.035156 442.671875 488.066406 445.210938 484.003906 446.761719 C 483.886719 447.359375 483.765625 448.136719 483.648438 449.09375 C 483.527344 449.929688 483.40625 450.972656 483.285156 452.226562 C 483.167969 453.480469 482.988281 454.941406 482.75 456.617188 C 482.511719 460.4375 482.390625 464.257812 482.390625 468.082031 C 482.390625 470.949219 482.511719 474.738281 482.75 479.457031 C 482.988281 484.175781 483.585938 489.191406 484.542969 494.507812 C 485.496094 499.820312 486.78125 504.179688 488.390625 507.582031 C 490.003906 510.988281 491.765625 512.808594 493.679688 513.046875 C 494.035156 513.167969 494.335938 513.226562 494.574219 513.226562 C 496.84375 513.226562 499.050781 511.703125 501.203125 508.65625 C 503.351562 505.613281 505.441406 501.699219 507.472656 496.925781 C 509.503906 492.148438 511.296875 487.128906 512.847656 481.875 C 514.398438 476.621094 515.59375 472.203125 516.429688 468.617188 Z M 486.871094 431.894531 C 486.511719 433.445312 486.242188 434.789062 486.066406 435.925781 C 485.886719 437.058594 485.738281 437.984375 485.617188 438.699219 C 485.5 439.535156 485.4375 440.253906 485.4375 440.851562 C 488.78125 439.65625 491.976562 437.386719 495.023438 434.042969 C 498.066406 430.699219 500.664062 427.058594 502.8125 423.117188 C 504.964844 419.171875 506.457031 415.5625 507.292969 412.277344 C 508.128906 408.992188 508.546875 406.335938 508.546875 404.304688 C 508.546875 403.347656 508.488281 402.453125 508.367188 401.617188 C 507.890625 399.585938 507.085938 398.363281 505.949219 397.945312 C 504.816406 397.527344 504.070312 397.320312 503.710938 397.320312 C 502.277344 397.320312 500.785156 398.152344 499.230469 399.824219 C 496.84375 402.453125 494.574219 406.664062 492.421875 412.457031 C 490.273438 418.25 488.425781 424.726562 486.871094 431.894531 Z M 469.671875 480.980469 C 469.550781 480.023438 469.492188 478.710938 469.492188 477.039062 C 469.492188 476.203125 469.523438 474.796875 469.582031 472.828125 C 469.644531 470.859375 469.671875 468.320312 469.671875 465.214844 C 469.671875 462.109375 469.703125 459.332031 469.761719 456.886719 C 469.820312 454.433594 469.851562 452.972656 469.851562 452.496094 C 469.851562 450.941406 468.746094 449.480469 466.539062 448.105469 C 464.328125 446.734375 461.851562 445.628906 459.101562 444.792969 C 457.910156 444.433594 456.773438 444.253906 455.699219 444.253906 C 453.789062 444.253906 451.699219 445 449.429688 446.492188 C 447.160156 447.984375 444.949219 450.613281 442.800781 454.375 C 440.652344 458.136719 439.039062 462.4375 437.964844 467.273438 C 436.890625 472.109375 436.351562 476.859375 436.351562 481.515625 L 436.351562 484.382812 C 436.589844 488.085938 437.128906 491.519531 437.964844 494.683594 C 438.800781 497.847656 439.753906 500.625 440.828125 503.015625 C 441.902344 505.402344 443.097656 507.285156 444.414062 508.65625 C 445.726562 510.03125 446.980469 510.835938 448.175781 511.074219 C 448.652344 511.195312 449.070312 511.253906 449.429688 511.253906 C 451.816406 511.253906 454.207031 510.03125 456.59375 507.582031 C 458.984375 505.132812 461.164062 502.148438 463.132812 498.625 C 465.105469 495.101562 466.6875 491.609375 467.882812 488.144531 C 469.078125 484.683594 469.671875 482.292969 469.671875 480.980469 Z M 469.671875 480.980469 " fill-opacity="1" fill-rule="nonzero"/></g><g clip-path="url(#9b69d38990)"><path fill="#000000" d="M 597.761719 469.515625 C 597.761719 468.917969 598.121094 468.441406 598.835938 468.082031 C 599.554688 467.722656 600.148438 467.511719 600.628906 467.453125 C 601.105469 467.394531 601.40625 467.367188 601.523438 467.367188 C 602.242188 467.367188 602.867188 467.542969 603.40625 467.902344 C 603.941406 468.261719 604.210938 468.738281 604.210938 469.335938 L 604.210938 469.691406 C 604.09375 473.15625 603.734375 477.542969 603.136719 482.859375 C 602.539062 488.175781 601.375 493.28125 599.640625 498.175781 C 597.910156 503.074219 595.433594 507.285156 592.210938 510.808594 C 588.984375 514.328125 584.746094 516.09375 579.488281 516.09375 C 576.625 516.09375 573.964844 515.464844 571.519531 514.210938 C 569.070312 512.957031 566.980469 511.34375 565.246094 509.375 C 563.515625 507.40625 562.171875 505.253906 561.214844 502.925781 C 560.261719 500.59375 559.78125 498.355469 559.78125 496.207031 L 559.78125 495.847656 C 559.664062 495.847656 559.542969 496.027344 559.425781 496.386719 C 559.304688 496.746094 558.765625 497.699219 557.8125 499.25 C 554.347656 506.179688 550.527344 510.925781 546.347656 513.492188 C 542.164062 516.0625 538.046875 517.347656 533.984375 517.347656 C 532.671875 517.347656 531.359375 517.226562 530.042969 516.988281 C 526.34375 516.390625 523.296875 514.390625 520.90625 510.988281 C 518.519531 507.582031 516.875 503.761719 515.980469 499.519531 C 515.085938 495.28125 514.636719 491.070312 514.636719 486.890625 C 514.636719 485.457031 514.757812 482.917969 514.996094 479.277344 C 515.234375 475.632812 516.160156 471.066406 517.773438 465.574219 C 519.386719 460.078125 521.625 455.035156 524.492188 450.4375 C 527.355469 445.835938 530.878906 442.34375 535.0625 439.957031 C 539.597656 437.207031 544.257812 435.835938 549.035156 435.835938 C 549.511719 435.835938 551.152344 435.925781 553.960938 436.101562 C 556.769531 436.28125 559.664062 437.863281 562.648438 440.851562 C 563.246094 441.328125 563.8125 442.015625 564.351562 442.910156 C 564.890625 443.808594 565.398438 444.730469 565.875 445.6875 C 566.351562 446.640625 566.769531 447.507812 567.128906 448.285156 C 567.488281 449.0625 567.664062 449.570312 567.664062 449.808594 C 567.664062 450.285156 567.753906 450.554688 567.933594 450.613281 C 568.113281 450.671875 568.679688 450.703125 569.636719 450.703125 C 570.832031 450.703125 571.757812 450.882812 572.414062 451.242188 C 573.070312 451.601562 573.515625 452.195312 573.757812 453.03125 C 573.996094 453.867188 574.113281 454.824219 574.113281 455.898438 C 574.113281 456.378906 574.085938 457.214844 574.023438 458.40625 C 573.964844 459.601562 573.816406 461.691406 573.578125 464.679688 C 573.101562 470.289062 572.800781 474.738281 572.679688 478.023438 C 572.5625 481.308594 572.5 483.726562 572.5 485.277344 C 572.5 488.382812 572.652344 491.578125 572.949219 494.863281 C 573.25 498.148438 573.9375 501.101562 575.011719 503.730469 C 576.085938 506.359375 577.578125 508.148438 579.488281 509.105469 C 580.445312 509.582031 581.339844 509.824219 582.175781 509.824219 C 583.847656 509.824219 585.582031 508.6875 587.371094 506.417969 C 589.164062 504.148438 590.804688 500.773438 592.296875 496.296875 C 593.792969 491.820312 594.984375 487.042969 595.878906 481.964844 C 596.777344 476.890625 597.402344 472.738281 597.761719 469.515625 Z M 560.679688 460.734375 C 560.917969 459.898438 561.039062 458.945312 561.039062 457.871094 C 561.039062 457.035156 560.917969 455.898438 560.679688 454.464844 C 560.441406 453.03125 559.8125 451.359375 558.796875 449.449219 C 557.785156 447.539062 556.589844 445.867188 555.214844 444.433594 C 553.839844 443 552.378906 442.164062 550.828125 441.925781 C 546.40625 443.238281 542.671875 445.898438 539.628906 449.898438 C 536.585938 453.898438 534.164062 458.527344 532.375 463.78125 C 530.582031 469.035156 529.507812 473.722656 529.148438 477.84375 C 528.792969 481.964844 528.613281 485.21875 528.613281 487.609375 C 528.613281 490.59375 528.851562 493.9375 529.328125 497.640625 C 529.804688 501.34375 530.851562 504.65625 532.460938 507.582031 C 534.074219 510.507812 536.078125 511.972656 538.464844 511.972656 L 539.003906 511.972656 C 541.511719 510.777344 543.898438 508.65625 546.167969 505.613281 C 548.4375 502.566406 550.464844 499.164062 552.257812 495.402344 C 554.050781 491.640625 555.511719 487.789062 556.648438 483.847656 C 557.785156 479.902344 558.46875 476.441406 558.707031 473.453125 C 558.707031 470.949219 558.917969 468.558594 559.335938 466.289062 C 559.753906 464.019531 560.203125 462.167969 560.679688 460.734375 Z M 681.960938 467.542969 C 682.4375 467.304688 682.855469 467.183594 683.214844 467.183594 C 683.8125 467.183594 684.320312 467.542969 684.738281 468.261719 C 685.15625 468.976562 685.363281 469.632812 685.363281 470.230469 C 685.363281 470.589844 685.304688 470.886719 685.1875 471.128906 C 680.648438 477.097656 675.71875 482.859375 670.40625 488.414062 C 665.089844 493.96875 660.699219 499.191406 657.238281 504.089844 L 657.238281 513.046875 C 657.238281 518.0625 657.148438 523.558594 656.96875 529.527344 C 656.789062 535.5 656.34375 541.441406 655.625 547.351562 C 654.910156 553.265625 653.835938 558.96875 652.398438 564.460938 C 650.96875 569.957031 649.027344 574.734375 646.578125 578.792969 C 644.132812 582.855469 641.234375 585.8125 637.890625 587.660156 C 634.546875 589.511719 630.902344 590.4375 626.960938 590.4375 C 625.886719 590.4375 624.753906 590.378906 623.558594 590.257812 C 618.542969 589.664062 614.808594 587.722656 612.359375 584.4375 C 609.914062 581.152344 608.691406 576.824219 608.691406 571.449219 C 608.691406 565.238281 610.242188 558.878906 613.347656 552.371094 C 616.453125 545.859375 619.945312 539.679688 623.828125 533.828125 C 627.710938 527.976562 631.472656 522.722656 635.113281 518.0625 C 638.757812 513.40625 641.113281 509.824219 642.1875 507.3125 C 642.308594 505.882812 642.367188 504.238281 642.367188 502.386719 C 642.367188 500.535156 642.367188 498.835938 642.367188 497.28125 C 640.816406 499.671875 639.234375 502.117188 637.621094 504.625 C 636.007812 507.136719 634.21875 509.375 632.246094 511.34375 C 630.277344 513.316406 628.097656 514.929688 625.707031 516.179688 C 623.320312 517.4375 620.632812 518.0625 617.648438 518.0625 C 610.71875 517.585938 605.4375 515.316406 601.792969 511.253906 C 598.148438 507.195312 595.851562 501.222656 594.894531 493.339844 C 594.777344 491.789062 594.6875 489.875 594.625 487.609375 C 594.566406 485.339844 594.535156 483.367188 594.535156 481.695312 C 594.535156 480.023438 594.566406 477.8125 594.625 475.066406 C 594.6875 472.320312 594.777344 468.976562 594.894531 465.035156 C 595.015625 461.09375 595.191406 457.390625 595.429688 453.929688 C 595.671875 450.464844 595.9375 447.507812 596.238281 445.0625 C 596.535156 442.613281 596.804688 441.089844 597.042969 440.492188 C 597.523438 439.777344 598.269531 439.207031 599.285156 438.789062 C 600.296875 438.375 601.40625 438.164062 602.597656 438.164062 C 603.671875 438.164062 604.71875 438.375 605.734375 438.789062 C 606.746094 439.207031 607.496094 439.777344 607.972656 440.492188 C 608.449219 440.96875 608.71875 442.285156 608.777344 444.433594 C 608.839844 446.582031 608.867188 450.882812 608.867188 457.332031 C 608.867188 466.167969 608.898438 473.515625 608.957031 479.367188 C 609.019531 485.21875 609.226562 490.027344 609.585938 493.789062 C 609.941406 497.550781 610.507812 500.507812 611.285156 502.65625 C 612.0625 504.804688 613.167969 506.597656 614.601562 508.03125 C 615.914062 509.222656 617.40625 509.824219 619.078125 509.824219 C 620.152344 509.824219 621.796875 509.316406 624.007812 508.300781 C 626.214844 507.285156 628.753906 504.71875 631.621094 500.59375 C 634.488281 496.476562 637.023438 491.160156 639.234375 484.652344 C 641.445312 478.144531 642.789062 470.828125 643.265625 462.707031 C 643.742188 458.050781 644.191406 453.777344 644.605469 449.898438 C 645.027344 446.015625 645.414062 443.300781 645.773438 441.746094 C 646.25 440.3125 646.964844 439.355469 647.921875 438.882812 C 648.878906 438.402344 649.773438 438.164062 650.609375 438.164062 C 650.96875 438.164062 651.535156 438.222656 652.3125 438.34375 C 653.085938 438.460938 653.953125 438.941406 654.910156 439.777344 C 655.863281 440.613281 656.464844 441.6875 656.699219 443 C 657.058594 444.910156 657.238281 448.34375 657.238281 453.300781 C 657.238281 458.257812 657.238281 464.320312 657.238281 471.484375 C 657.238281 474.949219 657.207031 477.90625 657.148438 480.351562 C 657.089844 482.800781 657.058594 484.863281 657.058594 486.535156 C 657.058594 488.203125 657.03125 489.640625 656.96875 490.832031 C 656.910156 492.027344 656.878906 493.164062 656.878906 494.238281 C 661.179688 489.339844 665.121094 484.980469 668.703125 481.160156 C 670.734375 479.007812 672.675781 476.949219 674.527344 474.976562 C 676.378906 473.007812 677.988281 471.335938 679.363281 469.960938 C 680.738281 468.589844 681.601562 467.78125 681.960938 467.542969 Z M 628.933594 583.988281 L 629.46875 583.988281 C 631.5 583.988281 633.292969 582.675781 634.84375 580.046875 C 636.398438 577.417969 637.683594 573.925781 638.695312 569.566406 C 639.710938 565.207031 640.488281 560.402344 641.023438 555.144531 C 641.5625 549.890625 641.953125 544.785156 642.1875 539.828125 C 642.429688 534.875 642.578125 530.421875 642.636719 526.484375 C 642.695312 522.542969 642.789062 519.734375 642.90625 518.0625 C 642.429688 518.898438 641.53125 520.390625 640.21875 522.542969 C 638.90625 524.691406 637.472656 527.109375 635.917969 529.796875 C 634.367188 532.484375 632.785156 535.140625 631.171875 537.769531 C 629.558594 540.394531 628.277344 542.605469 627.320312 544.398438 C 621.347656 555.746094 618.363281 564.699219 618.363281 571.269531 C 618.363281 571.984375 618.542969 574.164062 618.902344 577.808594 C 619.257812 581.449219 622.601562 583.511719 628.933594 583.988281 Z M 628.933594 583.988281 " fill-opacity="1" fill-rule="nonzero"/></g></svg>